<?xml version="1.0" encoding="utf-8"?>
<!-- Generator: Adobe Illustrator 22.0.0, SVG Export Plug-In . SVG Version: 6.00 Build 0)  -->
<svg version="1.1" id="Layer_1" xmlns="http://www.w3.org/2000/svg" xmlns:xlink="http://www.w3.org/1999/xlink" x="0px" y="0px"
	 viewBox="0 0 1133.9 1133.9" style="enable-background:new 0 0 1133.9 1133.9;" xml:space="preserve">
<style type="text/css">
	.st0{fill:#010101;}
	.st1{fill-rule:evenodd;clip-rule:evenodd;}
</style>
<path class="st0" d="M843.1,263.5c-5.3,1.3-10.4,5.8-15.1,8.5c-5.3,2.9-13.7,7-18.4,11c-4.8,4.1-10.1,6.8-15.5,10
	c-10.3,6.1-18.7,14.5-28.8,21c-9.9,6.4-38,33.1-40.9,36.8c-16.7,21.8-31.9,47.9-33.9,52.5c-3.9,8.9-7.2,18-11.2,26.8
	c-2.9,6.5-4.7,13.6-7,20.3c-3.3-1.1-7.4-0.7-11.1-1.2c-2.8-31.3-8.9-61.3-21.4-90.2c-14.3-32.6-37-58.7-65.2-78.7
	c-11.1-7.8-27.2-19.6-41.3-17.7c-13,1.8-14.2,18.4-14.5,29.4c-0.4,19.9,2,40.3,5.2,59.9c2.9,17.7,7.1,35.3,15.8,50.8
	c7.7,13.8,18.5,25.2,28,37.5c9.2,11.9,16.5,24.7,22,39c1.3,3.3,2.5,6.6,3.7,9.9c-1.2-0.3-2.3-1.4-3.3-2.3c-0.1,1.7,0.1,3.4,0.1,5.1
	c-0.6-0.2-1.8,0-2.3-0.3c-0.1,1.7,0.1,3.4,0.1,5.1c-0.9,0.9-1.2,1-1.9,2.2c-3.1-1.1-4.3-5.6-7.1-6.4c-0.7,4.4,3.1,7.9-1.5,8.5
	c-40.8-19.2-86.3-25.3-130.8-22.3c-42.9,2.9-83.8,32.2-114,62.9c-18.1,18.4-23.4,38-24.9,64.1c-6.7-0.7-6.4,5.3-5.7,10.8
	c-1.7-0.2-4.1,0.9-5.8,0.7c0.1,1.5,0.6,3.2,1.3,4.8c0.1,2.8,0.5,9.8,0.4,13c-3.1-0.3-5.6,0.2-8.3-1.9c-0.1,5.6,5.5,15-1.8,15.9
	c-0.3,6.1,0.9,19.6,4.6,24.2c-3.6,0-4.9,1.8-7.3,3.2c5.9,8.6,6.5,20.5,11.4,29.4c-1.2-0.2-2.4-0.4-3.5-0.8c1.2,4.3,3.9,8.2,5.3,12.4
	c-10.4,1.1,3.4,18.2,7.5,22.2c5.2,5,11,7.8,17.1,9.7c0,6.4-0.3,12.8-0.9,19.3c-1.4,16-9.4,29.3-3.8,46.1
	c5.3,16.1,26.1,16.2,39.8,17.7c12.7,1.4,25.1,5.9,35.7,13.6c8.1,6,20.9,22,30.9,11.1c1.9,0.6,5.2,0,7.1,0.5c-3-3.3-2.9-8.1-3.6-12.7
	c4.7,2.3,9.3,5.3,14.2,7.5c9.8,4.3,18.4,2.8,28.7-0.6c-1-1.2-1.5-3.7-2.7-4.9c1.4-0.6,2.7-2.6,4.8-3.1c-0.3-1.8-2.5-6.3-2.4-7.8
	c0-1.5,2.1-7.2,2-7.6c-1.3-3.7-6.9-8.9-9.1-12.7c-3-5.1-9.2-11-15-16c8.5,0.4,16.5,2,25.5,2.6c7.8,0.6,15.2,1.7,23.2,2.7
	c9.4,1.2,31.6,1.6,43.7-5.3c7.9,12.5,17,24.4,24.9,36.7c4.8,7.5,7.9,19.6,13.6,26c4.7,5.2,23.1,14.5,26.6,4.1
	c4.2,0.7,9.8,0.9,12.2-2.3c10.2,6.4,35.3,4.1,42.9,0.8c-2.2-4.2-3.4-7.9-3.7-12.8c2.5,0.3,5.8-1.2,8.4-0.8c-2.8-3.7-7.3-6.9-9.8-11
	c-2.8-4.5-1.9-9.4-6.7-13.6c-4.5-4-11.5-7.9-17.9-10.8c-5.1-13.2-9.1-26.9-12.4-40.9c5.7-1.2,11.1-2.7,15.7-6.4
	c4.2,6.7,7.3,14.1,10.7,21.3c2.5,5.2,6.7,8,9.5,12.3c2.5,3.8,3.4,14,6.3,16.4c3,2.5,11.6,0.9,15.7,1.9c5.2,1.3,10.5,4.4,16.1,5.7
	c7.6,1.8,27,7.2,29.5-4c12.3,3.1,24.5,2.9,34.8-6.6c-3.8-5.2-16.9-15.1-11.2-20.7c-8.1-12.1-27.6-13.3-39.4-20.1
	c-9.3-5.4-7-7.6-7.1-18.6c-0.1-7.3-2.6-13.9-3.5-20.8c18.7-12.6,21.5-55.5,20.6-75.2c14.2,1.4,33.9,3.9,41.4-9.7
	c17.1,0.4,26.4-18.9,21.3-36.7c-3-10.6-4.4-18.4-5.2-29.6c-0.6-7.6-4.2-16.5-8.3-25.7c-0.8-6.4-2.3-12.8-2.7-18.5
	c-0.9-11.5-1.4-18.4-6.7-29.5c-4.1-8.7-7.9-17.7-14.1-24.7c-5.2-6-11.9-9.9-17.7-14.9c4.4-11.2,8.7-22.8,17.4-30.9
	c9.5-8.9,21.4-17.4,28.7-28.6c4.3-6.5,6.7-14.2,10.9-20.8c4-6.5,8.6-11.2,13.8-16.5c11.6-12.1,16.5-30.3,23.5-45.6
	c2.7-6,4.6-12.4,6.6-18.6c1.2-3.7,2.1-7.6,3.7-11.2c0.8-1.6,2.5-3.8,3.3-5.8c5.8-5.7,12.2-13.3,14.7-20.1
	C849.2,268.1,849.1,262.1,843.1,263.5z"/>
</svg>
