<?xml version="1.0" encoding="utf-8"?>
<!-- Generator: Adobe Illustrator 22.0.0, SVG Export Plug-In . SVG Version: 6.00 Build 0)  -->
<svg version="1.1" id="Layer_1" xmlns="http://www.w3.org/2000/svg" xmlns:xlink="http://www.w3.org/1999/xlink" x="0px" y="0px"
	 viewBox="0 0 1133.9 1133.9" style="enable-background:new 0 0 1133.9 1133.9;" xml:space="preserve">
<style type="text/css">
	.st0{fill:#010101;}
	.st1{fill-rule:evenodd;clip-rule:evenodd;}
</style>
<path id="XMLID_5148_" d="M765.9,446.2c0,0-31.9-89.4-114.9-69.4c0,0-19.9-3.2-18.4-22.3c0,0-24.7-99.7-83-87
	c0,0-23.9-16.8-19.9,11.2c0,0,16.8,72.6,58.2,91c0,0,18.3,6.4,0.8,23.1c0,0-11.2,26.3,5.6,39.9c0,0,17.6,51.9-21.5,67.8
	c0,0-16-4-23.1,18.3c0,0-125.3,33.5-144.4,106.9c0,0-33.1,55-25.8,137.3c1,10.7,2.6,21.8,5,33.4c0,0-19.1,5.6-15.2,14.4
	c0,0-21.3,49,51.3,52.5c8.2,0.4,16.3-1.6,23.3-5.8c12.6-7.6,34.5-18.6,39.5-6.8c0,0-9.6,24.7,16.8,19.9c0,0,121.9-3.3,130.7-12
	c0,0,28-12.4,9-25.9c-7.4-5.2-16.7-6.8-25.4-4.7c-19.2,4.6-58.6,11.4-52.3-11.6c0,0,22.7-27.9,33.6-55.9c2.4-6.1,10.4-7.4,14.6-2.3
	c9.6,11.9,18.5,24.7,23.9,36c6.2,13,13.2,25.7,21.8,37.2c3.1,4.1,4.2,9.4,3,14.3c-1.4,5.5-0.7,12.6,12.1,12.1c20.7-0.8,4,0,4,0h66.2
	c0,0,12.8-6.4,4.8-13.6c0,0-10-13.8-38.3-12.6c-1.9,0.1-3.5,0.1-4.9,0.2l1.7-3.5c0,0-65.4-77.7-53.5-115.4c0,0,26.3-13.6,48.3-38.2
	c22.3-24.9,40-61.1,21.2-105.7c0,0-1.2-15.3,1.8-28.2c2.3-9.6,0.8-19.7-3.4-28.7c-4-8.4-6.4-18.1,0-23.4c0,0,36.7-3.5,39.9-26.6
	C758.8,462.2,771.5,455.8,765.9,446.2z"/>
</svg>
