<?xml version="1.0" encoding="utf-8"?>
<!-- Generator: Adobe Illustrator 22.0.0, SVG Export Plug-In . SVG Version: 6.00 Build 0)  -->
<svg version="1.1" id="Layer_1" xmlns="http://www.w3.org/2000/svg" xmlns:xlink="http://www.w3.org/1999/xlink" x="0px" y="0px"
	 viewBox="0 0 1133.9 1133.9" style="enable-background:new 0 0 1133.9 1133.9;" xml:space="preserve">
<style type="text/css">
	.st0{fill:#010101;}
	.st1{fill-rule:evenodd;clip-rule:evenodd;}
</style>
<path id="XMLID_63_" d="M742.6,448.2c-10.4-9.6,38.2-75,52.3-93.3c14.1-18.4,46.7-42.4,33.9-49.5c-12.7-7.1-65.1,11.3-94.8,41
	c-29.7,29.7-38.2,60.8-38.2,60.8s-18.4,0-22.6,0c-4.2,0-13.9-48.1-33.8-67.9c-19.9-19.8-73.7-72.1-82.2-75c-8.5-2.8-12.7-8.5,0,41
	c12.7,49.5,28.3,106.1,39.6,123c11.3,17,24,36.8,17,45.3c-7.1,8.5-14.1,15.6-45.3,21.2c-31.1,5.7-72.1-25.5-157,17
	c-84.9,42.4-114.6,96.2-108.9,152.7c5.7,56.6,41,100.4,41,118.8c0,18.4-9.9,43.8,15.6,50.9c25.5,7.1,60.8,9.9,65.1,0
	c4.2-9.9-7.1-42.4,5.7-41c12.7,1.4,31.1,2.8,43.8,1.4c12.7-1.4,26.9,35.4,26.9,46c0,10.6,37.6,40.3,66.2,27.5
	c28.6-12.7,28.6-24,14.4-32.5c-14.1-8.5-14.4-17-14.4-17s18.7-7.1,21.5,2.8c2.8,9.9,41,26.9,66.5,21.2c25.5-5.7,31.1-17,9.9-26.9
	c-21.2-9.9-22.4-26.9-25.3-43.8c-3-17,42.3-39.6,56.4-75c14.1-35.4,36.8-72.1,36.8-72.1s45.3-9.9,53.7-46.7
	c8.5-36.8-22.6-82-24-90.5C761,479.3,761,465.1,742.6,448.2z"/>
</svg>
