<?xml version="1.0" encoding="utf-8"?>
<!-- Generator: Adobe Illustrator 22.0.0, SVG Export Plug-In . SVG Version: 6.00 Build 0)  -->
<svg version="1.1" id="Layer_1" xmlns="http://www.w3.org/2000/svg" xmlns:xlink="http://www.w3.org/1999/xlink" x="0px" y="0px"
	 viewBox="0 0 1133.9 1133.9" style="enable-background:new 0 0 1133.9 1133.9;" xml:space="preserve">
<style type="text/css">
	.st0{fill:#010101;}
	.st1{fill-rule:evenodd;clip-rule:evenodd;}
</style>
<path d="M642.8,405c0,0-1.2-41.7-39.4-82.2c-38.2-40.5-79.9-66-83.4-59.1s12.7,113.5,29,129.7c16.2,16.2,31.3,41.7,25.5,56.8
	c-20.9-3.5-95-29-148.3,39.4s-71.8,107.7-57.9,159.9s11.6,54.4,25.5,68.3s22,37.1,16.2,48.7c-5.8,11.6,0,27.8,13.9,33.6
	c13.9,5.8,17.4,17.4,27.8,22c10.4,4.6,69.5,18.5,77.6,7c8.1-11.6,3.5-30.1-10.4-37.1c-13.9-7,11.6-9.3,11.6-9.3s28.4,11,29.5,31.9
	c1.2,20.9,3.5,48.7,16.2,53.3c12.7,4.6,44,5.8,49.8-3.5c5.8-9.3,4.6-20.9-4.6-32.4c-9.3-11.6-3.5-82.2-3.5-82.2s25.5,11.6,30.1,26.6
	c4.6,15.1-0.8,41.1,0,51c1.2,15.1,7,15.1,20.9,17.4s52.6,0.9,44-12.7c-19.7-31.3-18.5-42.9-9.3-63.7c9.3-20.9,49.8-77.6,46.3-128.6
	c-3.5-51-32.4-140.2-41.7-162.2s31.3-69.5,35.9-77.6s34.8-75.3,23.2-111.2s-34.8-12.7-34.8-12.7s-46.3,23.2-62.6,55.6
	S642.8,405,642.8,405z"/>
</svg>
