<?xml version="1.0" encoding="utf-8"?>
<!-- Generator: Adobe Illustrator 22.0.0, SVG Export Plug-In . SVG Version: 6.00 Build 0)  -->
<svg version="1.1" id="Layer_1" xmlns="http://www.w3.org/2000/svg" xmlns:xlink="http://www.w3.org/1999/xlink" x="0px" y="0px"
	 viewBox="0 0 1133.9 1133.9" style="enable-background:new 0 0 1133.9 1133.9;" xml:space="preserve">
<style type="text/css">
	.st0{fill:#010101;}
	.st1{fill-rule:evenodd;clip-rule:evenodd;}
</style>
<g>
	<g>
		<path class="st0" d="M549.9,803.2c-1.8-3.5-3.6-7-4.4-7.8c-5.6-5.3-10.1-3.1-16.1-6.7c-4.9-3-8.5-8.1-13.5-11.6
			c-3-2.1-6.2-4.2-9.2-6.3c-5.2,9.5-12.2,18.4-17.9,27.5c10.6-2.4,25.3,3,36.1,3.7C533.2,802.4,541.7,802.5,549.9,803.2z M427.1,778
			c-1.8-3-3.5-6.1-4.4-8.6c-2.1-5.4-1.4-12.1-3.5-17.5c-1.5-3.8-6.5-9.7-8.8-13.3c-3.2-4.9,1.5-4.3-5.3-7.8c-1.9-1-9.2,1.1-11.7,1
			c-7.9-13.9-18-21.4-36.1-21.6c0.9-10.6-3.3-15.1-8.5-22c-1.5-2,0.7-5.1-1.3-6.8c-1.5-1.3-6.6,0.1-7.3-0.8c-1.7-2.4-4-4.2-4.4-6.3
			c-4-2.4-7.5-6.9-13.2-6.4c-0.2-2.5,0.8-4.8,2.2-6.7c-6,2.9-6.2-2.8-8-5.3c-1.8-2.5-4.3-4.3-7.2-6.5c0.1-3.7,0.4-8.3,1-12.1
			c0.6-3.8,3.3-7.2,2.5-11.4c-13.5-0.6-2.6-10.2-5.6-17.7c-0.8,0-2-0.4-2.8-0.3c1.6-4.3,4.5-8.2,4-13c-0.4-0.1-0.8-0.2-1.2-0.3
			c0.2-2.7-1.9-3.1-2.3-5.2c-0.4-2,0.2-4.5,0.1-6.6c-0.6,0-1.3,0-1.9-0.1c3.6-2.7,6.8-9.4,8-14.3c-10.2,0.4-20.4-4.8-23.9-12.8
			c-6.4,4.5-16.9-0.3-20.7-6.3c-3.1-4.9-5-17.4-1.3-23.9c-2.2-14.2,10.4-19.5,16.2-30.6c2.7-5.1,5.5-10.5,6.9-16.1
			c1.6-6.3,0.5-12.9,1.8-19.2c2.2-10.7,12.1-21.6,19.2-30c9-10.6,18.8-18.2,31.5-24.7c12.7-6.4,23.2-9.1,35.7-10.4
			c0.8-18.7-1.7-36.8-1.5-55.5c0.2-19.5,7.8-35,17.9-50.1c7.2-10.8,20.2-31.3,34-25.3c14.8,6.4,13.2,35.1,13.5,49.8
			c0.4,21.3,0,40.7-4.8,61.3c16-12.2,58.7-47,72-56.5c14.2-10.1,31.4-27.9,49.4-31.3c21.2-4,9.2,31.2,7,40.3
			c-3.9,16.3-8,31.3-17,45.9c-8.6,14.1-44.9,47.3-63.9,61.4c1.3-0.1,2.6-0.4,3.8-0.6c-1.3,0.9-1.8,2.4-2.8,3.3c0.9,0,2,0.4,2.8,0.3
			c-0.6,0.7-1,2.3-2,3.2c6.9,1.7,14.8-0.7,21.6,0.8c-6,5.4-17.5,5.3-22.1,11.8c2.9-0.4,6.3-1.8,9.7-0.9c-0.2,0.6-0.3,2-0.6,2.6
			c0.6,0,1.5-0.4,2.1-0.3c-0.3,0.5-0.4,1.8-0.6,2.4c7.5,0.5,14.6-0.4,21.8-1.3c-5.2,5.3-12.2,9.6-13.9,16.9c4.2,0.3,5.5-3.1,9.6-0.2
			c-0.5,0.9-0.8,3.2-1.4,4c2-1.2,4.4-3,6.7-3.9c-0.2,1,0.3,2.4,0.2,3.3c5.7,1.2,12.2-2.1,16.5,2.6c-0.8,0.9-1.1,2.4-1.8,3.2
			c3.4-2.7,12.2-1.7,15.9-0.1c2.8-3.2,6.3-2.5,9.8-4c2.9-1.2,2.6-4.1,7-3.1c-0.6,2.2-2.6,4.5-3.8,6.7c5.5-0.7,12.1-0.5,18,0
			c-0.7,0.9-1.3,2.5-2.2,3.2c4.7-1.7,10.7-1.6,15.8-2.8c6.2-1.5,10.8-4.6,17.3-4.5c-2.1,3-4.9,6.1-7.5,8.7c3.5-0.5,6.9-2.1,10.7-1.7
			c6.7-3.5,22,0.3,27.9,3c11.8,5.4,15.7,10.8,30.4,11.4c0.1,1.3,0.3,2.6,0.4,4c5.7,1.6,12.9,2.3,18,5.3c6.6,3.9,6.6,9.3,11.4,13.9
			c8.4,8.1,19.5,11.7,28.1,20.6c16.9,17.4,35.1,23.2,45.2,45.3c5.1,11.2,14.1,19.5,18.3,31c4,10.8,6,21.6,10.7,32.2
			c9.5,21.7,5.7,46.8,12.5,69.2c5.6,18.4,0.2,47.8-10.4,67.1c15.4-9.5,33.7-11.1,49.3-16.7c-2.1,2.7-2.1,6.5-3,9.9
			c4.7-1.2,8.9-3.9,11.5-8.2c7.2,6.3,7.5,20.6,3.9,29.6c-3.3,8.1-17.9,15.4-14,24.3c-2.2,0.8-4.8,4-6.5,4.6c3.2,2.6,2.9,4.4,7.9,4.9
			c-4.5,4.8-18.4,7-25.7,11.7c-6.6,4.3-10.4,6.2-17.8,6.2c0.2-1.7-5.3,1.7-5.1,0.1c-18.9,1.3-22.1,3.7-39.4-4.3
			c-6.1,10.5-13.9,1-23.2,3.3c-11.2,2.8-10.5,2.8-23.2,3.1c-12.5,0.4-19.6,4.8-29-1.7c-1.3-0.9-2.5-1.8-3.8-2.6
			c-2.2,6.4-6.6,12.1-13.7,15c-7.6,3.1-34.8,7-47.6,4c-4.4,0.4-9.4,0-15-1.2c-16.7-3.5-27.1-0.3-42.7,0.5c-7.9,0.4-19-1.9-26.5-0.7
			c-8,1.3-14.5,0.1-23-0.6c-16.4-1.3-29.3,2.1-45.8-0.1c-8.1-1.1-13.1-2.8-21.7-1.6c-7.2,1-15.9,6.2-17.1-4.7
			c-6.7-0.1-11.9-2.3-18.6-2.5c1.8-3.8,5.3-10.4,6.5-15.1c-5.4,1.1-10.3,3.2-15.9,3.3c-8.5,0.2-14.1-3.2-21.9-3.7
			c-5.2-8.3,3.7-5.5,4.9-9.1c1.5-4.4,1-9.6,2.6-14.2c2.4-6.9,10-15,18.7-17.3C413.2,798.8,418.7,774,427.1,778z"/>
	</g>
</g>
</svg>
