<?xml version="1.0" encoding="utf-8"?>
<!-- Generator: Adobe Illustrator 22.0.0, SVG Export Plug-In . SVG Version: 6.00 Build 0)  -->
<svg version="1.1" id="Layer_1" xmlns="http://www.w3.org/2000/svg" xmlns:xlink="http://www.w3.org/1999/xlink" x="0px" y="0px"
	 viewBox="0 0 1133.9 1133.9" style="enable-background:new 0 0 1133.9 1133.9;" xml:space="preserve">
<style type="text/css">
	.st0{fill:#010101;}
	.st1{fill-rule:evenodd;clip-rule:evenodd;}
</style>
<path id="XMLID_5124_" d="M641.8,474.7c0.5-1.1,1.1-2.2,1.8-3.1c2.3-3.3,5.8-5.5,9.5-7c14-5.5,36.3-40.2,41.1-47.9
	c0.7-1.1,1.4-2.1,2.1-3.2c21.2-31.4,33.4-111.6,33.4-111.6c4.4-36.9-10.2-37.9-10.2-37.9c-43.8-10.7-79.2,37.4-79.2,37.4
	c-75.3,73.4-58.8,154.6-58.8,154.6c5.3,20.4-10.7,29.7-10.7,29.7s-3.3,2.5-7.7,0c0,0-16-9.2-10.7-29.7c0,0,16.5-81.2-58.8-154.6
	c0,0-35.5-48.1-79.2-37.4c0,0-14.6,1-10.2,37.9c0,0,12.2,80.2,33.4,111.6c0.7,1.1,1.4,2.1,2.1,3.2c4.8,7.7,27.1,42.4,41.1,47.9
	c3.7,1.5,7.2,3.7,9.5,7c0.7,0.9,1.3,2,1.8,3.1c2.3,4.9,4.6,9.7,7.5,14.2c9.5,14.8,25.6,46.3,10.6,71.7c0,0-41.4,54.2,14.7,69.9
	l-4.4,1.1c-18.6,4.6-35.3,14.6-48.1,28.9c-33.1,37.1-80.2,112.2,11.4,170.2c-14.2,3.5-22.1,14.6-22.1,14.6c51.2,58.5,65.7,0,65.7,0
	l0,0c0.4-0.8,6.2-11,15-19.1c2.3,7.3,9,12.7,16.9,12.7c9.5,0,17.2-7.6,17.8-17.1c5.6,4.4,11.3,11.9,16.8,23.5c0,0,0,0,0,0
	c0,0,14.5,58.5,65.7,0c0,0-5-7-14.1-11.6c98.1-58.3,49.9-135.4,16.2-173.2c-12.7-14.3-29.5-24.4-48.1-28.9l-4.4-1.1
	c56.1-15.7,14.7-69.9,14.7-69.9c-15-25.4,1-56.9,10.6-71.7C637.2,484.4,639.6,479.6,641.8,474.7z"/>
</svg>
