<?xml version="1.0" encoding="utf-8"?>
<!-- Generator: Adobe Illustrator 22.0.0, SVG Export Plug-In . SVG Version: 6.00 Build 0)  -->
<svg version="1.1" id="Layer_1" xmlns="http://www.w3.org/2000/svg" xmlns:xlink="http://www.w3.org/1999/xlink" x="0px" y="0px"
	 viewBox="0 0 1133.9 1133.9" style="enable-background:new 0 0 1133.9 1133.9;" xml:space="preserve">
<style type="text/css">
	.st0{fill:#010101;}
	.st1{fill-rule:evenodd;clip-rule:evenodd;}
</style>
<path d="M521.4,500.1c-2.5,1.1-3.5-6.1-9.5-20.7c-6.1-14.7-8.6-22.5,9.5-57.9c18.2-35.4,24.2-60.5,19-96.8s-11.2-77.8-40.6-56.2
	c-29.4,21.6-65.7,75.2-61.4,115.8c4.3,40.6,2.6,48.4,2.6,48.4h-13.8c0,0,5.2-30.3-25.1-60.5s-94.2-90.8-102.9-86.4
	c-8.6,4.3-10.4,8.6-6.1,21.6c4.3,13,11.2,32.8,15.6,54.5s14.7,50.1,27.7,57.9c13,7.8,32.8,53.6,32.8,53.6s-8.6,13.8-4.3,26.8
	c4.3,13-4.3,32-8.6,36.3c-4.3,4.3-12.1,46.7,13,75.2c-6.9,29.4-10.4,64,5.2,80.4c15.6,16.4,66.6,43.2,76.1,55.3
	c9.5,12.1,15.6,38,9.5,46.7c-6.1,8.6-22.5,23.3-13,27.7c9.5,4.3,23.3,1.7,29.4-4.3c-4.3,11.2-5.2,18.2-13.8,24.2
	c-8.6,6.1-26.8,25.9-14.7,28.5s73.5,2.6,78.7-13.8c5.2-16.4,5.2-37.2,19.9-59.6s18.2-38,18.2-38s30.3,26.8,57.9,30.3
	c27.7,3.5,44.1,0.9,44.1,0.9l10.4,8.6c0,0-55.3,2.6-79.5,8.6c-24.2,6.1-23.3,3.5-31.1,14.7c-7.8,11.2-20.7,24.2-13.8,32
	c6.9,7.8,23.3,12.1,67.4,6.1c44.1-6.1,125.3-21.6,127.9-25.9c2.6-4.3,10.4-14.7,9.5-28.5c-0.9-13.8,0-21.6,0-21.6s20.7-0.9,35.4-6.1
	s37.2-17.3,38.9-23.3c1.7-6.1-2.6-6.9-2.6-6.9s14.7-17.3,13.8-26.8c-0.9-9.5-6.9-10.4-6.9-10.4s4.3-4.3-0.9-13.8
	c-5.2-9.5-15.6-11.2-15.6-11.2s-1.7-9.5-5.2-13c0.9-12.1,5.2-76.9-49.3-123.6C710.7,501.9,639.8,449.1,521.4,500.1z"/>
</svg>
