<?xml version="1.0" encoding="utf-8"?>
<!-- Generator: Adobe Illustrator 22.0.0, SVG Export Plug-In . SVG Version: 6.00 Build 0)  -->
<svg version="1.1" id="Layer_1" xmlns="http://www.w3.org/2000/svg" xmlns:xlink="http://www.w3.org/1999/xlink" x="0px" y="0px"
	 viewBox="0 0 1133.9 1133.9" style="enable-background:new 0 0 1133.9 1133.9;" xml:space="preserve">
<style type="text/css">
	.st0{fill:#010101;}
	.st1{fill-rule:evenodd;clip-rule:evenodd;}
</style>
<path d="M911,663.2c-1.6-9-27-3.2-45.9,2.5c1.7-11,2.7-22.9,2.7-35.8c0-113.6-108.2-159.7-159.7-171.2
	c-51.5-11.5-122.4,9.7-172.1,31s-65.1,26.2-78.7,7.1c-13.5-18.9-31.2-34.2-27.9-42.6c0,0,32.1-44.1,34.3-81.5
	C466,330,453.8,286.7,448,269c-1.6-4.9-6.7-7.5-11.6-6.1c-12.6,3.8-35.5,12.9-46.9,31.4c-16.3,26.3-22.6,50.9-22.6,69.2
	s-5,62.9-5,62.9c-0.7,7.1-25.4,5.8-56.9,20.4s-51.5,57.2-60.8,68.8c-9.3,11.5-20.9,17.6-21.4,34.8c-0.5,17.1,3.8,25.8,8.8,30.1
	c5,4.3,11.3,6.7,11.8,12c0.5,5.3,12,7.5,27.8,11.5c15.8,4,45.1-2.5,55.7,10.8s24.6,51.5,40.2,79.5c15.6,27.9,24.3,40.9,74.8,56.9
	c0.2,0.1,0.4,0.1,0.6,0.2c0.9,1.9,1.8,3.9,2.5,6c2.2,6.7,4.4,14,6.3,21.1c2.6,10.9-1.5,15.6-12.4,17.6c-11,2-27.3,14.3-28.9,25.3
	c-0.7,4.7,6,7.9,14.7,10c-3.3,1.8-5.8,3.7-6.7,5.9c-3.5,8.4-3.5,15.1-3.5,18.2c0,3.1,37.2,4.4,47.5,2.2s38.1-8.9,43.5-20.4
	c4.2-9,15.1-36.6,18.9-70.9c11.6,1.6,23.8,3.2,36.3,4.8c-8.7,7.8-13.3,21.5-15.3,29.4c-1.7,6.5,76.5,10.6,136.8,7.6
	c16.6,8.5,30,11.3,30,11.3s-49.7,2.2-78.5,2.7c-28.8,0.4-57.7,12.9-63.4,21.7c-5.8,8.9-6.7,23.1-6.7,23.1s37.7,7.1,56.3,3.5
	c18.6-3.5,119.3-15.5,136.2-16c16.9-0.4,33.3-3.5,37.2-29.7c4-26.2-7.4-43.2-7.4-43.2l0,0c12.1-5.8,26.8-15.5,40.4-30.5
	c5.3,1.3,11.1,2.2,17.5,2.4C884,754.7,913.2,675.3,911,663.2z"/>
</svg>
