<?xml version="1.0" encoding="utf-8"?>
<!-- Generator: Adobe Illustrator 22.0.0, SVG Export Plug-In . SVG Version: 6.00 Build 0)  -->
<svg version="1.1" id="Layer_1" xmlns="http://www.w3.org/2000/svg" xmlns:xlink="http://www.w3.org/1999/xlink" x="0px" y="0px"
	 viewBox="0 0 1133.9 1133.9" style="enable-background:new 0 0 1133.9 1133.9;" xml:space="preserve">
<style type="text/css">
	.st0{fill:#010101;}
	.st1{fill-rule:evenodd;clip-rule:evenodd;}
</style>
<path id="XMLID_5116_" d="M365.4,792.5c0,0,8.7-11.9,33.2-10.9c1.6,0.1,3,0.1,4.3,0.1l-1.5-3.1c0,0,21.7-25.7,35.8-53.1
	c7.1-13.8,12.3-27.9,11.8-39.5c-3.7-3.5-7.5-7.2-11.1-11.3c-1.5-1.7-3-3.5-4.5-5.2c-1.2-0.9-2.5-1.8-3.8-2.7
	c0.4-0.2,0.8-0.3,1.3-0.4c-17.4-22.7-29.3-52.9-17.3-89c2.9-8.7,3.7-17.9,2.8-27c-0.3-2.9-0.7-5.9-1.4-8.8c-2.2-9.9-1-20.4,3.4-29.6
	c3.9-8.3,6.2-18-0.1-23.2c0,0-30.1-2.8-38.2-20.6c-1.6-3.5-3.6-6.7-6.4-9.4c-2.9-2.8-5.6-7.2-2.5-12.6c0,0,30.4-85.2,109.1-70.6
	c6.5,1.2,13.5-0.4,18.3-5c3.6-3.4,6.4-8.5,5.8-16.1c0,0,24.7-99.7,83-87c0,0,23.9-16.8,19.9,11.2c0,0-2.5,11-8.1,25.5
	c0,0,60.5-27.1,34.5,11.8c0,0-32.8,79.9-82.8,85.8c1.8,8.9,2.2,22.3-8.2,30.8c0,0-17.6,51.9,21.5,67.8c0,0,10.8-2.7,18.6,8.7
	c4.3,6.2,10.2,11.2,17.3,13.6c32.4,10.8,116.2,44,131.6,103c0,0,33.1,55,25.8,137.3c-0.2,2.6-0.5,5.1-0.8,7.8
	c-1.4,11.8,1.4,24.2,9.4,33c1.8,2,2.7,4.3,1.5,7c0,0,21.2,48.8-51,52.5c-8.3,0.4-16.5-1.5-23.6-5.8c-12.6-7.6-34.5-18.6-39.5-6.8
	c0,0,9.6,24.7-16.8,19.9c0,0-121.9-3.3-130.7-12c0,0-28.2-12.5-8.8-26c7.4-5.2,16.9-6.5,25.7-4.4c19.4,4.6,58.1,11.1,51.8-11.7
	c0,0-12.6-15.5-23.5-34.9c-3.7-6.7-7.3-13.8-10.1-20.9c-2.4-6.1-10.4-7.4-14.6-2.3c-6.4,8-12.5,16.4-17.5,24.4
	c-2.4,4-4.6,7.9-6.4,11.6c-6.2,13-13.2,25.7-21.8,37.2c-3.1,4.1-4.2,9.4-3,14.3c1.4,5.5,0.7,12.6-12.1,12.1c-20.7-0.8-4,0-4,0H396
	c0,0-12.8-6.4-4.8-13.6c0,0,10-13.8,38.3-12.6c1.9,0.1,3.5,0.1,4.9,0.2l-1.7-3.5c0,0,25-29.7,41.2-61.2c9.5-18.5,16-37.5,12.9-51.8
	c-1.4,0.4-2.7,1.2-3.7,2.4c-5.6,6.9-10.9,14.2-15.2,21.2c-2.1,3.4-4,6.8-5.5,10.1c-5.3,11.3-11.4,22.3-18.9,32.3
	c-2.7,3.6-3.6,8.1-2.6,12.4c1.2,4.8,0.6,10.9-10.5,10.5c-18-0.7-3.5,0-3.5,0h-57.5C369.6,804.3,358.5,798.7,365.4,792.5z"/>
</svg>
