<?xml version="1.0" encoding="utf-8"?>
<!-- Generator: Adobe Illustrator 22.0.0, SVG Export Plug-In . SVG Version: 6.00 Build 0)  -->
<svg version="1.1" id="Layer_1" xmlns="http://www.w3.org/2000/svg" xmlns:xlink="http://www.w3.org/1999/xlink" x="0px" y="0px"
	 viewBox="0 0 1133.9 1133.9" style="enable-background:new 0 0 1133.9 1133.9;" xml:space="preserve">
<style type="text/css">
	.st0{fill:#010101;}
	.st1{fill-rule:evenodd;clip-rule:evenodd;}
</style>
<path d="M359.7,380.6c0,0,17.2,7.2,40.2-27.3c0,0,53.2-84.7,80.4-84.7c0,0,48.8-27.3,14.4,34.5c0,0,135-66.1,53.1,51.7
	c0,0-45.4,70.4-80.9,84.8c0,0,16.3,28.7,9.1,54.5c0,0-17.2,41.7,73.3,20.1c0,0,270-48.8,290.1,186.7c0,0,81.9-41.6,31.6,20.1
	c0,0-10,73.2-91.9,104.8c0,0-20.1-1.4-25.8,21.5c0,0-8.6,33-79,21.5c0,0-70.4-4.3-90.5-11.5c0,0-25.9-10-25.9-20.1
	c0,0-21.5-18.7,12.9-35.9c0,0-40.2-11.5-63.2-35.9c0,0-34.5,48.8-60.3,63.2c0,0-10,8.6-11.5,18.7c0,0-34.5,34.5-63.2,10
	c0,0-7.2-7.2-12.9-8.6c0,0-34.5,15.8-53.1,8.6c0,0,2.9-35.9,23-38.8c0,0,20.1-4.3,35.9-48.8c0,0,15.8-48.8-1.5-97.7
	c0,0-25.8-70.4-25.8-102c0,0-15.8-40.2-41.6-43.1C296.5,527.1,149.4,444.7,359.7,380.6z"/>
</svg>
