<?xml version="1.0" encoding="utf-8"?>
<!-- Generator: Adobe Illustrator 22.0.0, SVG Export Plug-In . SVG Version: 6.00 Build 0)  -->
<svg version="1.1" id="Layer_1" xmlns="http://www.w3.org/2000/svg" xmlns:xlink="http://www.w3.org/1999/xlink" x="0px" y="0px"
	 viewBox="0 0 1133.9 1133.9" style="enable-background:new 0 0 1133.9 1133.9;" xml:space="preserve">
<style type="text/css">
	.st0{fill:#010101;}
	.st1{fill-rule:evenodd;clip-rule:evenodd;}
</style>
<g>
	<path class="st1" d="M89.6,667.2c-5.9,1.7-5.7,2.9-0.5,6.4c11,10.9,21.9,10.1,32.8,5.1c24.4-8.8,47.8-15.7,69.3-19.2
		c24.9-4.1,47.5-3.9,66.6,2.7c15.9-4.4,31.5-19.8,40.7-35.8c-10.5,3.4-32.6,5.5-55.8,0.2c-6.7-1.5-11.1-5.1-17-4.6
		c-4.6,0.4-9.1,3.1-14.5,6.5c-5.9,2.9-12.7,5.7-20,8.3c-23.4,8.4-52.2,15.2-74.5,19.3c-9.8,1.2-13.9-7.3-22.9-6.5
		c-4.3-1.1-6.1-0.3-5.4,2.7c-4.7,0.1-5.7,1.7-2.9,5C82.9,657.7,83.1,661.1,89.6,667.2z"/>
	<path class="st1" d="M680.6,396.7c21.9,5.9,42.8,21.3,65.7,26.9c5.2,1.3,12.2,2.4,20.1,3.2c19,2.2,43.1,3.3,58.5,3.4
		c3.7-6.5,7.1-12.8,7.8-17.6c-23.8-5.6-36.2-0.2-61-6.6l-5.3-1.6l-24.1-7.3c-18.8-3.2-46.1-5.7-60.8-8.5
		C674.9,388.6,673.2,391.7,680.6,396.7z"/>
	<path class="st1" d="M1005.4,673.9c-13.1-4.4-28.4-12.3-41.6-19.5l-1.9-1c-10-5.5-17.3-6.4-25.7-4.8c-11.2-0.2-20.9-1.6-30-3.2
		c-14.6-2.6-32.9-1.5-42.5-14.3c-12.3-16.4,12.2-41.5,7.1-65.3l0.8,0.2c5.3,24.5-16.5,48-5.3,62.8c2.8,3.7,5.7,5.5,8.9,7
		c11.6,0.5,20-11,23.1-30.1c0.5-10.3-0.8-20.9-1.7-31.7c-3.1-41.6,33-56.8,47.1-79.9c-12.5,1.5-22.1,3.5-37.8,0.9
		c-11-1.8-41.2-15.1-26.3-32.8l0.2,0.4c-12.6,15,16.7,27.1,25.6,28.7c7.8,1.4,16,1.2,22,0.2c11.7-1.9,24.1-4.6,36-4.1l0.5,0
		c18.5,1.5,30.4-5.6,31.2-26.9c3.8-7.3,6.3-13.4,3.6-14.9c-5.3-4.4-9.5-9.4-14.9-12.3c-4.7-5.3-11.8-9-19.9-12.2
		c-10.4-4.1-22.5-7.3-33.4-12c-29.2-12.7-53.1-13.2-75.8-10c-11.4-11-24.5-18-40.6-23.3c-9.2-3-31-4.5-47.6-5.7
		c-6.6-0.5-12.5-1-16.3-1.5c-18-2.4-36.7-8.4-55.2-8.4c-9.1,0-13.3,6.3-6.8,11c10.7,7.7,37.3,16.4,54.1,22.8
		c9.3,3.2,16.8,5.9,24.3,8c10.9,3,21.8,4.7,38.2,4.3c11-0.3,20.5-1.4,34,1.9c-1.1,7.1-6.1,16-11,24.9c-6.2,14.5-11.9,26.6-18.8,35.4
		c-9.4,13.8-27.1,29-42.3,37c-2.9,1.5-5.7,2.8-8.4,3.7l0.2-1.2c2.7-0.9,5.4-2.3,8.2-3.9c8.2-4.9,16.8-12.5,24.2-20.7
		c-7,3.9-16.2,5.3-23.8,4.2l-0.4,0c-18,0.5-32.3,3.2-49.8,10c-17.4,6.8-40.6,8.2-58.1,9.2c-26.4,1.5-47.7-2.5-71.1-3.7
		c-27.3-1.4-44.8-9.4-68.4-14.5c-63.3-13.5-114.3-9.4-150,13.1c-6.3-16.1,7.2-39.9,27.4-41.8c-16.6-28.3-60.8-19.4-69.9,13.1
		c-3.9,14.1-1.3,38.9,18.1,49.8c-33.8,38.3-24.6,67.6-38.5,95.4c-8.9,17.7-22.6,39.8-40.2,47.3l0.1,0c-22.9,10.4-46.5-8.8-57.5,9.5
		c-5,6-10.8,12.3-17.2,18.7c-17.2,17-39,34.3-64.6,47.2c-8.5-2.8-15.7,2.9-27.1,0.3c-5.8-1.5-7.9,0.3-6.8,4.1
		c-3.7-0.3-4.6,3.3,0.2,5.8c-7.7-0.1-12.6,1.3-7.5,7.4c2.8,3.6,6.3,6.4,10.7,8.1c-3.1-0.6-2.9,0.4,0.2,2.8
		c6.4,3.7,12.2,4.9,17.7,4.4c8.8-0.9,16.1-6.9,24.1-12.6c19.5-14,35.1-31.3,53-43.2c4.7-3.1,9.6-5.9,14.8-8.1
		c15-6.5,30.8-10.4,47.9-9.3c41.9,2.7,81.2-3.5,111.5-17.4c7.5-3.4,14.6-7.3,21.4-11.4c37.9-22.8,39.4-40.2,59.7-67.4
		c9.2-12.4,21.2-20.4,44.9-20.7l-0.4,0.8c-31,1.8-37,14.1-46.8,33.4c120.7,9.9,217.7,86,322.2,63.7c12.2-2.6,24.5-6.5,37-12.1
		c-7.8-10.6-10-27.4-9.7-36.7l0.5-0.3c0.4,9.4,6.4,27.8,16.7,37.7c3.3,3.2,7.9,5.6,14.2,7.2c9,2.3,20.1,1.7,32.2,1.5
		c18.9-0.2,40.5-1.6,61.8-5.7c16.7-3.3,29.6-0.4,41.8,4.3c1,0.4,1.9,0.8,2.9,1.2c9.9,4.2,19.4,9.9,28.1,15.9
		c11.2,13,21.8,9.5,28,15.9c9.6,3.3,15.7,3.6,14.1-2.9c5.3,2.4,8.7-1.9,6.1-5.5c6.3-1.9,7.9-5.6-0.8-13.6
		C1040.4,678.3,1024,671.2,1005.4,673.9z M820.5,401.7c6.1-3,20.7-0.6,8.8-8.8c-15.8-10.8-41.1-13.2-62.9-14.9
		c-3.1-0.2-6.2-0.5-9.1-0.7c-18.1-1.5-38.7-9.4-53.9-11.2c-3.8-0.5-9.3-1.3-12.7,0.9c0.8-6.5,26.2-0.2,33.4,1.4
		c12.3,2.6,27.7,5.7,39.6,6.2l2.7,0.2c22,1.7,51.3,4.4,68.3,15.1C854.9,402.5,828.2,401.9,820.5,401.7z"/>
	<path class="st1" d="M1049.8,651.1c-4.8-9.8-6.1-18.8-26.9-17.3c-13.8,1.2-33.4-3.1-56.5-11.1c-0.9-0.4-1.7-0.8-2.6-1.2
		c-9.6-4.5-19-9.3-28.9-13.1c-12.7-4.8-23.9,2.4-35.4,4.6c-2.5,11.6-7.5,21.5-17.2,25.3c3.6,0.7,7.6,1.2,11.9,2
		c7.8-1.5,15-3.7,22.2-6.1c17.2-5.7,33.2-1.4,47.4,5.2c5.2,2.4,10.1,5.1,14.7,7.8c14.4,8.7,23.6,10.7,29.2,8.2
		c7.6,1.4,12.9,8.8,18.7,9.3c2.3-0.5,2.8-3.3,1.5-8.1c6.6,6.9,11.8,5.3,10.3,1.6c4.1,1.6,9.6,0.8,3.5-5.1
		C1051.4,656.7,1051.3,654.1,1049.8,651.1z"/>
</g>
</svg>
