<?xml version="1.0" encoding="utf-8"?>
<!-- Generator: Adobe Illustrator 22.0.0, SVG Export Plug-In . SVG Version: 6.00 Build 0)  -->
<svg version="1.1" id="Layer_1" xmlns="http://www.w3.org/2000/svg" xmlns:xlink="http://www.w3.org/1999/xlink" x="0px" y="0px"
	 viewBox="0 0 1133.9 1133.9" style="enable-background:new 0 0 1133.9 1133.9;" xml:space="preserve">
<style type="text/css">
	.st0{fill:#010101;}
	.st1{fill-rule:evenodd;clip-rule:evenodd;}
</style>
<g>
	<path d="M826.9,349.7c-0.5-0.9-1.3-1.7-2.5-2.4c-16.2-15-35.6-15.5-49.3-13.1c-16.3,2.8-29.3,10.5-31.1,14.6
		c-22.3,19.5-33.6,44.6-38.2,64.1c-5-1.7-10.2-3-15.5-3.8c-0.4-20.4-4.6-46.3-15.6-72.3c-15.2-37.1-43.5-56.3-63.9-61.8
		c-0.6-0.2-1.2-0.3-1.7-0.4c-13.1-3.1-24.5-1.2-32.2,5.3c-23.9,20.2,6.8,61.4,39.9,99l0,0c10.8,12.1,20.3,23.9,28.3,34.1
		c-7.7,2.6-15.3,6.1-22.5,10.6c-28.3,17.4-49.2,47.1-57.3,81.5c-5,25.5-0.6,49.3,12.9,68.9c13.5,19.6,35.4,34.2,61.1,41
		c-11,4.6-22.5,11.2-33.4,19.6c-30,23-44.7,50.5-34.2,64c1.6,1.9,3.6,3.1,5.9,3.7c0.8,0.2,1.6,0.3,2.4,0.4c5.2,0.3,10.9-2.2,15.9-7
		c0.4,1.6,1.1,3.2,2.2,4.7c1,1.3,2.2,2.5,3.6,3.5c-3.3,22.2-3.1,46.5,9.4,74c6.2,13.7,15.8,28,28.4,39.7c-4.7,1.1-9.1,2.3-12.8,4
		c-7.6,2.7-13.3,7.6-15.7,13.5c-1.8,4.5-1.6,9.4,0.6,13.7c3.4,6,9.1,10,17,11.9c6.4,1.6,13.9,1.7,22,0.5c14.1-2.1,30.1-8.2,46-17.8
		c0.2-0.1,0.5-0.3,0.7-0.4c4.4,0.2,9,0,13.7-0.6c0.2,0,0.4-0.1,0.6-0.1c10.7,8.9,21.6,15.6,32,19.6c7.6,3,15,4.5,21.6,4.4
		c8.1-0.2,14.6-2.8,19.3-7.8c3.2-3.7,4.5-8.4,3.7-13.3c-1-6.2-5.5-12.3-12.3-16.7c-4.7-3.5-10.8-6.4-17.2-9.4c-1-0.5-2.1-1-3.1-1.5
		c7.1-7.8,12.9-16.7,17.3-26.1c0.1,0,0.1,0,0.2,0c0.1,0,0.1,0,0.2,0c2.8-0.1,5.3-0.4,7.6-0.9c2.2-0.5,4.5-1.4,7.2-2.7
		c2-1,4-2.3,6.3-4.1c1.3-1,2.1-2.4,2.8-3.7c0.5-0.8,0.9-1.6,1.5-2.3c1.6-2,2.9-3.8,4-6c0.9-1.8,1.2-3.5,1.6-5.4
		c0.1-0.5,0.2-1,0.3-1.4c0.2-0.9,0.7-1.8,1.2-2.7c0.7-1.3,1.5-2.7,1.5-4.3c0-1.5-0.8-2.8-1.6-4.1c-0.5-0.9-1.1-1.9-1.3-2.8
		c-0.7-2.6-1.3-4.6-2.4-6.7c-0.4-0.8-0.7-1.8-1-2.8c-0.4-1.5-0.8-3-1.8-4.1c-1-1.2-2.5-1.9-3.9-2.6c-0.9-0.5-1.8-0.9-2.5-1.4
		c-0.5-0.4-1-0.8-1.5-1.1c-1.4-1.1-2.9-2.3-4.6-3c-0.6-0.3-1.1-0.5-1.7-0.8c-0.2-0.1-0.3-0.2-0.5-0.2c-1.7-22.7-9.6-41.8-18.3-59.2
		l0,0c-11.6-18.6-26.6-40.4-44.2-55.4c7.8-2.9,15.1-6.7,21.6-11.4c20.1-14.3,32.6-35.7,36.1-61.9c0.1-0.9,0.2-1.8,0.3-2.8l0,0
		c3.2-43.2-13.9-83.1-42.3-107c2.7-1.7,5.6-3.5,8.6-5.5c7.5-4.7,16-10.2,25.4-15.8c0.8,1.6,1.5,3.2,2.3,4.9l0,0
		c2.6,5.4,5.2,10.8,7.6,16.1c12.1,25.8,21.7,46.2,33.6,49.7c0.8,0.2,1.7,0.4,2.6,0.5c2.9,0.2,5.8-0.6,8.7-2.4
		c8.3-5,15.5-23.2,18.4-46.2C848.3,404.6,845.4,368.6,826.9,349.7z"/>
	<path d="M537.2,626.1c-10.1-6.7-20.6-12-30.6-15.8c-1.8-1.9-3.7-3.7-5.6-5.4c14.8-6.2,27.9-15.1,38.1-26.1
		c14.3-15.5,29.6-42.4,20.8-82.1c-10.6-44.4-43.6-78.7-83.8-90.3c8.1-10.8,17.7-23.4,28.7-36.3l0,0c32.7-38.9,62.8-81.3,38.1-101.2
		c-7.9-6.5-19.5-8.1-32.7-4.7c-0.6,0.1-1.1,0.3-1.7,0.5c-20.5,6-48.8,26.1-63.3,64c-9,22.7-12.9,45.2-13.9,64.2l-2.1,1.8
		c-1.7,1.5-3.4,3-5.1,4.5c-2.3-5.2-5.2-10.6-8.6-16c-0.1-0.3-0.2-0.6-0.3-0.9l-0.8-2.5l-0.3,1.2c-7.5-11.3-17.4-22.4-30.4-31.6
		c-2.3-3.9-15.9-10.3-32.4-11.4c-13.9-1-33.1,1.5-47.8,18c-1.1,0.9-1.9,1.8-2.2,2.7c-16.5,20.6-15.8,56.8-9.6,83.8
		c5.2,22.7,14.2,40,23,44.2c3.1,1.5,6,2,8.9,1.5c0.8-0.2,1.7-0.4,2.5-0.7c11.5-4.7,19-25.9,28.4-52.8c1.9-5.4,3.9-11.1,6-16.8l0,0
		c0.6-1.7,1.2-3.4,1.8-5.1c8.3,3.9,16,7.7,22.9,11.2c-2.4,2.7-4.9,5.3-7.4,7.9c-2.8,2.9-5.6,5.8-8.3,8.9c-2.2,2.6-4.1,5.1-5.8,7.6
		c-16.2,24.7-23.5,55.4-20.5,86.4c0.9,7,2.5,13.8,4.6,20.1c8.2,24.2,25.1,42.5,48.8,52.9c6.9,3,14.2,5.3,21.7,6.8
		c-15.9,15.6-29.5,36.3-40.1,54.2l0,0.1c-4.7,10-9.2,20.6-12.5,32c-2.1-0.5-4.2-1-6.3-1c-2.5,0-5.1,0.7-7.6,1.3l-1,0.2
		c-3.1,0.8-6.1,2.2-8.1,3.2c-0.5,0.3-1,0.5-1.5,0.8c-2.1,1-4.3,2.1-6.1,3.5c-1.4,1.1-2,2.9-2.6,4.5c-0.4,1.2-0.9,2.3-1.5,3.2
		c-0.7,0.9-1.7,1.6-2.9,2.3c-1.5,1-3.1,2-3.8,3.6c-0.7,1.6-0.7,3.5-0.7,5.3c0,1.3,0,2.4-0.2,3.5c-0.2,0.9-0.5,1.8-0.8,2.8
		c-0.6,1.8-1.1,3.6-1.1,5.6c0.1,2.8,0.7,5.6,1.4,8.5c0.4,1.8,1.6,3.2,2.6,4.6c0.7,0.9,1.4,1.8,1.8,2.7c0.5,1,0.8,2.1,1.1,3.2
		c0.4,1.7,0.9,3.4,2,4.8c1.3,1.6,3,2.7,4.6,3.8c0.7,0.5,1.4,1,2.1,1.5c1.7,1.3,3.7,2.2,5.6,3c0.6,0.3,1.2,0.5,1.8,0.8
		c0.9,0.4,1.7,0.9,2.5,1.4c1.6,0.9,3.2,1.9,5.1,2.3c0.7,0.1,1.4,0.3,2.1,0.5c2,0.5,4.1,1,6.2,1c0.1,0,0.2,0,0.3,0
		c2.1,0,4.1-0.2,5.9-0.5c5.1,15.9,13.5,31.9,25.7,44.7c-0.5,0.2-1,0.5-1.5,0.7c-6.7,3.1-13,6-17.8,9.7c-7,4.5-11.6,10.7-12.7,17.2
		c-0.8,5,0.5,9.8,3.8,13.7c4.8,5.2,11.5,7.9,19.9,8.1c6.8,0.1,14.4-1.4,22.3-4.5c10.6-4.1,21.9-11,32.9-20.1c5,0.5,9.8,0.5,14.4,0.2
		c0.4,0.3,0.8,0.5,1.3,0.8c16.4,9.9,32.9,16.2,47.5,18.4c8.4,1.2,16.1,1.1,22.7-0.6c8.1-2,14-6.2,17.6-12.3
		c2.3-4.5,2.5-9.5,0.6-14.2c-2.5-6.1-8.4-11.1-16.2-13.9c-4.5-2-10-3.4-15.8-4.7c13.3-12.6,23.2-28.1,29.5-42.8
		c9.4-22.1,11.4-42,10-60.5c3.2-1.6,5.8-3.7,7.9-6.4c2.5-3.5,3.1-7.2,2-10.5c1.5-2.6,2.1-5.4,1.6-8.2c1.8,0.4,3.6,0.4,5.3,0.2
		c0.8-0.1,1.6-0.3,2.4-0.6c2.3-0.8,4.2-2.2,5.7-4.1C585.3,673.3,568.7,646.9,537.2,626.1z"/>
</g>
</svg>
