<?xml version="1.0" encoding="utf-8"?>
<!-- Generator: Adobe Illustrator 22.0.0, SVG Export Plug-In . SVG Version: 6.00 Build 0)  -->
<svg version="1.1" id="Layer_1" xmlns="http://www.w3.org/2000/svg" xmlns:xlink="http://www.w3.org/1999/xlink" x="0px" y="0px"
	 viewBox="0 0 1133.9 1133.9" style="enable-background:new 0 0 1133.9 1133.9;" xml:space="preserve">
<style type="text/css">
	.st0{fill:#010101;}
	.st1{fill-rule:evenodd;clip-rule:evenodd;}
</style>
<path d="M591.3,513.4c13.5-22.9,32.2-56,57.9-86.8c50.1-60,94.3-115.9,53.1-133.7c-18.4-8-65.4,36.5-100.1,106.8
	c-11.8,23.8-27.5,71.6-34.6,105.3c-10.7-2.6-21.4-3.7-31.7-3.7c-16,0-33.4,2.9-49.8,9.5c-0.9-26.6-3-64.4,2.2-104.2
	c10-77.6,17.2-148.4-27.1-141.3c-19.8,3.2-35.5,66-27,143.9c3.1,28.1,17,81.5,29.8,113.4c-25.6,17.3-45.5,46.3-48.6,90.6
	c-3.5,49.5,27.7,69.7,70.9,76.8c-23.5,20.8-60,40.3-53.5,49.6c4.9,6.9,24-2.7,42.1-16.6c-15.8,37.9-14.1,145.6,8.1,145.6
	c9.4,0,11.5-10.4,10.5-25.7c10.3,9.7,24.1,15.7,42,15.7c17.8,0,31.2-5,41-13.3c-1.1,14-0.7,23.6,9.6,23.6c20,0,21.5-106.5,7.4-147
	c18.9,14.6,37.7,24.1,42.4,17.6c6.7-9.2-30.1-27.6-53.3-48.6c46.4-6,81.6-24.9,74-77.7C648.7,558.5,622.2,528.3,591.3,513.4z"/>
</svg>
