<?xml version="1.0" encoding="utf-8"?>
<!-- Generator: Adobe Illustrator 22.0.0, SVG Export Plug-In . SVG Version: 6.00 Build 0)  -->
<svg version="1.1" id="Layer_1" xmlns="http://www.w3.org/2000/svg" xmlns:xlink="http://www.w3.org/1999/xlink" x="0px" y="0px"
	 viewBox="0 0 1133.9 1133.9" style="enable-background:new 0 0 1133.9 1133.9;" xml:space="preserve">
<style type="text/css">
	.st0{fill:#010101;}
	.st1{fill-rule:evenodd;clip-rule:evenodd;}
</style>
<path d="M450.8,723.9c-3-7.5-4.8-15.7-5.5-27.7c-1.5,1.9-3,3.8-4.3,5.8c-1.9,7.1-2.9,14.7-2.9,22.4c0,26.2,11.4,49.6,29.5,65.8
	c0,0,0,0,0,0c-9.5,13-15.6,28.7-16.8,45.7c0.7,0,1.4,0,2.1,0c14,0,27.4-2.8,39.7-7.9c1.1-6.1,1.9-13.4,1.8-21.4
	c-0.2-12-0.6-21.7-7.2-35.1C476.6,750,458.9,744.3,450.8,723.9z M666.3,790.1c18.1-16.1,29.5-39.6,29.5-65.8c0-7.7-1-15.2-2.9-22.4
	c-1.4-2-2.8-3.9-4.3-5.8c-0.7,12-2.6,20.2-5.5,27.7c-8.1,20.4-25.8,26.2-36.4,47.5c-6.6,13.4-7,23.1-7.2,35.1
	c-0.1,8,0.7,15.4,1.8,21.4c12.2,5.1,25.6,7.9,39.7,7.9c0.7,0,1.4,0,2.1,0C681.9,818.8,675.8,803.1,666.3,790.1
	C666.3,790.1,666.3,790.1,666.3,790.1z M627.9,809.6c0-22.1,6.9-42.6,18.7-59.4c0,0,0,0,0,0c14.9-18,23.9-41,23.9-66.2
	c0-28.4-11.4-54-29.9-72.7c8.3-10.6,13.2-23,13.2-36.4c0-16.6-7.5-31.8-19.8-43.7c-4.2-12.7-5.9-21-5.9-21l0,0
	c0-13-4.1-25-10.9-34.9c39.3-31.7,65.9-87.1,67.4-150.7c-7.5,34.5-26.3,86.3-73.6,132.5c0,0,34-118.1,72.2-164.9
	c-1-9.3-2.6-18.5-4.7-27.3c-50.9,28.4-86.5,93.6-86.5,169.4c0,6.9,0.3,13.8,0.9,20.5c-7.9-3.7-16.6-5.8-25.9-5.8
	c-9.3,0-18,2.1-25.9,5.8c0.6-6.7,0.9-13.6,0.9-20.5c0-75.9-35.6-141-86.5-169.4c-2.1,8.8-3.7,18-4.7,27.3
	c38.2,46.8,72.2,164.9,72.2,164.9c-47.3-46.3-66.1-98-73.6-132.5c1.5,63.6,28.1,119.1,67.4,150.7c-6.9,9.9-10.9,21.9-10.9,34.9
	c0,0-1.7,8.3-5.9,21c-12.4,11.9-19.8,27.1-19.8,43.7c0,12.1,4,23.5,11,33.5c5.6,6.6,19.6,18.5,49.6,22.4c0,0-32.6,8.5-57.6-7.5
	c-12.4,17.1-19.7,38.1-19.7,60.8c0,25.2,9,48.3,23.9,66.2c0,0,0,0,0,0c11.8,16.8,18.7,37.3,18.7,59.4c0,2.5-0.1,5.1-0.3,7.6
	c-0.7,9.8-2.8,19.3-6.1,28.2c3.6,13.6,16,23.6,30.6,23.6c12.8,0,23.9-7.6,28.9-18.6v-96.9c0-4.3,3.5-7.8,7.8-7.8
	c4.3,0,7.8,3.5,7.8,7.8v96.9c5,11,16,18.6,28.9,18.6c14.7,0,27.1-10,30.6-23.6c-3.3-8.9-5.4-18.4-6.1-28.2
	C628,814.7,627.9,812.2,627.9,809.6z M566.9,579.4L566.9,579.4C566.9,579.4,566.9,579.4,566.9,579.4
	C566.9,579.4,566.9,579.4,566.9,579.4L566.9,579.4c-20.2,0.3-20.2-11.6-20.2-11.6C558.9,567.8,566.9,579.3,566.9,579.4
	c0.1-0.1,8-11.6,20.2-11.6C587.1,567.8,587.1,579.7,566.9,579.4z"/>
</svg>
