<?xml version="1.0" encoding="utf-8"?>
<!-- Generator: Adobe Illustrator 22.0.0, SVG Export Plug-In . SVG Version: 6.00 Build 0)  -->
<svg version="1.1" id="Layer_1" xmlns="http://www.w3.org/2000/svg" xmlns:xlink="http://www.w3.org/1999/xlink" x="0px" y="0px"
	 viewBox="0 0 1133.9 1133.9" style="enable-background:new 0 0 1133.9 1133.9;" xml:space="preserve">
<style type="text/css">
	.st0{fill:#010101;}
	.st1{fill-rule:evenodd;clip-rule:evenodd;}
</style>
<g>
	<path class="st1" d="M392.6,482.4c0.8-0.1,1.7-0.4,2.4-0.9c3.7-2.7,2.3-13.9,1.8-17.9c-6.6-23.8-5.9-48.5-0.1-72.8
		c9.9-41.5,18.2-56.9,38.2-68.9c-7-10.6-14.5-16.4-25.3-9.9c-30.7,18.6-36.7,98.3-21.9,151.7c2,7.1-5.8,14.3-12.7,22.2
		C380.7,484.4,386.6,483.2,392.6,482.4z"/>
	<path class="st1" d="M842.9,688.4c0.2,1.4-0.2,3.4-1.1,5.1c-3.1-10.1-6.3-19.2-7.9-27.4c-0.2,2.1-0.9,3.9-2.7,6.1
		c1.2-2.7-1.3-7-2.6-8c0,11.1-8.5,15.2-15.3,22.1c-0.3-2.9-0.7-5.8-1.1-8.6c-17.5-121.9-69.6-158.4-156-166.5
		C574.1,488.5,495,531,468.9,533.5c-7.2-13.2-22.9-35.3-13.7-54.3c39.3-80.5,28.5-169.1-7.1-159.9c-36.5,9.4-63.3,82.1-45.8,145.2
		c2.2,16-0.3,21.8-7,22.9c-23.7,3.3-43.6,11.7-58.2,27.6c-16.1,8.9-22.8,19.9-22.9,32.3c-9.1,12.8-14.8,28.5-17,47
		c-6,6.8-11.6,17.4-7.5,23c0,8.2,2.7,13.6,6.7,21.8c5.4,8.1,10.4,8.7,15.9,6.5c3.9,1.7,8.2,2.6,12.2,2.1
		c14.7,10.4,28.1,12.5,39.9,40.9c13.3,32.1,38.1,50.9,60.4,55.9c7.2,1.6,5.8,6.2,2.4,13.4c-3.4,7.2-5.1,14.2-10.9,19.4
		c-3.5,3.1-15.1,6.2-20.9,8.1c-15.6-1.5-25.7-1.3-33.2,3.3c-19,11.7-19.8,23.6-4.8,25.6c28.8,3.1,56.9,0.3,85-0.5
		c14.4-0.4,19.7-8.3,25.1-17.7c7.9-13.6,23.3-23.6,32.1-35.6c22.3,14.9,59,17.1,84.9,20.9c13-13.1,39.3-18.1,72.5-10.7
		c-47-77.6-32.3-147.8,7.2-167.7c-41.2,40.5-45.3,101.2-0.6,167.2c19.4-0.4,40.2,7.3,57.4,16.1c-18.8-7.6-39.3-10.7-61.5-9.2
		c-63.4-12.6-75.2,8.4-81.2,27.2c-5.3,16.5,3.8,19.9,18.7,20.1c66,1.2,102.9-5.8,138.8-11.7c21.4-5.4,28.6-15.6,29.3-27.9
		c20.5,2.1,33.3-8.6,40.8-25.2c10.1,2.5,21.9-4.6,27.6-13.4c7.6-11.8,11.4-20.6,11.4-34.7c0-1.1-0.1-2.3-0.2-3.4
		C845.8,703.1,846.6,692.4,842.9,688.4z"/>
	<path class="st1" d="M471.1,798.4c-1.5,2.5-2.9,4.9-4.5,7c18-0.1,35.2-1.4,52.8-1.9c14.1-0.4,15.3-8.3,15.8-17.6
		c0.1-2.6,0.6-5.1,1.3-7.5c-12.9-2.7-25.4-6.5-35.6-12.6C491.7,777,478.4,785.8,471.1,798.4z"/>
</g>
</svg>
