<?xml version="1.0" encoding="utf-8"?>
<!-- Generator: Adobe Illustrator 22.0.0, SVG Export Plug-In . SVG Version: 6.00 Build 0)  -->
<svg version="1.1" id="Layer_1" xmlns="http://www.w3.org/2000/svg" xmlns:xlink="http://www.w3.org/1999/xlink" x="0px" y="0px"
	 viewBox="0 0 1133.9 1133.9" style="enable-background:new 0 0 1133.9 1133.9;" xml:space="preserve">
<style type="text/css">
	.st0{fill:#010101;}
	.st1{fill-rule:evenodd;clip-rule:evenodd;}
</style>
<path id="XMLID_5146_" d="M730.7,352.6c10.2-24.1,11.9-38.8,11.6-46.9h0c0.6-3.7,0.4-6.4-0.3-8.4c0.2,0,0.4,0,0.6,0
	c-0.2,0-0.4,0-0.6-0.1c-2.5-7-10.8-5.6-10.8-5.6c-30,5.2-58.2,73-58.2,73c-0.4,3.2-1.3,5.9-2.3,7.9c-1.9,3.9-3,8.2-3,12.5v10.1
	c-6.7,1-7.6,9.5-7.6,9.5c-19.9,8.4-17.6-28.1-17.6-28.1c-0.6-22.3-40.1-71.9-40.1-71.9c-7.6-10.2-24.2-10.2-24.2-10.2l-3.4,1.9
	c-4.9,2.8-7.7,8.2-7.3,13.7c4.1,52.3,33.5,83.5,33.5,83.5c11.9,8.4,17.2,33.4,19,43.9c0.4,2.4,3,3.7,5.2,2.7
	c-4.5,2.1-7.6,31.6-7.6,31.6l-3.2,11.6c-0.9,3.2-3.9,5.4-7.3,5.3c-8.2-0.1-22,4.9-29.7,8.1c-3,1.2-6.3,1.7-9.5,1.1
	c-12.9-2.3-40,6.4-40,6.4c-51.5-1.3-91.6,55.3-91.6,55.3C404,578,393.8,672.1,393.8,672.1c-7.3,10.8,1.9,45.1,11.8,74
	c0.2,2.7,1.1,5.4,2.2,8.1c4,9.4,2.2,20-3.5,28.4c-1.1,1.6-1.5,3.4-0.6,5.3c0,0-18.5,44,44.6,47.2c7.1,0.4,14.1-1.4,20.2-5.2
	c11-6.9,30-16.7,34.3-6.2c0,0-8.3,22.2,14.6,17.9c0,0,105.9-2.9,113.6-10.8c0,0,24.4-11.2,7.8-23.3c-6.4-4.7-14.5-6.1-22.1-4.2
	c-16.7,4.1-50.9,10.3-45.4-10.5c0,0,24.6-5.6,34.1-30.8c2.1-5.5,4.2-26.1,7.7-21.5c8.3,10.7,16.1,22.2,20.7,32.4
	c5.3,11.7,11.4,23.1,18.9,33.5c2.7,3.7,3.6,8.4,2.6,12.9c-1.2,5-0.6,11.3,10.5,10.9c18-0.7,3.5,0,3.5,0h57.5c0,0,11.1-5.8,4.2-12.2
	c0,0-8.7-12.4-33.3-11.3c-1.6,0.1-3,0.1-4.3,0.1l1.5-3.2c0,0-24.2-29.8-38.2-59.9c-9.5-20.5-3.8-44.8,13.7-59
	c6.4-5.2,13.4-11.6,19.9-19.2c-0.2,0.1-0.5,0.1-0.8,0.2c44.2-45.8,28.7-125.4,28.7-125.4c1-34.8-13.4-35.8-13.4-35.8
	c1-1.9,7.6-10,7.6-10c10-18.6-10.9-49.6-10.9-49.6c6.2-5.2-2.9-21.9-2.9-21.9c-8.6-3.3,2.9-30.5,2.9-30.5
	C726,377.9,730.7,352.6,730.7,352.6z"/>
</svg>
