<?xml version="1.0" encoding="utf-8"?>
<!-- Generator: Adobe Illustrator 22.0.0, SVG Export Plug-In . SVG Version: 6.00 Build 0)  -->
<svg version="1.1" id="Layer_1" xmlns="http://www.w3.org/2000/svg" xmlns:xlink="http://www.w3.org/1999/xlink" x="0px" y="0px"
	 viewBox="0 0 1133.9 1133.9" style="enable-background:new 0 0 1133.9 1133.9;" xml:space="preserve">
<style type="text/css">
	.st0{fill:#010101;}
	.st1{fill-rule:evenodd;clip-rule:evenodd;}
</style>
<path class="st0" d="M880.4,336.6c-28.3-6.4-53.5,13.3-81.3,14.2c-0.2-0.4-0.6-0.6-1.1-0.6c-13.9,1.9-28,6-41.2,11.1
	c-12.5,4.8-24.5,11-35.2,19.1c-11.4,8.7-20.8,19.6-29.7,30.8c-4.5,5.6-8.6,12-13.9,16.9c-3.8,3.5-7.9,4.7-13,3.7
	c-4.1-0.8-8.1-2-12.3-2.8c-10.1-1.9-20.7-2.8-30.9-1.7c-0.1-0.4-0.3-0.7-0.6-0.8c-0.2-0.1-0.3-0.2-0.5-0.2c-0.1-0.1-0.3-0.1-0.4-0.1
	c-0.5-1.6-0.6-3.7-0.8-4.9c-0.3-1.7-0.6-3.5-0.9-5.2c-0.8-4.4-1.7-8.7-2.8-13c-1.9-7.8-4.3-15.5-7.6-22.9
	c-6.2-14.1-15.9-26-27.7-35.9c-11.8-10-25.2-18.1-38.4-26.1c-15.2-9.2-30.1-18.7-44.6-28.9c-8.2-5.8-16.2-11.9-24.4-17.7
	c-7.1-5.1-15-9.8-24-8.8c-0.6,0.1-0.8,0.7-0.6,1.2c-1.3,2-0.4,5.9,0.4,7.8c3.2,8.2,6.4,16.5,9.7,24.7c6.4,16.1,12.8,32.2,19.2,48.3
	c5.8,14.6,11.2,29.6,20,42.7c7.7,11.4,17.6,21.2,27.3,30.9c9.6,9.6,19.1,19.3,26.7,30.4c-2.6-2-5.2-3.9-7.8-5.9
	c-0.8-0.6-2.2,0.1-1.8,1.2c4.3,10.9,11.2,20.4,20.1,28c0.1,0.1,0.3,0.2,0.5,0.2c0.3-1.1,0.6-2.2,0.9-3.3
	c-1.4-8.8,3.1-17.7,11.3-21.8c1.1-0.5,0.4-2.4-0.8-2c-2.3,0.8-5,1.4-7.5,0.8c-2.7-0.6-4.3-3.1-6.1-5.1c-3-3.4-6-6.8-9.1-10.1
	c-4.5-4.8-9-9.6-13.6-14.3c6.4,3.9,12.5,8,18.6,12.4c0.8,0.6,1.9-0.6,1.4-1.4c-7.3-10.9-11.6-23-13.3-35.9
	c-1.4-10.8-3.9-20.4-9.1-30.1c-10.6-19.6-25.5-37.8-41.2-53.6c-6.9-7-14.2-13.5-21.8-19.7c21.9,12.2,38.1,33.2,53.4,52.6
	c9,11.5,17.8,23.7,22.2,37.8c2.3,7.5,2.6,15.3,3.9,23c1,6.4,3.5,11.9,6.6,17.6c2,3.6,4,7.3,4.9,11.4c0.7,3,0.3,6.5,2.4,9
	c2.8,3.4,8.3,3.2,11.5,5.8c0.1,0.3,0.1,0.6,0.2,1c0.7,0.6,0.8,1.2,0.3,2c-0.4,0.2-0.8,0.3-1.2,0.6c-1.6,1.3-3.1,2.2-4.5,3.6
	c-0.1,0-0.1,0.1-0.2,0.1c-4.1,3.6-6.4,9.1-6.7,14.5c-0.2,2.6-0.2,4.2-1.7,6.6c-0.5,0.8-1,1.4-1.4,2.3c-1.2,2.5-1.3,5.4-1.6,8.2
	c-0.6,6.9-4.1,12-6.7,18.3c-2.6,6.2-1,11.6-0.6,17.9c-0.1,0.7-0.1,1.5-0.2,2.2l-0.6-1.5c-0.1-0.2-0.2-0.3-0.3-0.3
	c-0.3-0.6-1.3-0.7-1.6,0c-5.1,14.2-0.6,29.5-4.6,44c-0.3,1,1.2,1.4,1.7,0.6c2.7-4.6,5.9-8.8,9.6-12.6c-7.9,15.1-22.3,26.1-27.5,42.7
	c-4.8,15.3-1.9,31.7,4.6,46.1c-5-10.1-7.6-21.7-8.2-32.7c-0.4-7.7,0.5-15.6,3.7-22.6c2.6-5.7,6.9-10.1,10.5-15.2
	c3.2-4.5,5.1-9.3,4.7-14.9c-0.3-3.8-1.1-7.6-1.3-11.4c-0.2-4.4,0.1-8.8,0.6-13.1c1.9-14.9,6.2-29.6,9.6-44.2c0.1,0,0.2-0.1,0.3-0.1
	c1.4-0.7,0.2-2.8-1.1-2.1c-5.9,3-12.4,2.8-18.8,3c-5.6,0.2-11.2,0.5-16.8,1.1c-10.7,1.1-21.4,2.7-31.9,5.1
	c-21.8,4.9-43,12.5-62.9,22.6c-38.3,19.5-71.4,48.4-96,83.7c-13.4,19.2-25.2,40.7-32.1,63.1c-0.1,0.1-0.1,0.1-0.2,0.2
	c-2.4,5.4-3.8,11.1-4.1,16.8c-0.4-6.5,0.9-13,3.5-19.2c1.4-3.2,1.9-5.6,1.3-9.1c-0.9-5.6-1.3-11.3-1.9-16.9
	c-0.9-7.4-2.6-15-7.5-20.8c-2.9-3.4-9.6-8.5-10.7-1.2c-1.4,9.3-8.5,16.4-11.7,25.1c-3.1,8.7-4.3,18-5.9,27.1
	c-1.8,9.9-3.7,19.8-4.9,29.8c-1.1,9.4,0.7,17.7,5.1,26c4.7,8.6,10.5,17.2,17.1,24.5c6.3,7,14.3,12.2,23.8,12.9
	c0.7,0,1.2-0.8,0.6-1.3c-5.3-4-7.7-10.2-8.9-16.6c-1-5.4-2.4-12.8-0.6-18.5c0.6,8.8,0.6,18.6,4.7,26.4c2.2,4.1,4.9,7.9,7.4,11.8
	c2.9,4.5,5.7,9.1,8.8,13.4c8.6,11.8,21.1,18.5,34.9,21.3c-5.5,0.3-11-0.2-15.8-2.9c-0.1-0.1-0.3-0.2-0.4-0.3
	c-0.1-0.1-0.2-0.3-0.2-0.4c-0.3-0.6-0.9-0.7-1.4-0.6c0,0,0,0-0.1,0c-0.9-0.7-2.1,0.7-1.2,1.3c0.2,0.1,0.4,0.2,0.5,0.4
	c3.5,6.5,4.4,14.6,9.8,20c4.9,4.8,11.7,6.3,18.2,7.4c3.6,0.6,7.3,1.1,10.8,2.1c4.6,1.2,8.5,3.4,12.4,6c6.4,4.3,13.3,8.6,21.3,6.8
	c0.8-0.2,1.2-0.9,0.9-1.7c-1.3-3.1-1-6.5,0.9-9c-0.7,5.1,2.3,10.4,6.6,13.3c9.1,6,22.6,3.7,32.8,3.6c3.2,0,8.9,1,11.2-2
	c2.1-2.7,0.3-8-0.5-10.9c-1.7-6.1-4.8-11.7-8.9-16.5c5.2,4.4,7.9,10.8,10.8,17.7c3.3,7.7,7.7,14.4,16.6,15.8
	c3.9,0.6,9.5,1.1,13.3-0.4c3.9-1.5,4.5-7,4.8-10.6c0,0,0,0,0,0c0,2.6-0.3,5.2-0.9,7.8c-0.2,1,1,1.8,1.9,1.2
	c8.3-5.7,7.9-17.1,4.8-25.7c-4.2-11.6-12.9-21.1-22.3-28.8c-4.8-3.9-10.1-7.9-16.1-9.8c-5.8-1.8-11.9-1.6-17.8-0.6
	c-10.1,1.8-19.8,5.8-30,6.9c11.6-3.8,23.1-7.6,34.7-11.3c0.6-0.2,0.9-0.8,0.6-1.3c-3.5-6.8-7.6-13.2-12.2-19.2
	c5.5,5.3,10.8,10.7,15.9,16.3c1.8,2,3.3,4,5.5,5.5c2.8,1.9,6.3,3.1,9.4,4.5c7.1,3,14.2,6,21.2,9.1c13,5.7,24.7,12.6,36.3,20.6
	c10.4,7.2,20.9,14.2,33.2,17.4c0.7,0.2,1.4-0.6,1.2-1.3c-10.3-24.4-28.6-45.2-35.5-71c13.1,25.5,27,50.6,42.1,75
	c3.9,6.3,7.9,12.7,11.9,18.9c3.3,5.2,6.4,10.6,10.2,15.5c3.8,4.8,8.2,6.8,14.3,6.9c7.8,0.1,15.7-0.4,23.5-0.6c0.6,0,1.3-0.6,1.2-1.3
	c-0.3-2.2-0.8-4.3-1.5-6.3c1,2.2,2.1,4.4,4,5.6c3.2,2,8.5,1.5,12.1,1.8c6,0.5,12.1,0.9,18.1,1.5c0.8,0.1,1.2-0.6,1.2-1.3
	c-0.8-8.1-1.7-16.3-2.5-24.4c2.7,7.8,4.2,16,4.7,24.3c0,0.6,0.6,1.1,1.2,1.1c5.5-0.1,11-0.2,16.5-0.3c3-0.1,6.1,0.1,7.2-3.3
	c1-3.4-0.2-8.1-0.9-11.4c-0.9-4.2-2.2-8.2-4-12.1c-3.9-8.5-9.8-15.8-17.1-21.6c-3.6-2.8-5-4.8-5.6-9.7c-0.3-2.7-0.5-5.4-0.8-8.1
	c-0.2-1.6-0.3-3.2-0.5-4.8c0.8,3.2,1.7,6.4,2.5,9.6c0.3,1.1,1.7,1.1,2,0c1.7-6.4,3.5-12.7,5.3-19.1c-0.4,8.6-2.1,17.1-5.4,25.1
	c-0.2,0.5-0.1,1.1,0.4,1.4c11.7,5.7,15,26.6,30.6,24.7c0.4,0,0.9-0.4,0.9-0.8c0.5-5.9-0.7-11.6-3.4-16.6c1.5,1.5,2.9,3.3,3.9,5.3
	c1.5,2.8,2.4,6,4,8.7c2.4,3.9,6.6,6,11.1,4.4c4.9-1.7,8.3-6.6,8.3-11.8c0-2.9-0.8-5.5-2-8c1.5,1.9,2.8,4,4,6.3
	c0.6,1.1,2.1,0.5,2-0.6c-0.9-10.6-10.2-17.2-15.9-25.3c-3.3-4.6-4.2-10.2-7.2-14.9c-2.4-3.8-0.3-8.6,0.6-12.7
	c0.9-4,1.8-7.9,2.7-11.9c0.2-0.8-0.8-1.8-1.5-1c-5,5.1-10.3,9.8-15.9,14.1c9.6-10.3,20.3-19.6,31.8-27.7c0.2,0.1,0.4,0.1,0.7-0.1
	C723,742.8,733,734.3,739,724c2.8-4.9,4.8-10.1,5.9-15.6c0.4-1.8,0.5-3.9,1.3-5.6c0.6-1.2,1.6-2.2,2.4-3.2c1.7-2.2,3.3-4.5,4.6-6.9
	c12.2-21.2,10.2-46.8,5.2-69.8c-1.6-7.2-3.4-14.3-5.2-21.4c-1.7-6.3-3.7-12.3-7.5-17.7c-0.5-0.7-1.6,0-1.5,0.7
	c2.5,13.6-1,27.9-9.6,38.7c-6.3,8-15,13.5-24.5,16.4c10.1-4.9,18.5-13.1,23.9-22.8c4.2-7.7,6-16.1,6.8-24.8c0.3-3.3,0.5-6.5,0.8-9.8
	c1.5-7.2,2.1-14.5-1-21.5c-0.1-0.3-0.3-0.4-0.5-0.4c-0.9-2.9-2-5.8-3.2-8.7c-1-2.3-1.9-4.5-2.7-6.7c-0.9-3.2-1.6-6.4-2.2-9.6
	c-1.5-8.4,0.3-17.8-2.8-25.8c-2.3-5.9-7.3-10.7-13.3-12.7c1.8,0.1,3.6,0.2,5.4,0.1c2.4,0.1,4.9,0.1,7.3,0c2.1-0.1,4.2-0.6,4.4-3
	c0-0.2,0-0.3,0-0.5c1.4-2.3-0.5-5-1.7-7c-0.7-1.1-1.3-2.2-1.8-3.4c0.5-3.2,2.3-6.4,3.5-9.3c0.1-0.2,0.1-0.3,0-0.5
	c0.1-0.2,0.3-0.4,0.4-0.6c0,0,0.1-0.1,0.1-0.1c-1.1,3.2-1.7,7.4-1,10.6c-0.6,1.1,0.8,2.5,1.9,1.5c9-9.3,19.2-15.7,31.1-20.5
	c10.7-4.3,20.4-8.8,28.9-16.9c18.4-17.6,35-37.6,50-58.1c9-12.3,17.7-25,25-38.4c0.2-0.1,0.4-0.1,0.6-0.2c1.4-0.5,0.7-2.7-0.7-2.2
	c-24.9,8.2-50.1,17.4-73.3,29.7c-10.3,5.4-19.7,12-27.4,20.8c-7.2,8.3-12.9,17.8-18.4,27.3c-4.6,7.9-9.1,15.8-14.3,23.3
	c4.1-8.6,8.3-17.1,12.9-25.4c6.5-11.8,13.8-24.4,23.8-33.6c9.7-8.9,23.1-14.3,34.9-19.9c12.3-5.9,24.9-11.2,37.7-16.1
	c7.3-2.8,14.7-5.4,22.1-7.9c5-1.7,10.9-3,13.7-7.9C881.5,337.8,881.3,336.7,880.4,336.6z"/>
</svg>
