<?xml version="1.0" encoding="utf-8"?>
<!-- Generator: Adobe Illustrator 22.0.0, SVG Export Plug-In . SVG Version: 6.00 Build 0)  -->
<svg version="1.1" id="Layer_1" xmlns="http://www.w3.org/2000/svg" xmlns:xlink="http://www.w3.org/1999/xlink" x="0px" y="0px"
	 viewBox="0 0 1133.9 1133.9" style="enable-background:new 0 0 1133.9 1133.9;" xml:space="preserve">
<style type="text/css">
	.st0{fill:#010101;}
	.st1{fill-rule:evenodd;clip-rule:evenodd;}
</style>
<g>
	<path d="M573.9,831c-2.2-1.4-3.9-3.3-4.9-6.2c-3.6-10.8-1.3-18.6,4.9-25.2c0.6-0.7,1.3-1.3,2-1.9l-2,0.7c-2.9,1.1-5.8,2.1-8.7,3.2
		c-18,6.6-33.7,14.6-46.1,29c0.8,1.7,1.6,3.9,2.3,6.6c15,3.5,31.7,4,47,3.9c1.8,0,3.6,0,5.5,0c12.7,0.3,26.9,2.5,35,10.2
		c6.9,6.6,6.8,12.1,2.3,17.4l13,0.3c2.6-0.4,4.1-2.2,4.5-4.1c-4.6-7.9-10-19.1-12.2-29.4C602.3,831.6,583.3,836.7,573.9,831z"/>
	<path d="M380.1,795.2L380.1,795.2l-0.2-0.5l-0.1-0.3l-0.3-0.8l-0.2-0.4l-0.2-0.4l-0.1-0.3l-0.6-1.2l-0.3-0.8l-0.1-0.1l-0.1-0.1
		l-0.4-0.9c-1.1-2.5-2.1-4.9-3.1-7.4l0-0.1l-0.6-1.4l0-0.1c-0.4-1-0.8-2-1.2-3l-0.1-0.1l-0.3-0.8c-0.3-0.8-0.6-1.6-0.9-2.3l0,0
		c-0.3-0.9-0.7-1.9-1-2.8l-0.2-0.6l-0.1-0.2l-0.1-0.2l-0.3-0.8l0-0.1l-0.5-1.4l0-0.1c-0.2-0.8-0.5-1.5-0.7-2.3l-0.2-0.8v0
		c-0.2-0.8-0.5-1.5-0.7-2.3l0,0l-0.1-0.5l-0.1-0.3l0-0.1c-0.3-1-0.5-1.9-0.8-2.9l-0.1-0.5c-0.2-0.8-0.4-1.7-0.6-2.5l-0.1-0.4
		c-0.2-0.8-0.3-1.6-0.5-2.3l-0.2-0.8l0-0.1l-0.1-0.4l-0.2-0.8l0-0.2l-0.1-0.6l-0.2-0.8v-0.1l-0.1-0.2c-0.7-3.6-1.1-7.2-1.4-10.6
		c-10-5.6-20.2-7.1-29.7-4.4c0.2,6.2-10,29.2,1.8,48.9c8.6,14.5,27.3,30.1,46.2,37.8c5.1,2.1,10.2,3.6,15.2,4.3
		c-5.1-8-10.4-17.3-15.2-27.2C380.9,796.9,380.5,796.1,380.1,795.2z"/>
	<path d="M657.8,300.7c7.3,11.2,13,22.1,18.6,33.8c5.8,11.9,10.7,25.5,19.3,37.9c9,13,20.2,12,31.9,8.5c-4.8-58-18.7-103.9-55-114.8
		c-7.1-2.1-11.9-1.3-14.8,1.7c-4.6,4.8-4.9,15.1-3.3,28C655.6,297.4,656.7,299.1,657.8,300.7z"/>
	<path d="M803,466.6c-0.7-3.4,0.6-7.2-1.8-10.9c-6.3-9.4-9.7-20-17.2-30.4c-0.5-13.5-9.2-19.1-22.8-27.1c-6.8-4-11.7-7.7-19.6-9.8
		c-10.6-2.7-18.3,1.6-28.6,0.9c-7.3-0.5-14.2-3.7-20.2-12.4c-9.2-13.3-13.7-27.8-19.5-41.1c-4.6-10.3-9.5-20.2-15.4-30
		c-1.5-2.5-3.1-5-4.7-7.5c-11.7-12.9-22.2-21.3-31.9-25.8c-11.6-5.4-28.6-8-33-3.6c-4.1,4-2.7,14.9-0.5,28.9
		c3.3,20.5,13.7,45.7,31.2,65.9c8,9.2,18.6,16.7,28.6,23.6c5.2,3.6,8.2,8.4,10.3,13.6c2,5,3.1,10.2,4.5,14.9
		c1.8,6.6,2.3,12.7,2.5,18.1c0.3,7-1.5,14.5-2.9,19.8c-1.2,4.5-2.1,10.2-4.1,14.4c-0.5,1.2-1.1,2.2-1.9,3.1c-3.4,4.1-12,6-17.1,7.4
		c-14.6,4-34.8,11.7-63.6,26.5l-1.3,0.7c-23.5,12.1-48.5,24.6-68.2,38.5c-31.7,20.5-58.1,44.1-82,69.4c-15.9,17-30.5,32.5-40.7,52.5
		c-0.6,1.2-1.2,2.4-1.8,3.6c-6.2,12.9-10.8,27.7-11.8,46.4c-8.6,21-0.6,47.9,11.8,72.2c9.1,17.8,20.7,34.2,29.9,45.8
		c3.5,3.4,7.1,6.9,10.5,10.5c8.1,8.5,12.9,18.1,24.1,20.2c18.9,3.5,35.5,1.7,58.6,3.2c7.6-5.3,14.8-7.9,20.7-1.4l48.9,1.2l29.9,0.7
		c4.9-5.1,6-10.2-0.3-16.1c-7.4-7-18.4-8.5-29.6-8.8c-1.5,0-3.1,0-4.6,0c-10.3,0.1-56.5,0.3-63.6-6c6.5-12.2,5.3-26.1,12.7-39.8
		c11.2-20.8,25.8-41.5,15.5-75.8c-13.4-44.6-55.4-79.1-103.5-66.3l-0.2-1.1c49.5-13.2,96.8,19.4,110.6,65.3
		c15.3,50.7-18.2,67.5-21.5,101.2c12.9-13.6,27.1-16.2,44.8-22.7c3.6-1.4,6.9-2.8,9.9-4.2c9.5-4.4,17-9,26.6-13.9
		c-3.6-10.8-7.6-14.9-11.7-23.4c-3.8-7.8-5.3-21.3-5.6-38.3c-0.2-11.4,0.8-23,1.6-31.1l0.5-0.2c-1.5,15.4-1.3,50.2,6.3,64.6
		c7,13.2,15,23.7,17.4,38.3c5.6,24.3,14.6,70.3,29.8,78.2c6.4,0,12.7,0,18.8,0c13.2,0.1,25.9,0.4,39.7,0.3c2.6-9-5.6-15.5-21.1-20.3
		l-0.1-0.2c-7.6-1.6-13.6-4.9-18.5-16.4c-1.1-2.6-2.2-5.6-3.2-9.2c-3.7-12.8-10-35.7-15-55.5c-6.7-21.2-9.7-40.5-9.5-63.2
		c0.5-46.9,17.2-84.1,14.9-122.9c-0.2-4-1.1-7.4-2.2-11l-0.4-1.1c4.5-1.5,5,8.6,5.2,12c2.8,47.8-16.4,91-10.2,155.1
		c6.2-3.7,13.2-7.6,20.4-12c9.8-6,19.8-12.9,28.5-21.8c42.8-43.8,80.3-77.2,67.8-119.9c-8-27.5-8.4-49.7,6.2-67.8
		c-24.9-4.1-53.2-12.1-34.7-41.9l0.3,0.5c-17.7,28.6,20,34.8,44.7,37.7c9-0.2,19.4-2.7,20.9-9c5-5.3,12.3-6.6,13-19.7v-4.1
		C804.3,474.7,803.8,471,803,466.6z M681.7,401c-4.8-2.7-4.5-4-9.6-1.9c7.5-9.6,16.2,7,11.9-11.1c-1.6-7-4.5-11.1-5.7-13.4
		c-7.2-13.1-13.2-29.1-20.5-44.7c-11-23.6-24.7-46.3-49.7-56.4c-3-1.2-10-3.2-13.3-2.1c-2,0.6-3.8,3.2-3.9,4.9l-0.3,0.1
		c0.2-2.6,1.7-4.8,4.3-5.8c9.8-3.7,32,11.2,39.7,19c9.9,10,17.2,20.5,23.3,31.3c9.3,16.3,16,33.4,25.8,51
		C688,379.8,697.8,410,681.7,401z"/>
	<path d="M657.8,730c-6.6,4.1-13.1,8-19,11.6c0.5,7.7,2.1,15.2,3.5,23.2c5,19,10.8,42.5,14.7,56.1c0.2,0.9,0.5,1.7,0.7,2.5
		c4.6,14.3,9.9,18.9,17.2,21c-3.3-10.4-4.8-20.8-6.1-31.2c10.6-14.4,0.4-63.8,7.9-95.2C670.5,722.1,664.1,726.1,657.8,730z"/>
</g>
</svg>
