<?xml version="1.0" encoding="utf-8"?>
<!-- Generator: Adobe Illustrator 22.0.0, SVG Export Plug-In . SVG Version: 6.00 Build 0)  -->
<svg version="1.1" id="Layer_1" xmlns="http://www.w3.org/2000/svg" xmlns:xlink="http://www.w3.org/1999/xlink" x="0px" y="0px"
	 viewBox="0 0 1133.9 1133.9" style="enable-background:new 0 0 1133.9 1133.9;" xml:space="preserve">
<style type="text/css">
	.st0{fill:#010101;}
	.st1{fill-rule:evenodd;clip-rule:evenodd;}
</style>
<g>
	<path class="st0" d="M671.3,786.8c-0.6-5.1-0.4-10.4,0.4-15.5c1-6.5,3.2-12.2,5.8-18c0.4-0.1,0.7-0.2,1.1-0.4
		c1.1-0.4,0.9-1.8,0.1-2.2c0.2-0.5,0.4-0.9,0.7-1.4c0.3-0.6-0.6-1.1-1-0.6c-0.6,0.8-1.1,1.5-1.6,2.4c-5.9,1.9-11.9,3.9-17.8,6
		c-2.7,0.9-4.8,1.7-5.7,4.6c-1.3,4.3-1.1,9.6-1.5,14.1c-0.4,5.4-0.7,10.8-0.7,16.2c0,9,0.3,19.6,3.8,28.1c2.7,6.4,14.9,1.7,19.5-0.1
		c0.4-0.1,0.6-0.4,0.6-0.9c-0.1-4.2-0.7-8.1-2.1-11.9c2.3,3,3.6,6.5,3.8,10.6c0,0.3,0.3,0.6,0.6,0.8c4.2,1.6,7.4-1.9,7.4-6.1
		c0-5.6-4.4-11.4-7.9-15.4C673.8,793.8,671.9,791.5,671.3,786.8z"/>
	<path class="st0" d="M831.8,313.2c-7.4,10.8-19.2,17.2-28.9,25.6c-9.2,7.9-16.6,17.6-22.6,28.1c-13.2,23.2-18.8,49.6-23.7,75.6
		c-1.4-14.9,3.6-30.4,8.1-44.4c4.9-15,11.3-29.7,20.4-42.6c8.5-12,19.2-20.8,31.2-29.3c8.7-6.2,24.9-18,20.4-30.7
		c-0.2-0.5-0.9-1-1.5-0.7c-15.7,8.1-29.8,19-43.3,30.3c-13.9,11.7-27.6,23.7-41.3,35.7c-12.2,10.8-25.6,21.3-34.2,35.3
		c-8.7,14-12.7,30.3-16.5,46.1c-0.1,0.4,0,0.8,0.2,1c-0.3,0.6-0.1,1.4,0.7,1.5c7.2,1,15.3-1.3,22.2,1.2c3.5,1.3,6.3,4.1,9.2,6.5
		c-8.6-3.7-18-5.8-27.5-6.3c-4.2-0.2-8.5-0.2-12.7,0.1c0.5-0.2,0.7-0.7,0.7-1.2c0.6-0.1,1.1-0.5,1-1.3c0-0.3,0-0.6-0.1-0.8
		c0.5-1.3,0.3-2.6-0.3-3.9c-1.7-26.5-2.8-53.3-9.3-79.1c-3.2-12.7-7.2-25.7-13.4-37.3c-6.4-12-16.3-21-26-30.3
		c-4.9-4.7-9.8-9.4-14.7-14.2c-4.2-4-8.4-9.1-13.9-11.4c-11.7-4.9-13,9.3-14.9,17.3c-6.1,26.3-14.6,52.6-11.5,79.8
		c1.6,14.3,5.3,28.2,9.6,41.9c5,16.1,10,32.5,17.7,47.5c0.4,0.8,1.5,0.7,1.7-0.2c3.2-13,2.3-26.6-2.8-39c0,0,0,0,0.1,0
		c0.1,0.1,0.2,0.3,0.3,0.4c0,0,0,0,0.1,0c2.9,5.8,5.8,11.6,6.9,18.2c1.5,9-1.8,16.4-4,24.8c-1.6,6-1.2,11.3,0.7,17.1
		c0.9,2.8,2,5.5,2.7,8.3c0.7,2.9,0.7,5.4,0.5,8.2c-4.1,0.3-6.6,4-7.7,8.2c-2.3,9.1-3.2,18.8-4.7,28.1c-2.8,17.1-7.6,35.5-4.5,52.9
		c2,11.4,8.1,22.8,18.8,28.3c7.2,3.7,15.7,4.1,22.8,8.1c6.4,3.6,10.3,9.7,13.5,16c-4.3-3.6-7.8-8.1-12.3-11.4
		c-6.4-4.7-14.1-4.6-21.4-6.8c-13.5-4.2-21.6-17.2-24.8-30.3c-4-15.9-0.7-32.6,2.5-48.3c1.6-7.9,3.9-16.2,4.1-24.3
		c0.2-7.5-6.9-10-12.6-13c-14.4-7.7-29.4-14.8-45.5-18.3c-17.2-3.7-35-2.7-52.3,0.4c-17.3,3.1-34.5,7.9-51,13.6
		c-15.6,5.4-30.3,12.5-43.3,22.8c-12.9,10.1-23.9,22.4-33.6,35.6c-9.6,13.1-17,28.1-28.4,39.9c-0.2,0.1-0.4,0.2-0.5,0.5
		c0,0,0,0.1,0,0.1c-0.5,0.5-1.1,1.1-1.6,1.6c-0.4,0.4-0.3,0.9,0,1.3c-6.5,11.7-11.2,24.2-13.8,37.4c-2.8,14-4.5,29.6,1.8,42.9
		c1.9,3.9,4.1,7.7,5.3,11.9c1.1,3.6,1.4,7.4,2,11.1c1.1,7.6,3.6,14.3,6.9,21.2c6.5,13.4,13.1,26.7,19.6,40
		c-13-13.2-21.4-30.1-26.7-47.8c-1.4-4.7-2.6-9.5-3.7-14.3c-0.8-3.5-0.9-8-3.4-10.9c-3-3.4-8.7-4.6-12.8-5.9c-5.9-1.8-11.9-3-18-3.7
		c-0.8-0.1-1.4,0.5-1.4,1.3c0.1,26.3,8,52.3,23,74c8.1,11.7,18.3,21.8,28.8,31.4c8.3,7.5,18.5,15.3,30.2,11.7c0.6-0.2,0.9-1,0.5-1.6
		c-5.4-7.1-7.8-15.8-6.8-24.5c0.5,0.2,1.3,0.1,1.6-0.6c3.3-7.2,8.2-13.2,14.2-18c-6.3,6.9-11.1,15.4-11.7,24.8
		c-1,14.8,12.4,25.5,11.6,40c-0.1,1.2,1.7,1.8,2.1,0.5c7-19.2,21.3-35,39.3-44.4c-13.5,8.7-26.1,19.1-32.1,34.5
		c-3.3,8.6-5,19.5-0.8,28.1c4.1,8.6,16.6,7.8,24.7,9c25.1,3.8,50.3,7.6,75.4,11.2c12.5,1.8,25,3.7,37.6,5.5
		c5.2,0.7,13.9,0.6,11.7-7.2c-2.4-8.2-10.7-15.9-17.4-20.6c-3.2-2.2-6.6-4.1-10.1-5.6c4.6,1,9,2.5,12.9,5.1
		c8.7,5.6,13.8,15,18.5,23.9c0.2,0.4,0.9,0.8,1.4,0.5c4-1.7,7.9-3.4,11.9-5.2c2.2-1,5.8-2,7.1-4.3c2.2-4-2.9-10.6-4.7-13.9
		c-4.4-7.7-10.5-14.8-18.6-17.9c5.6,0.2,11,1.5,14.7,6.1c2.6,3.2,4.3,7.4,6.2,11.1c2.3,4.4,4.6,8.8,6.9,13.2c0.3,0.5,1,0.7,1.5,0.5
		c4.4-1.7,8.9-3.3,13.3-5c0.9-0.3,1.2-1.2,0.7-2c-9.7-17.3-21-34.6-42.1-38c-24.7-3.9-50.3-4.7-75.2-5c-0.1-0.3-0.4-0.6-0.9-0.7
		c-8.4-1-16.4,3.9-23.7,7.3c-4.1,1.9-8.3,3.8-12.4,5.7c11.2-7.5,22.4-15.1,33.4-23c4.7-3.4,8.6-7.2,10.7-12.7
		c2.5-6.6,2.1-13.9,1.8-20.9c-0.4-9.3-0.8-18.6-1.4-27.9c-0.5-7.6-1.8-15-5.5-21.7c-3-5.5-7.1-10.6-10.5-16.1c1.4,1.4,2.8,2.7,4.2,4
		c5.3,4.8,9,9.8,10.9,16.8c1.4,5.3,2,10.8,2.7,16.2c1.6,12.4,3,24.9,2,37.4c-0.8,10.1-3.1,27.2-15.7,29c-1.3,0.2-1.1,2.3,0.2,2.3
		c27.9-0.3,55.2-6.3,80.6-17.8c-12.9,10.9-31.1,13.3-47.6,15.2c-1.6,0.2-1.3,2.5,0.1,2.7c26.2,3.8,52.8,4.7,79.3,4.9
		c1.1,0,1.6-1.4,1.1-2.2c-4.8-8.1-10.3-15.7-16.4-22.9c-6.5-7.6-15-14.2-19.3-23.5c-4.3-9.5-4.4-20.8-3.9-31
		c0.3-5.7,1.1-11.2,2.1-16.8c-0.8,11.9,0.2,24.4,4.3,35.4c4.6,12.7,13,23.5,21.1,34.1c8.8,11.5,16.8,23.3,22.6,36.6
		c3,6.8,5.4,13.9,7.3,21.1c1.7,6.5,2.3,13.3,4.2,19.7c1.5,5.3,4.6,8.3,9.7,10.3c7.4,3,15.2,5.1,23.1,6.6c0.7,0.1,1.1-0.3,1.2-0.8
		c1.6-1.5,2.1-5.8,2.1-7.3c-0.3-5.1-2.2-9.8-5.4-13.6c6.9,4.4,7.6,14.1,8,21.8c0,0.4,0.4,0.7,0.7,0.7c6.4,0.7,12.8,1.4,19.2,2.1
		c0.5,0.1,1.1-0.2,1.2-0.8c1-6.8-0.3-13.6-3.6-19.5c2.2,2.3,3.8,5.1,4.5,8.3c0.5,2.3,0.4,4.7,1.2,7c1,2.8,3.5,5.1,6.6,3.6
		c3.9-2,3.7-8,3.5-11.6c-0.2-5.3-0.8-10.9-3.9-15.3c-3.2-4.6-8.5-6.6-12.6-10.2c-6.8-5.9-9.8-15-10.8-23.8
		c-0.8-7.6-0.4-15.3-0.2-22.9c0.2-8.1,0.4-16.3,0.6-24.4c6.2-2.1,12.4-5.1,18.2-7.6c7.6-3.2,15-7.2,20.5-13.5
		c0.2-0.2,0.3-0.5,0.3-0.8c3.6-0.5,7.4-1.8,10.8-2.7c6.6-1.8,13-4,19-7.2c10.4-5.5,19.5-13.7,26.1-23.5
		c7.6-11.3,11.6-24.4,14.1-37.6c2.5-13.3,5.9-28.6,2.4-41.9c-0.2-0.8-1.4-1.4-2-0.5c-3.5,5-7.7,9.4-12.5,13.1
		c7.4-7.2,14.6-15.5,16.7-25.1c0,0,0,0,0,0c2.2,0.1,3.2-3.6,3.8-4.9c3.9-8.5,6.8-17.6,8.1-26.9c2.1-15.5-0.4-33.9-10.9-46.2
		c0,0,0.1,0,0.1-0.1c1.7-1.5,1.3-5.7,1.4-7.7c0.1-5.1-0.5-10.1-1.6-15c-0.2-0.8-1.3-0.8-1.7-0.2c-0.1,0.1-0.3,0.3-0.4,0.4
		c0.6-4.8,0.5-9.6-0.6-14.4c-1.2-5.2-4.5-9.9-6.3-14.9c0.5,0.7,1.2,1.2,1.9,1.7c0,0.1,0,0.3,0,0.4c0,0.6,0.6,1.1,1.1,1.2
		c4.6,1,6.3-6.6,6.6-9.7c0.4-3.7,0-7.6,1-11.3c0.9-3.5,3-6.5,5.4-9.2c5.8-6.7,12.9-12.2,18.6-19c5.1-6.1,9.7-12.5,13.7-19.4
		c8.4-14.5,13.3-30.2,17.3-46.5c4.4-18.5,8.8-36.9,13.3-55.4C834.3,312.7,832.5,312.1,831.8,313.2z"/>
</g>
</svg>
