<?xml version="1.0" encoding="utf-8"?>
<!-- Generator: Adobe Illustrator 22.0.0, SVG Export Plug-In . SVG Version: 6.00 Build 0)  -->
<svg version="1.1" id="Layer_1" xmlns="http://www.w3.org/2000/svg" xmlns:xlink="http://www.w3.org/1999/xlink" x="0px" y="0px"
	 viewBox="0 0 1133.9 1133.9" style="enable-background:new 0 0 1133.9 1133.9;" xml:space="preserve">
<style type="text/css">
	.st0{fill:#010101;}
	.st1{fill-rule:evenodd;clip-rule:evenodd;}
</style>
<path class="st0" d="M783.5,488c-6.8-8.4-15-15.3-22.5-23c-3.8-3.9-7.5-8-10.6-12.5c-3.5-5-6.3-10.4-10-15.3
	c-6.2-8.2-14.8-14.2-23.6-19.4c-23.2-13.7-49.1-22.1-74.6-30.3c-0.4-0.1-0.8,0-1,0.3c-0.6-0.2-1.3,0.1-1.3,0.9c0.1,3,0.1,6,0.2,9
	c-1.2-8.3-2.4-16.6-3.7-24.9c-1.9-13.2-3.6-26.5-6.9-39.4c-5.1-20.4-14-40.7-29.9-55c-6.9-6.3-17-13.9-27-12.1
	c-9.4,1.6-11.6,11.1-12.8,19.2c-3.6,23.2,0.7,47.1,9.5,68.6c9.5,23.4,24.5,43.9,40.9,63c-6-3.7-10.9-8.7-14.7-14.9
	c0-0.2,0.1-0.5,0.1-0.7c0.3-1.4-2-1.9-2.4-0.6c-4.2,12.9-4.1,27.1-3.2,40.5c0.9,12.5,1.8,25.7,4.9,37.9c2.6,10.1,8.3,17.5,16.9,23.4
	c4.2,2.9,8.6,5.7,13,8.4c-7.8-3.2-15.4-6.9-23.7-8.5c-16.1-3.1-33.4-3-49.7-3.3c-33.2-0.6-65.3,3.8-94.8,19.8
	c-14.3,7.8-28.2,17-40.9,27.3c-0.4-0.1-0.9-0.1-1.3,0.3c-15.7,12.6-29,27.9-38.1,45.9c-9.7,19.2-16.1,40.3-20.7,61.2
	c-9,41.7-9.4,85.4-0.4,127.1c2.1,10,4,21.3,10,29.8c5.4,7.7,14.7,11.8,19.8,19.8c-4.4-0.4-7.6-5-10.4-7.9c-2.5-2.5-5.2-4.7-8.4-6.2
	c-6-2.8-12.9-3.5-19.3-1.7c-0.6,0.2-1.2,0.7-1.2,1.4c0.5,14.3,11.6,24.5,23.1,31.4c13.3,8,28.1,13.2,43.2,16.4
	c35.1,7.4,71.4,3.6,106.6-0.9c0.8-0.1,1.3-0.7,1.3-1.5c0.3-13.8,4.1-26.9,10.5-38.8c-3,7.2-5.1,14.8-6.2,22.6
	c-0.7,4.5-1.7,10.1,1.9,13.8c3.7,3.8,10.2,3.8,15.1,4.3c27.9,3.1,56.4,1.3,83.7-5.4c1.1-0.3,1.6-1.3,1.2-2.3
	c-3.8-11-11.6-19.9-21.5-25.4c10.4,1.2,19.7,7.9,23.5,18c1.7,4.4,2.7,9.6,7,12.3c2.7,1.7,5.7,2,8.4,0.6c0.4,0.6,1.6,0.6,1.9-0.3
	c0.2-0.6,0.3-1.3,0.5-1.9c0.7,0,1.4-0.4,1.6-1.2c6.5-28.4-15.3-54.6-43.5-56c9.3-31.3,16.4-64.3,11.7-97.1
	c-3.6-25-14.7-49.9-33.8-67c-7-6.3-14.9-10.8-23.2-14.4c1,0.3,1.9,0.6,2.8,1c8,3.1,15.8,6.8,23,11.5c13.8,8.9,25.5,21.3,31.9,36.5
	c6.8,16,4.7,32.6,4,49.4c-0.5,12.7-0.3,28.9,8.6,39c0.3,0.3,0.6,0.4,0.9,0.4c4.2,7.8,8.2,15.7,11.5,23.9c5,12.2,7.5,24.4,9.5,37.4
	c1.7,10.8,4.6,22.5,13.6,29.6c8.4,6.6,19.7,6.3,29.8,5.9c6.7-0.3,13.4-0.7,20.1-1.5c5.2-0.6,10.7-1,15.7-2.8
	c7.2-2.7,12.2-9.7,7.7-17c-4.5-7.4-14.5-11.1-21.3-15.9c-5-3.5-9.9-7.2-14.7-11c-6.1-4.8-9.3-9.5-11-17.1c-4.2-19-7.8-38.4-8.7-57.9
	c2.1-9.3,5-18.4,9.5-27.3c4.3-8.5,9.7-16.5,16-23.7c5.8-6.7,12.3-12.9,17.5-20.2c20.4-28.5,16.8-66.2,9.1-98.4
	c-1.2-4.9-1.7-11-4.3-15.4c-2.2-3.7-6.8-4.5-10.6-5.7c-6.2-1.8-12.5-3.6-18.8-5.4c10.5,2,21.1,3.9,31.5,6.5c0.5,0.1,0.8,0,1.1-0.3
	c4.7,0.1,9.4-0.2,14.2-1.2c18.8-3.8,30.9-16.3,38.6-33.3C789.5,502,789.4,495.4,783.5,488z"/>
</svg>
