<?xml version="1.0" encoding="utf-8"?>
<!-- Generator: Adobe Illustrator 22.0.0, SVG Export Plug-In . SVG Version: 6.00 Build 0)  -->
<svg version="1.1" id="Layer_1" xmlns="http://www.w3.org/2000/svg" xmlns:xlink="http://www.w3.org/1999/xlink" x="0px" y="0px"
	 viewBox="0 0 1133.9 1133.9" style="enable-background:new 0 0 1133.9 1133.9;" xml:space="preserve">
<style type="text/css">
	.st0{fill:#010101;}
	.st1{fill-rule:evenodd;clip-rule:evenodd;}
</style>
<g>
	<path d="M622.6,393.2c3.1,0.3,6.8-0.2,11.1-0.4c5.8-0.3,12.7-0.4,20.4,1.9c0.5-2.8,1.5-5.5,1.9-8.5c7.8-52.7,4-92.9-18.9-107
		c-1.2-0.7-2.3-1.3-3.4-1.8c-7-3.2-12.8-1.8-17.9,7.4c-4.6,8.3-5.8,16.5-7.9,26.7l-0.1,0.7l0.1,0.4
		C627.9,365.3,610.4,392.2,622.6,393.2z"/>
	<path d="M524.4,815.3c-4.1-1.8-10.6-1.7-15.9-0.4c-3.4,0.9-6.2,2.2-7.6,3.9l-0.3-0.6c1.8-2.1,4.6-3.9,8-5.2
		c3.8-1.5,8.2-2.2,12.3-1.8c-2.5-10-4.7-54.2-2.5-63.6c4-4.9,8.5-11.7,13.1-15.8c-7.6,1.8-15.2,2.4-22.9,1.8
		c-5.2-0.4-10.4-1.3-15.6-2.8c-1,1.6-2,3.1-3.1,4.5c-0.1,0.8-0.3,1.6-0.6,2.5c-3.8,3-8.8,6.6-6.2,15.7c1.3,12.4,1.8,24.2,1.7,36.5
		c-0.1,11.5-3,19.7-1.3,36.3c0,4.9,3.1,8,9.2,8.6c5.3,1.5,10.3,1.6,15-0.1l0.9,0.2c6.6,1.6,11.8,1.6,14.9-0.6
		c7.1,2.4,9.9-1.4,10.7-3.4C536.7,825.1,529.8,817.7,524.4,815.3z"/>
	<path d="M704.6,466.4c0.1-8.8-7.2-13.8-9.9-22.7c-3-9.9-2.8-17-6.4-22.2c-3.4-4.9-7.5-7.1-13.6-9.4c-7-2.7-12-7.1-17.7-11.1
		c-8.5-3.2-16.6-2.9-23.4-2.1c-12.5,1.4-20.7,4.2-19.6-11c1.6-20.6,0.1-43.6-6.2-64.6c-5.3-17.8-14.1-34.3-27.4-46.7
		c-2.5-2.3-5.1-4.5-7.9-6.5c-7-5-13.7-5.9-18.8-4.6c-4,1-8.5,6.5-9.8,14.4c-9.4,54.7,6,89.8,34.2,109.5c1.1,1.9,1.8,5.1,2.3,9
		c0.9,6.9,1,16.1,1.6,24.3c0.4,6.3,1.1,12.7,0.8,17.9c-0.2,3.6-1.2,6.1-2.4,8.5c-2.7,5.1-6.5,9.5-6,21.9c0.4,8,3.3,16.3,5.1,23.9
		c0.3,1.1,0.6,2.3,0.8,3.4c4.3,16.6,10.6,31.9,8.1,51.7l-1-0.9c2.1-14.9-2.1-29.8-7.1-42.3c-2.4-6.1-5.1-11.7-7.3-16.5
		c-7.9,4.9-25.6,3.2-39.7,21.9c-8.7,7.3-17,14.7-25.1,22.1c-6.2,5.7-12.3,11.5-18.3,17.1c-42.9,40.3-70.9,73.5-58.7,116.9
		c3,16.5-5.6,32.5-5.6,45.5c0,13,9.4,22.4,6.1,32.3c-3.1,2.4-7,5.3-7.1,11v0.6c0,1.4,0.3,2.9,0.7,4.6c1.4,12.7,1.9,24.9,1.8,37.6
		c-0.1,11.9-3.1,20.4-1.4,37.5c0,5.1,3.2,8.3,9.5,8.9c5.4,1.6,10.6,1.7,15.4-0.1c7.3,1.9,13,2,16.3-0.4c7.3,2.5,10.2-1.4,11.1-3.5
		c1.6-3.9-0.7-7.8-3.8-11.1c-7.1-7.4-16.6-11.9-32.2-3l-0.5-0.3c4.1-4.9,14.8-7.5,22.5-7.3c-2.4-12-4.6-55.1-2.4-64.5
		c9-11.1,21.6-17.4,28.3-31.2c6,1.8,12.1,3.3,18.3,4.3c8.8,1.4,17.7,1.6,26.9-0.4c2.7,5.4,3.1,35,6.7,73.1
		c1.2,12.2,2.3,24.5,4.4,38.1c-1.8,18,1.4,25.3,8.4,27.1c4.1,2.6,9.2,2.5,13.7-0.2c4.6,2.2,8.6,2.7,12,1.8c1.6-0.4,3.1-1.1,4.5-2.1
		c8.6,1.3,13.9-0.5,11.3-6.8c0.5-4.3,0.3-9.1-2.1-12.9c-1.6-2.6-3.7-4.8-5.7-6.9c-1.9-1.3-4.8-2.1-8-2.4c-6.3-0.5-13.7,1.2-17,5.1
		l-0.3-0.6c3.7-4.5,11-6.5,17.3-6.7c1.4,0,2.8,0,4,0.2c-1.7-2.1-3.2-4.5-4-7.5c-0.6-1.9-0.9-4-0.9-6.5l0,0
		c-1.7-33.8,1.7-64.4-0.9-93.1c-0.1-2.3,0.5-4.5,1.7-6.7c5-8.7,19.2-16.3,27.4-24.6c2.7-2.8,4.8-5.6,5.5-8.6l0.9,0.3
		c-1.3,4.7-3.7,8.3-6.5,11.5c-3.6,4.1-8.1,7.3-12.2,11.3c-11.7,11.4-11.2,22.1-11.8,37.1c-1.1,24.4-2.4,52.2-0.7,70.9
		c0.6,6.8,1.5,11.7,3,15.2c1.1,1.3,2.4,2.5,3.5,3.7c2.1,2.2,4.8,4.8,6.6,7.6c1.9,3.1,3.3,9,3.5,16c1.2,0.9,2.5,1.9,3.6,2.7
		c1.5,0.6,3.1,1.1,4.6,1.4c3.4,0.6,6.6,0.2,9.7-2c6.6,1.9,11.7,1.6,15.1,0c0.4,0.1,0.7,0.2,1,0.2c5.4,1,7.4-3.7,7.2-7.7
		c-1.3-6.5-4-9.1-7.2-11.8c-1.7-1.5-3.6-2.9-5.3-5.1c-3.7-4-16.5-3.2-20.4,1l-0.1,0.2l-1-0.3c0.3-0.4,0.7-0.8,1.1-1.1
		c3.6-3.1,10.4-4.5,16.6-4.7c-2-3.8-3.4-8.6-3.6-16.9c-0.2-7.7,1.6-15.4,1.7-23.5c0.2-12.4-0.7-25-0.1-37.1
		c0.7-13.8,2.1-27.3,5.3-37.9c1.6-5.4,3.6-10.1,5.8-14.3c8.6-16.5,20.5-24.9,27-40.9c9.2-22.2,13.1-43.1,14.7-70.6l3.9-76.4
		c-2.8,0.3-5.6,0.5-8.5,0.5c-16.4,28.2-13.2,81.7-22.8,96.3l-0.7,0.2c5.1-13.1,6.4-28.1,8.1-45.5c1.7-17.4,1.2-35.9,10.2-51.1
		c-10.7-0.6-21.9-3.1-31.9-7.1c-10.6-4.3-19.9-10.2-25.8-17.3c-7.9-9.6-9.6-21.4,0-34.1c0.6-0.7,1.1-1.5,1.8-2.2l0.3,0.9
		c-0.8,0.9-1.4,1.8-2.1,2.6c-7.8,10.7-6.5,20.3,0,28.3c5.6,6.8,14.9,12.3,25.8,16.2c16.2,5.8,35.7,7.9,50.2,4.9
		c6.2-2.1,11.3-6.1,15.3-12.1C707.7,495.2,713.2,481.9,704.6,466.4z M608,373.1c-0.3,5.8-1,11.4-2.4,16.2c-2.4,8.5-7.2,17-13.6,3.9
		l0.4-0.3c4.7,6.9,8.7-2.1,9.8-5.4c2.9-8.7,2.4-22.5,0.9-33c-1.9-12.3-10-44.4-22.3-64.6c-2.9-4.7-6-8.8-9.3-11.8
		c-5.6-5.1-11.4-8-17.8-4.8l-0.3-0.3c7.5-3.5,12.6-1.7,18.9,3.1c3,2.3,5.9,5.3,8.6,8.8c14.4,18.5,24.3,51.4,26.6,68.6
		c0.3,2.5,0.6,5.3,0.7,8.2C608.2,365.3,608.2,369.2,608,373.1z"/>
</g>
</svg>
