<?xml version="1.0" encoding="utf-8"?>
<!-- Generator: Adobe Illustrator 22.0.0, SVG Export Plug-In . SVG Version: 6.00 Build 0)  -->
<svg version="1.1" id="Layer_1" xmlns="http://www.w3.org/2000/svg" xmlns:xlink="http://www.w3.org/1999/xlink" x="0px" y="0px"
	 viewBox="0 0 1133.9 1133.9" style="enable-background:new 0 0 1133.9 1133.9;" xml:space="preserve">
<style type="text/css">
	.st0{fill:#010101;}
	.st1{fill-rule:evenodd;clip-rule:evenodd;}
</style>
<g>
	<path class="st0" d="M819.9,717.2c-3-4.8-7.6-11.6-14-11c-5.1,0.5-9.6,4.3-12.5,8.4c-8.5,12.2-5.3,27.7-8,41.7
		c0-12.1,0.1-24.2,0.1-36.3c0-13.5-1.4-26.8-5.3-39.8c-0.6-1.9-1.2-3.8-1.9-5.7c0.1-0.2,0.2-0.5,0.3-0.7c0.2-0.7-0.4-1.2-1-1.4
		c-1.4-3.9-3-7.7-4.8-11.5c-0.2-0.8-0.5-1.6-0.8-2.3c-1.6-4.7-3.5-9.3-5.6-13.8c-4.5-9.4-10-18.4-16-26.9
		c-12.4-17.5-27-33.4-40.4-50.1c-12.5-15.6-24.9-30.6-42.2-41.2c-15.3-9.4-32.7-15.4-50.4-18.1c-10.1-1.5-20.3-2-30.5-1.4
		c-13,0.8-25.9,3.4-38.9,4.6c0-0.5-0.5-0.9-1.1-0.7c-4,1-6.5,4.5-8.5,8c-2.8,5-5,10.2-8.4,14.9c-6.3,8.9-14.4,16.4-23.7,21.9
		c4.4-4.5,8.6-9.1,12.6-14c5-6,10.7-12.4,13.9-19.6c6.5-15-7-25-14.8-35.9c0-0.1,0.1-0.1,0.1-0.2c1.7-6.6-2.5-13.3-8.9-14.8
		c8.3-15.1,8.7-32.8,14.8-48.6c-0.9,4.7-1.9,9.4-2.7,14.1c-0.2,1,1.3,1.6,1.9,0.9c38.4-42.5,60.9-98.8,62.9-156c0-0.5-0.3-1-0.9-1.1
		c-1.3-0.1-2.5-0.3-3.8-0.4c-0.5-0.1-0.8,0.1-1.1,0.5c-5.7,10.6-15.4,18-24.3,25.8c-8.7,7.6-15.9,15.9-20.9,26.4
		c-5.3,11.1-8.3,23.3-11,35.3c-3.3,14.4-6.7,28.8-10,43.2c-0.2,1,1.1,1.8,1.7,0.8c6.4-10.4,13.5-20.5,21.2-30
		c-8.3,13.6-16.9,27-25.8,40.2c0.7-13.1,2.9-26.1,5.8-38.9c3-13.2,6-26.6,10.6-39.3c4.7-13.1,11.9-24.5,21.6-34.5
		c8.2-8.4,17.1-15.9,25.3-24.3c4-4.1,13.1-13,5.6-18.4c-3.5-2.5-7,0.6-9.7,2.8c-5.2,4.1-9.9,8.9-14.4,13.7
		c-19.3,20.4-38.5,41-56.7,62.3c-9.6,11.3-18.8,22.9-27.3,35.1c-2.2,3.1-4.4,6.3-6.5,9.6c2.8-5.1,5.6-10.2,8.5-15.2
		c6.9-11.9,13.7-24.3,23.3-34.3c9.1-9.5,19.4-17.8,28.5-27.3c8.6-8.9,16.8-18.3,24.9-27.7c1.6-1.2,3.1-2.3,4.7-3.5
		c0.7,0.1,1.6-0.7,1.1-1.4c-2.8-4.7-7.2-8.7-12.2-11c-5.6-2.6-10.4-0.5-15.6,2.2c-10.6,5.4-20,13.1-28.1,21.9
		c-17.4,18.9-28.2,42.6-37.7,66.1c-3,7.4-5.9,14.7-8.9,22.1c-3.2,7.9-7.2,15.6-10.1,23.6c-14.8,5.8-29.4,12.5-44,18.8
		c-12.8,5.5-26.5,10.3-37.4,19.3c-10.6,8.8-18.9,20.3-26.9,31.4c-8.6,11.9-17.6,24.1-24.7,37c-6.6,7.1-5.4,19.3,2.4,25.2
		c0.4,0.3,0.9,0.4,1.2,0c3.3-3.6,6.1-7.6,8.4-11.9c-1.4,7.4-5.7,15.8-14.5,13.1c-0.6-0.2-1.3,0.4-1.1,1.1c3.3,9.5,9.2,18,16.7,24.6
		c9.2,8.1,20.2,11.2,31.4,15.5c11.6,4.4,20.9,12.9,32.9,16.7c11.4,3.7,23.8,4.3,35.5,1.8c11.2-2.4,22-7.3,32.7-12
		c-8.7,5.8-17.8,11.2-27.8,14.2c-15.8,4.7-31.4,1.5-46.8-3.2c-0.9-0.3-1.6,0.5-1.6,1.2c-0.6-0.1-1.4,0.3-1.4,1.1
		c1.6,35.5,6.4,72.8,25.1,103.8c7.8,13,18,24.6,30.4,33.4c14.2,10.1,30.3,13.7,46.8,18.3c9.2,2.6,18.3,5.8,26,11.6
		c3.7,2.8,7.1,6.1,9.6,9.9c1.3,2,2.4,4.1,3.2,6.3c0.5,1.3,0.5,2.4,1.6,3.2c1.3,7.9,1.1,15.9,0.4,23.9c-0.5,5.3-1.1,11-4.1,15.5
		c-2.2,3.2-5.4,5.4-8.5,7.7c-8.7,6.2-14.9,16.5-11,27.3c0,0-0.1,0-0.1,0c-0.9-0.3-1.4,1.3-0.5,1.6c7.3,2.7,14.8,3.4,22.5,2.4
		c0.7-0.1,1.1-1,0.8-1.6c-4.2-8-0.8-17,6.5-20.3c-2.2,2.1-3.8,4.9-4.7,8.1c-1.4,4.9-2.3,12.8,3.7,14.7c3.8,1.2,8.7,0.7,12.7,0.8
		c5.2,0.1,10.3,0.1,15.5-0.1c5.4-0.1,10.8-0.4,16.3-0.8c3.5-0.3,9.6,0.4,12.4-2.3c4.1-4.1-0.3-13.1-0.4-17.7
		c-0.2-9.3,3.5-18.2,7.4-26.5c3.6-7.8,7.2-15.5,9.4-23.8c2.3-9,3.4-18.4,3.2-27.6c-0.2-10.7-3.7-21-2-31.7c1-6.7,2.9-13.5,2.3-20.2
		c2.6,9-0.5,19.3-0.4,28.7c0.1,6.9,1.8,13.7,2.1,20.6c0.3,6.7,0,13.4-1,20.1c-1.9,13.6-7,25.5-12.6,37.9
		c-5.2,11.4-7.3,23.4-4.4,35.8c0.2,0.7,0.9,0.9,1.5,0.6c1.5,1.1,4.1,0.9,5.7,1c1.4,0.1,13.6,1,13.9-0.2c-0.1,0.6,0.3,1.3,1,1.1
		c0.2-0.1,0.5-0.1,0.7-0.2c0.7-0.2,0.9-1,0.7-1.6c-0.2-0.6-0.5-0.9-0.8-1.2c4.3-4.9,6.9-12.2,9.4-18.1c1.8-4.3,3.3-8.8,4.9-13.2
		c2.5-7,5.9-12.1,13.2-14.7c3-1.1,6.1-1.6,9.2-2c1.6-0.2,3.3-0.3,4.9-0.5c0.9-0.1,1.8-0.1,2.6-0.2c0.9,0.1,1.6-0.1,2.2-0.7
		c0,0.1,0,0.1,0,0.2c0.1,0.3,0.3,0.7,0.7,0.7c0.7,0,1-0.1,1.5-0.6c0.2-0.2,0.2-0.4,0.1-0.7c0.1-0.2,0.1-0.5,0-0.8
		c-7-23.1-6.1-48.2,2.4-71.1c2.2-6,5.1-11.5,8.3-16.8c-0.4,1.2-0.8,2.3-1.1,3.5c-3.9,12-7.8,24-9.6,36.5c-1.9,12.9-1,25.5,2,38.2
		c0.8,3.2,1,8.5,3.7,10.7c1.7,1.4,4.6,1.5,6.7,1.9c3.4,0.7,6.8,1.4,10.2,2.1c10.4,2.2,26.2,3.1,33.9,11.9c-5-2.4-10.2-4.7-15.7-6.1
		c-7.5-1.8-15.3-0.5-22.6-2.8c-6.4-2-12-5.1-18.9-5c-6.6,0-13.6,1.7-19.7,4.1c-5.2,2-9.2,5.2-11.6,10.3c-3.1,6.6-4.4,14.3-6.3,21.2
		c-1.1,3.8-4.7,11.3-1.2,14.9c1.4,1.4,3.2,1.5,5.1,1.5c3.1,0,6.2-0.1,9.2-0.2c0,0,0,0,0,0c0.2,0.9,1.6,0.8,1.5-0.1
		c1.2-0.3,1.2-2.3-0.2-2.2c0,0,0,0,0,0c-0.7-11.5,6.9-22.5,17.8-26c-9.3,6.3-18.5,14.9-16.3,27.1c0.1,0.5,0.4,0.8,0.8,0.9
		c5.9,1.3,11.9,2.3,17.9,2.8c2.6,0.2,8.4,1.6,10.6-0.7c1-0.9,1-2.3,1.1-3.5c0.1-3.4,0-6.7,0.9-10c1.5-5.3,5.2-9.8,10.4-11
		c-5.1,3.6-9.9,8.2-10.2,14.8c-0.2,6.7,5.2,10.9,11.2,12.3c6,1.4,14.7,2.2,20.2-1.1c4.3-2.6,5.9-7.3,6.5-12.1c0.3,3.5-0.3,7-2,10.3
		c-0.4,0.8,0.1,1.6,1,1.7c7,0.3,13.9,0.7,20.9,0.7c4.6,0,9.3-0.4,12.7-3.7c3.3-3.2,4.6-7.6,6.4-11.7c2.5-5.5,6.2-10.2,9.9-15
		c14.1-18.1,21.9-39.4,26.3-61.7c2.2,15.1-8.6,29.5-8.4,44.7c0,0.5,0.6,1.1,1.1,0.9c13.8-5.3,25.5-13.3,33.9-25.7
		c4.1-6.1,7.4-12.9,10.4-19.6c2.8-6.3,5.8-12.7,7.7-19.3C829.1,742.4,826.9,728.3,819.9,717.2z"/>
	<path class="st0" d="M493.6,858.4c0,0-0.1-0.1-0.1-0.1c0.1-6.4,0.2-13.4,4.1-18.7c3.9-5.3,11.1-6.1,15.4-10.9
		c3.7-4.2,4.1-10.6,5.1-15.9c1-5.9,1.8-12,1.4-18c-0.9-13.2-8.1-22.4-19.8-28.1c-6.5-3.2-13.4-5.5-20.1-8.1
		c-7.3-2.8-14.7-6-22.2-8.3c-1.1-0.3-1.7,0.8-1.3,1.6c-0.1,0.1-0.1,0.3,0,0.5c4.9,12.4,8.5,24.8,9.5,38.2c0.7,10,1.4,23.2-5.7,31.3
		c-3.7,4.2-8.9,4.7-13.8,6.8c-3.6,1.5-6.6,4.1-8.9,7.3c-4.3,6-5.8,14.2-3.1,21.1c-0.7,0.3-0.7,1.4,0.2,1.6c4.9,0.9,9.8,1.4,14.8,1.4
		c0.6,0,1.1-0.6,0.9-1.2c-2.3-8.2,1.2-16,8-19.6c-1.4,1.3-2.5,2.9-3.3,4.7c-1.4,3.1-1.9,6.6-1.9,9.9c0,1.9-0.2,4.9,1.5,6.3
		c2,1.6,5.8,0.9,8.1,0.9c4.1,0,8.2,0,12.3,0c4.1,0,8.2,0.1,12.3,0.1c2,0,5.3,0.8,6.7-1.1c0.3-0.4,0.3-0.8,0.1-1.3
		C493.7,858.5,493.6,858.4,493.6,858.4z"/>
</g>
</svg>
