<?xml version="1.0" encoding="utf-8"?>
<!-- Generator: Adobe Illustrator 22.0.0, SVG Export Plug-In . SVG Version: 6.00 Build 0)  -->
<svg version="1.1" id="Layer_1" xmlns="http://www.w3.org/2000/svg" xmlns:xlink="http://www.w3.org/1999/xlink" x="0px" y="0px"
	 viewBox="0 0 1133.9 1133.9" style="enable-background:new 0 0 1133.9 1133.9;" xml:space="preserve">
<style type="text/css">
	.st0{fill:#010101;}
	.st1{fill-rule:evenodd;clip-rule:evenodd;}
</style>
<g>
	<path class="st0" d="M289.1,500.5c0.3,0,0.3-0.5,0-0.5S288.7,500.5,289.1,500.5z"/>
	<path class="st0" d="M850.8,804.4c-2.3-9.1-16.7-12-24.2-8.1c-5.1,2.7-5.5,8.4-6.9,13.4c-1.3,4.7-3,9.3-5.1,13.7
		c4.4-14.9,6.9-31,6.4-46.3c0.4,0,0.8-0.2,0.9-0.6c0.9-4.4-0.3-9.6-0.8-14c-0.6-5.2-1.3-10.4-2.1-15.6c-1.7-10.7-3.9-21.3-6.5-31.8
		c-2.5-9.8-5.2-19.6-8.8-29.1c-2.5-6.8-5.8-13.4-11-18.5c0.3-0.4,0.5-0.9,0.2-1.5c-22.9-38.4-56.5-69.9-96-90.8
		c-19.9-10.5-41.1-18.2-63.1-22.8c-13.5-2.8-27.1-4.5-40.7-6c-13.8-1.5-27.6-3.5-41.4-1.7c-4.4,0.6-8.8,1.4-13.2,0.7
		c-3.8-0.6-7-2.5-10.5-4.2c-5.6-2.7-9.5-2.4-15.2-0.4c-14.4,5.1-30-7-27.2-22.4c0.2-0.9-0.8-1.6-1.5-0.9c-1.5,1.5-3.1,2.9-4.6,4.4
		c15.1-24.1,16.7-55.9,2.4-81c-0.2-0.4-0.5-0.5-0.9-0.5c0,0,0-0.1,0-0.1c0.3-0.7-0.7-1.2-1.1-0.6c-2.1,3.1-4.2,6.8-5.9,10.5
		c2.8-16.2,12.6-31.2,19.1-46.3c9-20.9,10.5-43.9,9.7-66.4c-0.4-10.7-0.6-22-2.3-32.6c-0.8-4.8-2.8-8.6-7.3-10.8
		c-4.9-2.4-11-3.7-16.4-4c-20.5-0.9-31.7,20.7-38.1,36.9c-4.6,11.6-7.2,23.9-6.8,36.5c0.3,7.4,1.3,14.7,1.2,22.2
		c-0.1,4.1-0.4,8.1-0.9,12.1c-0.5-9.3-1.5-18.5-2.1-27.7c-1-13.1-1.6-25.9,2.1-38.7c6.3-22,25.9-51.2,52.5-41.3
		c1,0.4,1.8-0.7,1.5-1.5c0.6,0,1.1-0.5,1.1-1.2c-0.1-10-1.9-22.1-13.6-24.2c-11.7-2.1-24,3.8-32.5,11.7
		c-9.9,9.2-15.6,21.9-19.7,34.5c-4.8,14.7-7.4,30.1-7.9,45.5c-0.2,8.5,0.2,17,1.3,25.4c1.3,9.7,4,19.3,4.2,29.1
		c-0.6,0.5-1.2,1-1.7,1.5c-0.7,0.7-1.4,1.4-2.1,2.2c-0.1,0-0.2-0.1-0.3-0.1c-25.9-2.1-51.4,13.5-69.6,30.4
		c-18.7,17.4-33.2,38.7-48.9,58.8c0,0,0,0-0.1,0c-0.3,0.4-0.6,0.7-0.9,1.1c-2,2.6-4,5.1-6.1,7.6c-0.1,0.1-0.1,0.3-0.1,0.5
		c-1,1.3-2,2.7-2.9,4c-2,2.9-3.4,6.1-3.7,9.7c-0.6,6.7,2.2,13.2,7.3,17.5c0,0,0.1,0.1,0.1,0.1c0.1,0.1,0.2,0.2,0.3,0.3
		c1.2,1,2.5-1.1,1.3-2.1c-0.1-0.1-0.2-0.1-0.2-0.2c1-2.9,2-5.5,3.8-7.9c-2.5,7.5-4.4,16.4,0.9,22.9c2.4,2.9,5.6,4.3,9.2,5.1
		c0.8,0.2,5.1,0.9,8.9,1.6c0-0.1,0-0.2,0-0.3c9.1,3.1,19.2,3,28.8,2.4c5-0.4,10.2-1.3,14.3-4.1c-0.9,1.3-1.8,2.6-2.9,3.8
		c-0.5,0.5-0.3,1.3,0.4,1.5c7,2.6,14,4.6,21.3,6.1c5.3,1.1,10.9,2.4,16.3,1.7c6.5-0.8,12.6-5.1,18.3-8.1c4.1-2.2,8.1-4.3,12.2-6.5
		c-7.6,6.2-15.3,12.3-24.9,14.9c-12.9,3.6-27,1.4-38.1-5.9c-1.1-0.7-2.2,0.8-1.4,1.7c10,12,9.2,28.4,7.1,43c-2,14-4.1,27.9-3.7,42.1
		c0.4,12.7,2.5,25.4,7.6,37.1c5.6,12.9,15.1,24.1,23.3,35.4c0.4,0.5,0.8,0.6,1.3,0.4c3.9,6,8.6,11.5,13,17.1
		c4.4,5.6,9.1,10.7,14.9,14.8c10.5,7.1,23.2,11,35.5,13.8c1.1,0.5,2.2,0.9,3.4,1.3c0.5,0.2,1.3-0.1,1.3-0.8c0-0.6-0.1-1.1-0.2-1.7
		c0.3-1.5-0.2-2.1-1.4-3.2c-2.1-2-4.9-3.5-7.2-5.3c-5.1-3.9-10.2-7.9-15.1-12c-5.4-4.5-10.8-9.1-15.2-14.7
		c-4.6-5.9-8-12.5-11.5-19.1c-6.3-11.7-12.7-23.4-18.8-35.3c-4.7-9-8.9-19.3-8.5-29.6c1.6,12.1,7.6,23.4,13.3,34
		c7,13.1,13.7,26.7,22.1,39c7.3,10.6,16.2,18.1,26.3,25.8c5.8,4.4,11.5,9.2,15.4,15.5c4,6.5,6.7,13.8,10.3,20.5
		c8.6,15.9,19.6,31.4,19.9,50c-0.6,3.4-2.9,5.4-5.9,6.6c-1.4,0.5-2.8,0.9-4.1,1.2c-5.5,1.4-11.1,2.6-16.6,4
		c-0.3,0.1-0.6,0.3-0.7,0.5c-3.6-0.1-6.9,1.8-9.1,4.8c-2,2.8-3.4,8-0.4,10.6c1.4,1.2,3.3,1.3,5,1.4c4.6,0.2,9.3,0.1,13.9,0.2
		c8.2,0.1,16.5,0.3,24.7,0.3c6.1,0.1,12.7,0.5,18.5-2.1c5.3-2.4,8.8-7.7,12.4-12.1c4.5-5.5,8.7-11.2,11.4-17.8
		c2.9-7.1,4.6-14.7,6.5-22.2c2.4-9,4.7-18,7.1-26.9c0.5-2,1.1-3.9,1.6-5.9c-0.6,3.8-1.3,7.7-1.9,11.5c-1.5,9.3-1.8,17.2,4.4,24.9
		c5.5,6.9,13.4,11.9,20.3,17.2c4.3,3.3,8.7,6.6,13,9.9l6.2,4.7c2.2,1.7,6.5,4.1,7.7,6.8c-2.4,2.6-4.5,6.4-3.2,9.8
		c1.6,4.3,7,4.1,10.8,4.4c13.9,1.1,27.8,1.7,41.7,1.8c8.6,0.1,17.1-0.1,25.6-0.7c19.7,0.4,39.6-0.4,59.3-1.2
		c9.6-0.4,19.3-0.8,28.9-1.3c9.2-0.5,18.8-0.5,28-1.7c0.4,0.2,0.8,0.2,1.1-0.2c0,0,0,0,0,0c0.6-0.1,0.9-0.6,0.9-1.2
		c2.7-3.5,5-7.3,6.9-11.2c-0.5,1.7-1,3.4-1.7,5.1c-0.3,0.9,0.3,1.9,1.3,1.6c12.5-3.4,23.5-10.9,31.2-21.4c3.9-5.4,7-11.3,9.9-17.3
		C848.7,816.6,852.4,810.4,850.8,804.4z M459.7,418c-2,5.5-3.3,15.3-10.7,15.8c-0.4,0-0.9-0.4-1-0.8c-1.3-14.2-2.4-28.4-4.8-42.5
		c-2.2-13.1-6.1-26.2-4.9-39.6c0.1-0.7,1.1-0.5,1.1,0.2c-0.7,12.3,2.5,24.2,4.8,36.2c1.7,8.5,2.8,17.1,3.8,25.7
		c0.8,3.4,1.5,6.9,2.2,10.3c0.3,0.1,0.6,0.4,0.6,0.8c0,0.3,0,0.6,0,0.9c0.1,0.1,0.2,0.3,0.2,0.5c0,0.3,0,0.6,0,0.9
		c0.2,0.6,0.4,1.1,0.7,1.6c6.6-15.2,13.8-30.1,23-43.9c0.4-0.6,1.3,0.1,0.9,0.7C469.1,395.2,463.9,406.4,459.7,418z"/>
</g>
</svg>
