<svg id="Layer_1" data-name="Layer 1" xmlns="http://www.w3.org/2000/svg" viewBox="0 0 1085 354"><defs><style>.cls-1{fill:#1f434a;}</style></defs><g id="HdF1lD.tif"><path class="cls-1" d="M713.85,230.05c2.24-1.63,4.45-3.31,6.73-4.89,1.45-1,3-1.89,4.52-2.75a4.48,4.48,0,0,1,1.58-.19l-5.35,5.15.43.64c1.21-.82,3-1.39,3.5-2.53.78-1.84,1.36-1.63,3,0a16.85,16.85,0,0,0,.21-2.42c-.11-1.51,0-2.92,1.5-3.75,1.72-1,3.46-1.93,5.24-2.8,2.34-1.15,4.73-2.18,7.07-3.31a2.85,2.85,0,0,0,1-.9c.72-1,1.42-1.9,2.61-.34a5.63,5.63,0,0,1,4.5-4.58c.32-.07.76-.13.9-.35,2.7-4.18,7.78-5.4,11-8.92,1.32-1.42,3.29-2.21,4.78-3.51,1.13-1,1.65-2.77,3.64-2.52,2.17-3.37,6.81-2.92,9.21-6,.73-.92,1.62-1.72,2.32-2.45a9.14,9.14,0,0,0,2.52-.25,50.53,50.53,0,0,1,18.54-3.58c1.78,0,2.63.78,3.23,2.37,1.06,2.8,2,6,5.18,7a17.63,17.63,0,0,0,7.24.15c2.15-.31,3.1.46,3.79,2.26.77,2,.85,4.37,3.15,5.59.36.19.37,1.53.15,2.21-.81,2.45-1.78,4.84-2.94,7.93a18.73,18.73,0,0,0,3-1.18c2.46-1.57,4.83-3.28,7.28-4.87q4.95-3.19,10-6.28c1.53-.95,3.12-1.8,4.7-2.66,5.44-3,10.87-5.95,16.33-8.88,3.77-2,7.47-4.23,11.4-5.86a20.66,20.66,0,0,1,13-1.24c2.13.54,3.91,2.83,5.63,4.54,2.6,2.58,3,6.16,3.83,9.51a2.81,2.81,0,0,1-.11,1.77c-1.59,3.33-3.38,6.58-4.84,10-.58,1.35-.47,3-.73,4.88,2.06-.61,3.07-1.21,4-2.72a13.67,13.67,0,0,1,4.94-4.38c3.56-2,7.36-3.46,11-5.2,2.56-1.2,4.88-3.13,8-2.51a.66.66,0,0,0,.55-.19c1.23-2.09,3.49-2.38,5.47-3.2,5.52-2.3,11-4.68,16.5-7a2.57,2.57,0,0,1,.77-.2c4.77-.46,9.55-.88,14.32-1.38a3.75,3.75,0,0,1,4.19,2.39c1,2.45,1.83,5,2.75,7.51,2.19,5.95-.79,10.51-4,15-2.67,3.73-5.29,7.49-8,11.15-1.39,1.85-3.2,3.4-4.57,5.26-4.26,5.8-8.62,11.55-12.5,17.61-1.8,2.79-2.68,6.2-3.76,9.41a3.86,3.86,0,0,0,1.32,4.36c1.07.89,2.17,1.76,3.28,2.61,1.79,1.38,3.55,2.8,5.42,4a7.59,7.59,0,0,0,2.74.87c.56.11,1.42-.34,1.75-.07,1.85,1.55,4.14,1.85,6.3,2.54.87.27,1.69.7,2.56.93q7.35,1.92,14.73,3.78c1.87.47,3.76.93,5.66,1.3q10.4,2,20.8,4c1.31.25,2.65.34,4,.49,6.3.68,12.6,1.42,18.91,2,3.82.35,8.17,1.89,9.82,3.81-.12.2-.21.49-.4.62-4.11,2.76-11.06,5.46-16.48,1.72a2,2,0,0,0-1.66-.15c-3.6,1.37-7.11.61-10.65-.23a9.81,9.81,0,0,0-2.11-.15,30.8,30.8,0,0,1-5.09-.11c-2.79-.53-5.49-1.57-8.3-2.05-2.53-.44-5.15-.36-7.71-.63a26.24,26.24,0,0,1-3.46-.8c-.19-.05-.44-.25-.56-.19-2.92,1.64-5-1.16-7.62-1.4s-5.27-.88-7.92-1.3c-1.32-.21-2.65-.34-4-.48a4.79,4.79,0,0,1-3.91-2,3,3,0,0,0-2.75-.89c-2.72,1.21-4.63-.25-6.68-1.49a14.27,14.27,0,0,0-2.62-1.38c-3-1.05-6-2-6.93-5.59-.13-.5-.75-.92-1.23-1.26a14.58,14.58,0,0,1-6-7.79c-.32-1-1.54-1.79-2.31-2.7S919,249,919,248.08c0-2.2.68-4.41,1-6.62a6.14,6.14,0,0,0-.11-2.67c-.51-1.5-1.3-2.91-1.91-4.39a6.76,6.76,0,0,1-.23-1.55c3.37,1,5,.44,6.92-2.45.25-.37.43-1.13.23-1.41a2.85,2.85,0,0,0-1.6-1c-.3-.06-.84.53-1.09.94a9.31,9.31,0,0,0-.64,1.81c-1.87-3.94-.8-5.77,3.24-5.84a3.14,3.14,0,0,0,3.13-2.06c.22-.61-.35-1.64-.79-2.33-.69-1.07-.28-1.53.74-1.62,1.71-.15,2.19-1.14,2.31-2.69a20.07,20.07,0,0,1,.83-4.12c.23-.71.75-1.71,1.33-1.87,2.67-.71,2.17-3.08,2.69-4.87.07-.25-1-1.22-1.44-1.18-2.4.19-4.77.14-6.87,2.06-1.18,1.08-3.45,1.09-5.26,1.3-1.35.16-2.32.17-2.8,1.84-.65,2.27-3,2.63-4.87,2.95a8.48,8.48,0,0,0-5.85,3.42c-.65.87-1.95,1.29-3,1.82-1.36.69-2.86,1.15-4.14,2-3.18,2-6.27,4.17-9.54,6.37-.48-.54-.78-1.15-1.26-1.37a4.94,4.94,0,0,0-2.68-.65c-.47.09-.83,1.3-1,2.07a15.69,15.69,0,0,0-.12,2.39,3.23,3.23,0,0,1-3.07,3.34,4,4,0,0,0-2.32,1.06c-3,3.17-6.65,5.22-10.47,7.13a11.52,11.52,0,0,0-2.1,1.82,10.44,10.44,0,0,1-1.54,1.22c-1.35.79-2.8,1.42-4.11,2.26a3,3,0,0,1-4.34-1,52.25,52.25,0,0,1-3.42-7.46c-.53-1.55-1.15-2.63-2.72-3.13A6.68,6.68,0,0,1,851,233l-2.58-1.48a10.65,10.65,0,0,0,1.75-2.2,10,10,0,0,0,1.06-3.77c0-2.26,1.14-3.86,2.49-5.51,2.64-3.24,5-6.71,7.75-9.87,1.06-1.22,2.8-1.84,4.24-2.73l1.76-1.07a13.1,13.1,0,0,0-1.76-1.41,4,4,0,0,0-4.7.32c-.16.12-.35.34-.49.32-2.76-.47-3.42,1.66-4.42,3.45a2.54,2.54,0,0,1-1.51,1.19c-4.53.92-7.2,4.53-10.58,7.11-1.48,1.12-2.91,2.29-4.35,3.45-1,.8-1.91,1.67-2.93,2.43-2,1.51-4.1,2.93-6.12,4.45s-4.21,3.3-6.33,4.93c-1.31,1-2.61,2-4,2.93-3.77,2.4-7.68,4.59-11.36,7.11-3.86,2.65-8.26,1.59-10.33-2.55a36.39,36.39,0,0,0-3.92-6,3,3,0,0,0-4.33-.7c-2.24,1.52-4.33,3.28-6.55,4.84-1.95,1.37-4,2.63-6,3.9-3.15,2-6.31,3.94-9.51,5.83a20.85,20.85,0,0,1-4.12,2c-2.7.87-5.48,1.52-8.22,2.31a9.46,9.46,0,0,0-1.82.79c-3.46,1.8-9.94-.43-11.62-3.93-.85-1.8-1.88-3.51-2.84-5.25a3.2,3.2,0,0,0-3.95-1.61c-1.51.44-3.55.14-4.2,2.27a.24.24,0,0,1-.14.14c-1.94.63-3.88,1.28-5.84,1.87-.68.2-1.62,0-2.06.44-1.25,1.18-2.46,1.8-4.11.84a.78.78,0,0,0-.72.12c-1.84,2.08-4.6,1.3-6.83,2.18a23,23,0,0,1-5.07,1c-.82.13-1.68,0-2.52,0a11.88,11.88,0,0,0-2.74.34c-1.49.46-2.9,1.16-4.38,1.63a2.67,2.67,0,0,1-1.48-.26c-.69-.24-1.34-.81-2-.81a4.87,4.87,0,0,1-4-2c-.39-.49-1.35-.51-2.35-.84a30.15,30.15,0,0,0-1.87-4.87,29.74,29.74,0,0,0-3.23-3.74,9.77,9.77,0,0,1-1.66-2.46c-.81-2-1.33-4.08-2.18-6a6.64,6.64,0,0,0-1.66-1.8,80.67,80.67,0,0,1-6.3,5.36c-.51.35-1.87-.52-3.3-1-.19.58-.94,1.68-.8,2.66a3.8,3.8,0,0,1-1.41,3.5c-1,1.05-1.82,2.56-3.05,3.12-2.72,1.25-4.6,3.58-7.14,5-.39.22-1.11-.15-1.21-.17-1.3.74-2.33,1.23-3.25,1.88a24.51,24.51,0,0,0-2.72,2.28c-.66.61-1.15,1.3-2.19.51-.29-.22-1,0-1.5.22a22.18,22.18,0,0,0-2.24,1.47c-.41,1.57-.83,1.72-2.89.83A2.41,2.41,0,0,0,637,256c-.79.31-1.48.9-2.27,1.25a7.41,7.41,0,0,1-8.42-1.89,8.91,8.91,0,0,1-1-2.75c-1.45-.22-3.48.24-4.49-1.78a2.77,2.77,0,0,0-1.35.6c-.29.36-.23,1-.45,2.19-1.47-1.4-2.59-2.54-3.78-3.6A35,35,0,0,0,611,246.5a12.74,12.74,0,0,1-6-9.46c0-.32,0-.75-.18-1-1.23-1.47-1.64-2.92-.38-4.66a2,2,0,0,0-.69-1.8,5.4,5.4,0,0,0-3.35-.33c-2.21.86-4,2.49-5.89,3.93-3.65,2.76-7.79,4.86-11.73,7.23-.46.28-1.08.38-1.4.75-3.1,3.53-7.31,5.48-11.23,7.77a55.22,55.22,0,0,1-8.76,3.61,18.84,18.84,0,0,1-3,.41c-1.22.23-2.41.58-3.62.86a19.76,19.76,0,0,1-2.71.56c-1.91.16-3.84.14-5.74.32-2.11.21-5.75-2.16-6.5-4.3a14.11,14.11,0,0,0-6.57-8.24,4.49,4.49,0,0,1-1.77-2,3.11,3.11,0,0,0-3.06-2.13c-1.6,0-3.19-.2-4.79-.28a7.72,7.72,0,0,0-5.59,2.27,44.73,44.73,0,0,1-5.27,3.78c-2,1.24-4.07,2.25-6,3.5-3.34,2.13-6.53,4.53-10,6.49a24.31,24.31,0,0,1-6.89,2.63,68.6,68.6,0,0,1-8.85.94c-.78.06-1.57-.3-2.36-.32a5,5,0,0,0-2.39.26c-1.35.72-2.32.48-3.07-.75-.9-1.48-1.6-3.09-2.6-4.49-1.23-1.7-2.67-3.25-4-4.84-.56-.65-1.19-1.25-1.8-1.87a32.47,32.47,0,0,0-2.51-2.47c-1.22-1-2.35-1.83-1.37-3.64a2.1,2.1,0,0,0,.06-1.56c-1.1-2.77.42-4.66,2-6.62a21.9,21.9,0,0,0,1.1-2.45c.41-.67,1.27-1.8,1.52-1.7a8.11,8.11,0,0,1,2.32,1.8c.18.18,0,.69.15,1s.53.89.85.93.8-.4,1-.75a10.54,10.54,0,0,0,.26-8.33c-.55-1.64-3.39-2.52-4.82-1.64-2,1.22-4,2.36-5.87,3.73-2.88,2.11-5.63,4.4-8.45,6.61a9.5,9.5,0,0,1-1.79,1.26c-2.45,1.11-4.83,2.26-6.45,4.59-.45.64-1.44.89-2.19,1.33a8.21,8.21,0,0,0-1.85,1.14c-5.17,5.48-11.6,9.38-17.48,14-1.79,1.4-4.2,2-6.28,3.07-3.22,1.64-6.92,2.81-9.43,5.21-2,1.88-4.62,1.56-6.42,3.41-.82.85-2.9-.21-3.75,1.44l-1.9-1.17c.06,0-.09,0-.2,0-1.44.65-3,2-4.27,1.78s-2.19-2.1-3.35-3.36c-1.81,1.3-2.36.62-2.87-1.32-.38-1.49-1.72-2.74-2.64-4.09a14.82,14.82,0,0,0-1.89-2.57A3.64,3.64,0,0,0,376,254a6.54,6.54,0,0,1-6.36-4.51,1.83,1.83,0,0,0-1.31-.75c-1.49-.21-2.26-1-1.89-2.44.81-3.07,1.73-6.11,2.73-9.12.2-.63.9-1.1,1.39-1.62a4.17,4.17,0,0,0,1.61-3.31c0-1.37,1.63-2.88,2.77-4.11,1.86-2,4-3.79,5.84-5.88a2.23,2.23,0,0,0-1.5-3.84c-3.78-.12-5.66-2.7-7.76-5.19-.94-1.12-2.27-1.9-3.21-3-1.56-1.88-2.92-3.92-4.4-5.87a7.24,7.24,0,0,0-1-1c.1-1,.19-2,.29-3L348,207.67a61.55,61.55,0,0,0-5.68,2.86,35.19,35.19,0,0,0-3,2.74,31.69,31.69,0,0,1-3.17,2c-.46.27-1.1.3-1.46.64-3.76,3.54-8.75,5.08-12.91,8-2.66,1.89-5.31,3.75-7.92,5.73C308,234.11,302,238.17,296,242.29c-2.74,1.88-5.66,3.5-8.4,5.37-1.7,1.16-3.23,2.58-4.83,3.88-.36.29-.69.74-1.1.85-4,1-6.62,4.43-10.2,6.12a75.15,75.15,0,0,1-9.49,3.75c-2.65.83-6.29-1.43-7.43-4-1.37-3.09-2.53-6.39-6.15-7.77-1.17-.45-.88-1.33-.49-2.33,1.09-2.8,2-5.64,3-8.48.16-.49.32-1.23.09-1.57-2-2.9.64-5.41.63-8.13a9,9,0,0,1,1-2.6c.25,2.51.45,4.44.64,6.37.12,1.11.85,1.26,1.5.64a2.75,2.75,0,0,0,.87-2,5.37,5.37,0,0,1,1.32-4.46,11,11,0,0,0,1.52-2.58c.39-1,.53-2.13-1.17-2.34-.34,0-.95-1.11-.83-1.28a37,37,0,0,1,2.52-2.95l.54.44a3.88,3.88,0,0,0-.29.85c-.07.53-.06,1.07-.08,1.61.63,0,1.41.26,1.84,0s.53-1.09.56-1.68c0-.31-.54-.63-.6-1-.19-1.13-.69-2.46-.3-3.38a21.34,21.34,0,0,1,3-4.57,1.87,1.87,0,0,1,1.6-.57c2.6.82,3.66-1.45,5.23-2.58.37-.27.38-1.36.22-2-.52-2.12.11-3,2.28-3a2,2,0,0,0,.59-.07c1.23-.35,4.61-4.88,4.84-6.2a6.13,6.13,0,0,1,1-2.23c.68-1,1.5-2,2.25-3,.13-.15.18-.38.33-.5,2.42-1.93,4.65-4.19,7.32-5.67s5.94-2.23,8.9-3.41c2.23-.88,4.44-1.56,6.75-.46a5.84,5.84,0,0,1,2,1.5c.78,1,.68,1.82-.64,2.55-1.61.9-2.93,2.33-4.56,3.2-3.92,2.08-6.1,5.87-8.9,9-3.22,3.6-5.94,7.64-8.83,11.52-2.54,3.41-5.11,6.81-7.5,10.32-1.42,2.09-2.5,4.4-3.79,6.58-1.79,3.06-3.7,6.06-5.41,9.16a6.62,6.62,0,0,0-.24,2.56c.82-.05,1.8.17,2.43-.21,3.55-2.12,7-4.4,10.51-6.6,2.71-1.7,5.48-3.32,8.17-5.06,2.17-1.4,4.25-2.94,6.41-4.37,2.49-1.65,5-3.22,7.52-4.86a30.34,30.34,0,0,1,2.7-2c1.54-.8,3.21-1.37,4.82-2a6.34,6.34,0,0,0,1.54-.69,51.11,51.11,0,0,1,11.25-7.39c3.37-1.5,6.35-3.87,9.58-5.7,4.32-2.45,8.8-4.63,13.05-7.19,1.75-1.05,3-2.86,4.6-4.23s2-3.25,2.62-5.12c.32-1,.93-1,2.14-.07-.54.37-1.07.71-1.57,1.08-.06.05,0,.25,0,.5,2.14.41,3.13-1.22,3.63-2.63s.35-3.35.49-5.24l-1.37-.91c.21-.28.42-.52.58-.77a7.68,7.68,0,0,0,1.14-1.88c.1-.33-.38-1.18-.66-1.21a1.8,1.8,0,0,0-1.5.58,6.2,6.2,0,0,0-.6,2.49c-.09,1.81,0,3.63,0,5.52,0,0-4.15,3.09-4.3,3.38-.34-1.16-.73-2.24-.95-3.35a1.51,1.51,0,0,1,.5-1.18,1.65,1.65,0,0,1,1.18-.15,4.15,4.15,0,0,1,1.1.57c0-4.46-.75-8.88,1.88-13-1.31-1.09-.64-1.85.5-3.09a34.74,34.74,0,0,1,6.87-5.95,12.83,12.83,0,0,1,3.74-1.59c.68-1.33,1.71-1.63,3.38-1.58a33.69,33.69,0,0,0,7.26-.78c3.54-.7,7,.11,10.4.61.95.14,1.67.83,1.89,2.34s2,2.52,3.45,4.09c-1.1,2.12.51,3.29,2.78,4.27.57.24.83,1.23,1.23,1.87l-1.72,1,2.63,2.24a4.81,4.81,0,0,0-1.16,4.43,5.69,5.69,0,0,1-2,5.34c-1.62,1.22-2.91,2.9-4.61,4-1.41.91-3.27,1.1-4.8,1.87-2.5,1.25-4.94,2.64-7.33,4.1-2.69,1.64-2.2,4.38-2.07,6.9.08,1.45.5,2.89.7,4.35.12.82.11,1.67.15,2.5l-.53.28a40.1,40.1,0,0,1,4.26,3.36c.71.72.94,1.92,1.56,3.27a38.88,38.88,0,0,0,7,.8c4.39-.19,9,.15,12.76-2.92a10.15,10.15,0,0,1,7.21-2.24c.27,0,.56-.28.85-.31a6.41,6.41,0,0,1,2.45-.13c.47.13.91.94,1.07,1.52a18.73,18.73,0,0,1,.92,4.63,7.17,7.17,0,0,1-1,3.67c-1.55,2.54-3.32,4.95-5.09,7.34a16.49,16.49,0,0,1-2.48,2.6,15.9,15.9,0,0,0-4.05,6.29,3.17,3.17,0,0,1-1,1.48c-3.13,1.9-3.87,5.24-5.13,8.28-.1.24-.09.7-.22.73-3.53.91-.73,4.09-2.09,5.76.43.31.84.89,1.27.9a14.41,14.41,0,0,0,2.75-.42,16.49,16.49,0,0,0,8-3.71c4.81-4.16,9.57-8.37,14.36-12.56a11.33,11.33,0,0,1,1.08-.89c4.51-3,9.08-5.87,13.52-8.94,3-2.08,5.78-4.48,8.74-6.63,1.81-1.31,3.6-2.6,6.15-2.48a4.27,4.27,0,0,0,3-2.07,11.78,11.78,0,0,1,4.47-4.71c1.64-.92,3-2.32,4.56-3.39,3.23-2.21,6.53-4.3,9.76-6.5s6.55-4.57,9.82-6.85a.83.83,0,0,1,.56-.18c2.55.74,3.55-1.24,5-2.64a33.85,33.85,0,0,1,4.08-2.69c2.07-1.44,4-3.06,6.13-4.43A19.25,19.25,0,0,1,507.58,176c1.6.15,2.29,1.28,2.2,2.84a3.41,3.41,0,0,0,1.7,3.34,3.8,3.8,0,0,1,1.18,4.87c-2.17,5-4.1,10.17-8,14.23-1.37,1.41-2.22,3.32-3.3,5-.69,1.06-1.35,2.14-2,3.2-3,4.61-6,9.28-9.11,13.8-2.64,3.8-5.22,7.6-6.79,12-.27.77-1.25,1.3-1.5,2.08a2.77,2.77,0,0,0,.19,2.37,2.56,2.56,0,0,0,2.33-.07c2.52-1.44,4.8-3.27,7.84-3.67A5.59,5.59,0,0,0,495,234.6a32.92,32.92,0,0,1,7.67-5c3.21-1.57,5.93-4.11,9.06-5.91,3.45-2,7.13-3.56,10.68-5.39,1-.51,1.83-1.31,2.8-1.88,3-1.79,6.09-3.52,9.12-5.3,2.64-1.54,5.3-3,7.86-4.71,3.57-2.34,7.1-4.77,10.55-7.28,1.12-.81,1.8-2.26,3-3,7.19-4.58,13.54-10.47,21.7-13.57,4.74-1.79,9.12-4.63,14-6,3.23-.94,7-.19,10.47-.16a1.15,1.15,0,0,1,.89.39c1.74,3.19,5,5.74,4.63,9.81a9,9,0,0,1-5.49,7.61c-1.44.69-3,1.15-4.42,1.9-2.11,1.12-4.12,2.41-6.2,3.61-3.52,2-7.09,4-10.56,6.1-4,2.43-8,4.91-11.78,7.57a50.15,50.15,0,0,0-6.23,5.32,42.79,42.79,0,0,0-3.36,4.19c-.37.47-.76.93-1.14,1.39q-3.77,4.52-7.52,9.05c-.11.13-.07.38-.13.81,1.91.69,3.72,0,5.31-.73,5-2.33,10.1-4.37,14.94-7.15,4.05-2.33,7.07-5.85,11.19-8,2.36-1.21,4.46-2.91,6.76-4.25a10.06,10.06,0,0,1,2.79-.64c0-3,2.54-4.17,4.53-5.79,1-.84,2.05-1.69,3.1-2.51,1.51-1.19,3.15-2.25,4.54-3.56a36.68,36.68,0,0,0,5-5.39c2.3-3.27,4.25-6.79,6.36-10.19,1-1.58,2-3.12,3-4.67.26-.39.74-.69.85-1.11,1.17-4.64,5-7.63,7.19-11.67a22.54,22.54,0,0,1,4.23-5.05c.53-.53,1.65-.46,2.5-.67s1.64-.19,2.11-.65c.28-.27-.15-1.25-.23-1.92a3.21,3.21,0,0,1,0-1.47,11.87,11.87,0,0,1,1.57-2.78c4.83-6,9.64-11.93,14.6-17.78,2.31-2.72,5-5.13,7.43-7.74.77-.83,1.27-1.9,2-2.74,1.12-1.27,2-2.93,4.07-2.94.25,0,.55-.62.75-1,.79-1.42,1.26-3.12,2.35-4.23,4.9-5,10-9.86,15-14.77a7.09,7.09,0,0,0,.85-1.11c1.23-1.85,1.84-1.82,2.87.17a1.88,1.88,0,0,0,3,.2,4.08,4.08,0,0,0,.77-1.4,8.1,8.1,0,0,0,.2-1.49c-.5,0-1,0-1.48,0a8.23,8.23,0,0,0-1,.13c-.78-1.81.56-2.5,1.58-3.24,1.4-1,2.88-1.91,4.32-2.85a10.63,10.63,0,0,1,9.09-1.07c2.36.68,4.5,5.48,3.66,8a24.3,24.3,0,0,1-2.41,5c-3.7,6-7.38,12.08-11.31,18-2.3,3.42-5.13,6.48-7.59,9.8-1.9,2.57-3.42,5.42-5.41,7.92-5.2,6.52-10.56,12.92-15.89,19.34-3.57,4.3-7.38,8.42-10.77,12.86-5.3,6.93-10.62,13.89-14.48,21.8-3,6.23-6,12.49-9.25,18.64-2.87,5.53-3.92,11.45-4.3,17.57-.13,2.09,1,2.91,2.94,2.18,2.11-.81,4.17-2.13,6.65-1,.41.18,1.23-.51,1.95-.84l1.18,1.65.35-.12a13.11,13.11,0,0,1-.24-2c.07-1.82,1.43-2.77,2.79-3.53A140.86,140.86,0,0,0,659,217.34c.25-.2.67-.52.85-.43,2,.93,3.41-.65,5.1-1a2.19,2.19,0,0,0,1.88-2.92l-1.27-.2c3-2.59,6.12-5.11,9-7.87,3.3-3.15,6.39-6.51,9.57-9.79.81-.84,1.42-1.94,3-1.59.35.08.89-.65,1.62-1.22l-1.62-.25,14.45-15.26c-.12-2.33,2.21-3.38,4-4.62,2.13-1.47,4.74-.67,7.12-.72.82,0,1.6,1.2,2.51,1.65a32.6,32.6,0,0,0,3.65,1.31c.55,1.74,3.59,2.93,2.49,6l2.88,1.23c-4.05,4.6-7.89,8.87-11.62,13.25a48.51,48.51,0,0,0-2.64,4.19c-1.09,1.59-2.57,3-3.36,4.68a14.56,14.56,0,0,1-3.56,4.35.83.83,0,0,0,0,.74c.69,1.2-.18,1.57-.92,2.22a6.51,6.51,0,0,0-1.21,2.13c-.11.22,0,.62-.1.76-1.56,1.45-2.06,3.45-2.89,5.3-2.29,5-4.28,10.17-4.94,15.7-.21,1.81,1,2.8,2.85,2.87,3.72.16,6.73-2,10.13-2.93a2.31,2.31,0,0,0,1.12-1.09c.72-1.26,1.54-1.21,2.64-.49.46.3,1.38.53,1.7.28a8.53,8.53,0,0,0,1.56-2.06c.35-.51.66-1.05,1-1.58l.61,1.68,2.61-1.26-.21-.56Zm75.33-24.7a13.21,13.21,0,0,0-2,1.12q-5.17,4.08-10.28,8.25a24.56,24.56,0,0,0-3,2.9,1.84,1.84,0,0,0-.09,1.61c.11.24,1,.25,1.45.16a3.12,3.12,0,0,0,1.22-.64c2.66-1.9,5.37-3.73,7.93-5.75,2.1-1.65,4-3.51,6-5.36a1.86,1.86,0,0,0,.37-1.58C790.58,205.75,789.82,205.63,789.18,205.35ZM358.6,173.12l.6-.1c1-2.53,2-5.05,2.92-7.6.11-.3,0-.95-.24-1a5.26,5.26,0,0,0-2.05-.48c-.17,0-.42.73-.54,1.15-.35,1.16-.65,2.33-1,3.5l-.63-.11C358,170,358.3,171.56,358.6,173.12Zm496.22,51.64.79.33a14.48,14.48,0,0,0,2.67-3c.32-.61-.28-1.79-.7-2.58-.08-.16-1.69.09-1.79.4A45.31,45.31,0,0,0,854.82,224.76Zm-497.35-61a12.66,12.66,0,0,0-1.41,2.29c-.08.26.51.72.79,1.08a10.21,10.21,0,0,0,1.45-1.65C358.42,165.31,358,164.76,357.47,163.79ZM772,221.3l-.74-.94c-.59.54-1.19,1.07-1.74,1.65a2.87,2.87,0,0,0,.51.64C770.73,222.23,771.37,221.76,772,221.3Z"/><path class="cls-1" d="M242.67,150.87c2.73,2.39,3.94,2.29,5.3,0,.62-1,.49-1.69-.85-2-2.39-.56-2.47-1-.8-2.73,1.52-1.6,3-3.25,4.47-4.87a2.92,2.92,0,0,1,4.13-.62c1.64,1.11,2.47-.11,3.34-1.08s.73-1.84-.51-2.58a1.75,1.75,0,0,1-.43-1.69,13.87,13.87,0,0,1,2.29-3.46c2.59-2.69,5.28-5.28,8-7.85,1.92-1.81,3.86-3.61,5.94-5.21.53-.41,1.66-.1,2.51,0,.48,0,1.17.54,1.36.37a1.93,1.93,0,0,0,.71-1.51c-.5-2,.64-3.18,1.88-4.35.3-.28.85-.6,1.17-.5,2.1.65,1.81-.56,1.76-1.93a3.31,3.31,0,0,1,.87-2.23c5.71-5.72,11.4-11.45,17.27-17,2.3-2.18,5-3.9,7.54-5.88A6.08,6.08,0,0,0,310,84.08c1.57-2.69,3.64-3.73,6.67-3.26,2.24.34,2.52-.09,2.1-2.29a3.65,3.65,0,0,1,.63-2.87,65.84,65.84,0,0,1,6.93-5.75c.63-.46,1.81-.15,2.88-.2.49-4.47,4.51-6.17,7.64-8.37,3.8-2.66,7.53-5.36,11.07-8.36,1.37-1.17,3.29-1.66,4.9-2.57a9.86,9.86,0,0,0,2.66-2,10.9,10.9,0,0,1,5.4-3.61c1.92-.55,3.67-2.15,5.57-2.27,3.9-.23,4.82-4.17,7.74-5.47a19.87,19.87,0,0,0,1.88-1.1c.08,2.44.53,4.41-1.79,5.93a73.29,73.29,0,0,0-6.69,5.56,2.17,2.17,0,0,0-.66.73c-1.63,4.23-5.14,6.7-8.58,9.25a8.54,8.54,0,0,0-1.42,1.1c-2.39,2.69-4.62,5.53-7.13,8.11-3.22,3.29-6.7,6.31-10,9.56-4.06,4.06-7.88,8.37-12,12.31-4,3.75-7.22,8.14-11.77,11.39-3.62,2.59-6.37,6.4-9.57,9.61-4.55,4.57-9.17,9.07-13.72,13.64-3.3,3.31-6.49,6.73-9.78,10-2.21,2.21-4.59,4.25-6.75,6.51-1.6,1.67-2.92,3.61-4.47,5.34a10.7,10.7,0,0,1-2.94,2.48,6.84,6.84,0,0,0-2.37,2.41c-2.38,3.26-4.78,6.72-7.93,9.12a35.45,35.45,0,0,0-5.25,5.29c-2.66,3.06-5.37,6.08-8.07,9.11-1,1.1-2,2.18-3,3.22-1.9,1.94-3.91,3.78-5.74,5.79-5.53,6.06-11,12.19-16.49,18.27-2.63,2.9-5.3,5.76-7.95,8.64a5,5,0,0,0-.87,1.1c-1.58,3.5-4.87,5.42-7.37,8.07a85,85,0,0,0-5.5,7.1c-.56.74-1,1.56-1.63,2.25-3.17,3.6-6.52,7-9.52,10.77-1.93,2.41-3.29,5.27-5,7.85-1,1.43-2.26,2.65-3.28,4-3.53,4.85-7,9.75-10.54,14.6-.7,1-1.71,1.71-2.39,2.68-2.23,3.15-4.37,6.37-6.55,9.55a46.25,46.25,0,0,1-3.48,4.88c-3.33,3.69-5.5,8.12-8.25,12.18a8.7,8.7,0,0,1-3.24,2.74c-1.14.56-1.94,1-2,2.39,0,1.73-1.35,2.33-2.73,2.79s-2.78.72-3.92-.5a5.66,5.66,0,0,1-1.46-2.12,17.28,17.28,0,0,0-4.13-7c-1.33-1.53-2.65-2.31-4.67-2-2.2.34-2.86-.25-2.66-2.48.38-4.2.17-8.5,2-12.49.25-.55-.18-1.4-.2-2.11,0-.5,0-1.17.26-1.45s.92.08,1.41.09,1.15-.05,1.73-.09c-.15-.63-.11-1.6-.5-1.83-2.34-1.35-2.62-3.27-2.13-5.69.36-1.75.3-3.59.54-5.37.4-3,.88-6,1.35-9,0-.28.3-.52.8-1.36.47,1.27.8,2.06,1,2.88.15.5,0,1.17.3,1.54a2.15,2.15,0,0,0,1.53.94c.37,0,.82-.86,1-1.41.3-1.05.34-2.17.61-3.23.33-1.23-.94-4.53-2.5-5.8-.18.65-.3,1.19-.47,1.7s-.37,1-.63,1.67c-1.09-1.36-1.31-5.11-.49-6s1.53-1,2.25.14a9.08,9.08,0,0,0,1.25,1.31c.65-.63,1.75-1.2,1.84-1.91.23-1.66,1.48-3.27.13-5.15-.47-.66-.12-2.4.46-3.2,1.12-1.54.9-3.12.9-4.77,0-3.35,0-6.71.1-10.06a45.69,45.69,0,0,1,.38-7,37.63,37.63,0,0,1,2-5.78,3.76,3.76,0,0,0,.44-1.46c-.3-3.1-.89-6.18-1-9.28-.1-3.33.32-6.67.37-10a28.68,28.68,0,0,0-.61-3.49,23.54,23.54,0,0,1-.11-3.46c0-1.22.33-2.44.25-3.65a9.37,9.37,0,0,0-.75-3.49,5.94,5.94,0,0,0-2.3-2.74c-.65-.33-2,.35-2.82.82-3.84,2.08-6.43,5.61-9.12,8.8-2.91,3.44-5.73,6.79-9.49,9.32a13.14,13.14,0,0,0-2,2.27c-.85,1-1.67,1.83-3.24,1.44-1.35-.33-1.65.72-1.37,1.75A3.26,3.26,0,0,1,105,195c-3,3.25-6,6.59-8.9,9.91-.81.91-1.47,1.64-2.84.72s-2.29-.38-2.15,1.23c.2,2.36-1,3.9-2.36,5.5-.79.94-1.47,1.33-2.36.08-.24-.34-.87-.41-1.32-.61,0,.48-.22,1,0,1.42,1,2.39,0,4.37-2.77,5.05-.84.21-1.65.51-2.49.73a2.14,2.14,0,0,0-1.72,2.87,3.93,3.93,0,0,1-1.45,3.9,67.38,67.38,0,0,0-5.47,5.87,11.22,11.22,0,0,1-6.36,3.89c-1.1.26-1.32.76-1.31,1.81,0,2.73-.39,3-2.91,3.56-.85.19-1.48,1.18-2.3,1.67s-2,1.24-2.39,1c-1.11-.87-.34-1.89.43-2.71a3.43,3.43,0,0,1,.85-.85c3.38-1.71,4.42-5.15,6.09-8.13.07-.12.11-.32.2-.34,2.86-.75,3.23-4.11,5.66-5.38A3.41,3.41,0,0,0,70.84,224c.13-3.09,2.38-4.43,4.42-6,.31-.24.94-.45.94-.67,0-3.48,4.61-3.66,4.93-6.91,0-.33.76-.53,1-.89a8.48,8.48,0,0,0,1.67-2.92c.52-3.45.72-3.69,4-4.3a5.15,5.15,0,0,0,2.38-1.57c.89-.88,1.5-2.06,2.41-2.92,1.52-1.45,3.25-2.5,3.66-5,.32-1.91,2.27-2.48,4.64-2.09.09-.1.27-.22.25-.28-1.2-4.44,2-6.69,4.63-9.16.4-.38,1.12-.39,1.63-.68a4,4,0,0,0,1.5-1.17c1-1.69,1.63-3.72,2.92-5.15,2.37-2.63,3.81-6.07,6.95-8.06.46-.29,1-1.23.85-1.6-.77-1.94.88-2.61,1.72-3.69a2.83,2.83,0,0,1,3.67-1c1.18.46,2.23-.11,1.79-1.66s.35-1.87,1.58-2.13,2.52-.74,3.8-1a4.89,4.89,0,0,1,2.51-.21,11.93,11.93,0,0,1,7.18,6.61,48.76,48.76,0,0,1,3.4,18.56,8.82,8.82,0,0,0,.35,3.18c1,2.58.36,5.13.18,7.71a54.79,54.79,0,0,0-.1,6c.18,4.66.53,9.3.66,14a57,57,0,0,1-.33,6.78c-.31,3.46-.76,6.9-1.09,10.35-.1,1.13.35,2.48-.12,3.37-1.49,2.84-.45,5.65-.49,8.5-.08,5.25-.56,10.5-1.09,15.73-.29,2.91,1.1,5.31,1.86,7.9.11.39,1.7.83,2,.58.52-.51,1-1.69.8-2.21-1.38-2.79-1.38-3.07,1.17-4.81a4.42,4.42,0,0,0,1.16-1.08,1.69,1.69,0,0,1,2.73-.41c1.27.91,2,.54,2.45-1a18.16,18.16,0,0,1,1.15-2.29,8.27,8.27,0,0,0,.33-1.41,5.68,5.68,0,0,0-1.58.29c-.52.27-.87.87-1.4,1.12a3.78,3.78,0,0,1-1.44.08c0-.49-.18-1.3.05-1.44,3.07-1.93,4.17-5.25,6-8.07a8.74,8.74,0,0,1,3.35-2.62c.49-.25,1.5.31,2.17.68s1.19,1.38,1.65,1.3a2.33,2.33,0,0,0,1.53-1.55,2.88,2.88,0,0,0-.68-2.29c-2.38-2.27-2.34-2.12-.13-4.48,1.47-1.56,3.34-1.43,5.11-1.91a8.08,8.08,0,0,0,2.76-1.68,1.48,1.48,0,0,0,0-1.43c-.18-.25-.94-.19-1.39-.08a18,18,0,0,0-2.12.78l-.61-.53a10.72,10.72,0,0,1,1.67-2.81,60.8,60.8,0,0,1,5.94-4.65c.79-.55,2-.52,2.8-1a31.36,31.36,0,0,0,3.71-2.8,1.19,1.19,0,0,0-.15-1,2.78,2.78,0,0,0-1.46,0,17.7,17.7,0,0,0-2.21.87c.7-3.32,3.2-5.74,5.41-5.66a.61.61,0,0,1,.12.16c.18,1-.54,2.67,1.1,2.73.78,0,1.88-1.12,2.36-2,.63-1.16.87-2.6-.62-3.55-.38-.24-.79-.44-1.17-.65,1-2.17,1.78-2.33,4.2-.85.5-2.5,2.73-2.74,4.57-3.32s2.7-1.36,2.15-3.31a1.75,1.75,0,0,1,0-.79,31.64,31.64,0,0,1,5.31-4.45,4.67,4.67,0,0,0,4.15-3.71,4.28,4.28,0,0,1,1.1-1.5c.47-.51,1-.94,1.52-1.41l-1.57-1.59c-.13-.13-.25-.28-.65-.72a13,13,0,0,0,2-.37,9.37,9.37,0,0,0,1.5-.79c-.36-.41-.7-.83-1.08-1.21a12.35,12.35,0,0,0-1.21-.76l3.87-2.85a8.25,8.25,0,0,0,.92,1.14c.33.27.92.71,1.08.6a2.63,2.63,0,0,0,.81-1.22,1.74,1.74,0,0,0-.06-1c-.83-3.06-.27-3.81,3.09-6.14a12.44,12.44,0,0,0,2.07-2.15c.3-.34.4-.88.74-1.16,2.12-1.78,4.24-3.58,6.48-5.2a2.64,2.64,0,0,1,2.16.07c2.27,1,3.4.84,4.75-1.14.08-.11.12-.29.22-.32,2.86-1,3.59-3.86,4.9-6.09.93-1.59,1.16-3.58,1.66-5.41A16.76,16.76,0,0,0,242.67,150.87Zm-93.4,109,.93.72,1.85-2.55-.81-.62C150.58,258.25,149.92,259.06,149.27,259.88Z"/><path class="cls-1" d="M318.19,161.53a11.88,11.88,0,0,1-2.62-1.48,24.19,24.19,0,0,1-6-10,3.33,3.33,0,0,0-1.7-1.87c-2.79-1.1-3.3-2.66-1.07-4.64,4.88-4.33,9.88-8.54,14.87-12.74A16.65,16.65,0,0,1,324,129.6c1.61-.93,3.14-2,4.77-2.87,2.68-1.47,5.42-2.85,8.13-4.27s5.17-2.72,7.75-4.1c1.53-.82,3-1.73,4.56-2.49a2,2,0,0,1,3,1c.59,1.23,1.24,1.66,2.41.57.27-.25.92-.1,1.4-.13-.06.52-.07,1.06-.17,1.58-.16.81-.34,1.63-.56,2.43a5.86,5.86,0,0,1-.74,1.92,34,34,0,0,1-6.31,6.37c-.28.21-.93,0-1.41-.09a4.47,4.47,0,0,1,.24-1.29c.17-.33.6-.52.86-.82.49-.57.95-1.18,1.42-1.77-1.08-.16-2.34-.75-3.18-.38a17.77,17.77,0,0,0-4.23,3c-.35.3-.49,1.52-.25,1.69a3.8,3.8,0,0,0,2.05.56,7.77,7.77,0,0,0,1.82-.3,6.31,6.31,0,0,1-.16,1.87,15.32,15.32,0,0,1-1.83,3.44c-1.64,2.17-3.39,4.26-5.2,6.29-1.27,1.43-2.78,2.65-4.09,4.05-1.85,2-3.55,4.14-5.45,6.09-2.77,2.87-5.64,5.65-8.52,8.41A10.25,10.25,0,0,1,318.19,161.53Z"/><path class="cls-1" d="M751.24,122c1.57,2.12,2.42,1.27,3.6.26s2-3.26,4.32-3l1.61.17c.45-.48.9-1.33,1.39-1.36s1.06.74,1.48,1.26c.73.93,1.36,1.93,2.12,3-2.36,1.39-1.33,5.74-5,5.44a27.62,27.62,0,0,1-1,4.38c-.78,1.93-1.74,2.18-3.89,1.1a31.3,31.3,0,0,0-1.2,4.5c-.19,1.68-1.24,1.8-2,1.76-1.71,2.92-3.11,5.65-4.84,8.16a25.41,25.41,0,0,1-8.08,7.56c-1,.55-1.45.6-2.16-.29a14.27,14.27,0,0,0-2.18-1.82v-2.77l2-1.17a4.08,4.08,0,0,0-.34-.52c-2.73.43-3.83-.71-3.72-3.46,0-.47-1.21-1.15-2-1.44a6,6,0,0,0-2.2.13c.21-3,1.88-4.89,3.89-6.53,1.72-1.41,3.67-2.56,5.4-4,2.24-1.83,4.32-3.87,6.59-5.66a9.31,9.31,0,0,1,2.86-1C747.18,124.14,750.71,124.52,751.24,122Z"/><path class="cls-1" d="M541,137.1a9.09,9.09,0,0,0-.08,1.8c.15.58.29,1.42.7,1.62s1.22-.08,1.83-.23,1.38-.51,2.1-.62a8.83,8.83,0,0,1,1.84.09,15,15,0,0,0,0-2.42c-.1-.68-.68-1.31-.68-2,0-1,.44-1.79,1.81-1.33a1.9,1.9,0,0,0,1.7-.38,1.79,1.79,0,0,0-.29-1.66c-.83-.92-.38-1.58.37-1.93a11.26,11.26,0,0,1,2.85-.73c.51-.1,1.29.18,1.54-.09,1.57-1.75,3.64-.93,5.47-1.08,2.46-.21,3.21-.64,3.79-3.14.52-2.2,1.5-2.64,3.41-1.6,1,.55,1.43,1.1.59,2.17a1.87,1.87,0,0,0,.3,3c.35.27.38.95.55,1.44a6,6,0,0,1-1.68.12c-.41-.08-.71-.63-1.12-.8a10,10,0,0,0-1.68-.37,6.38,6.38,0,0,0,.33,2c.38.75,1.65,1.67,1.49,2a16.7,16.7,0,0,1-2.32,2.63,13.3,13.3,0,0,0-1.91,2.54c-.72,1.45-1.08,3.12-3.37,2.59a1.75,1.75,0,0,0-1.47.93c-.55,3-3,4.82-4.74,7-1.92,2.47-4.13,5-6.8,6.53-3.13,1.73-5,4.52-7.57,6.71-1,.87-2.1,1.34-3.12.07s-.44-2,.62-2.87a8.48,8.48,0,0,0,1.52-2c.71-1.08,1.42-2.15,2.05-3.28a5.77,5.77,0,0,0,.38-1.47c-.47.1-1.05.06-1.37.34-1.2,1-2.3,2.21-3.49,3.28a6.89,6.89,0,0,1-1.46.82c-.16-.51-.34-1-.5-1.54a15.34,15.34,0,0,0-1-3.24c-.67-1.12-1-2.23.35-2.65,3.46-1.13,4-4.23,5.07-7A11.1,11.1,0,0,1,541,137.1Z"/><path class="cls-1" d="M677,234.75l-1.37,1.89-1.8-2.29Z"/><path class="cls-1" d="M573.26,120c.47.6.91.94,1,1.33,0,.23-.66.84-.85.77a2.21,2.21,0,0,1-1.06-1C572.26,121,572.79,120.55,573.26,120Z"/></g></svg>