<?xml version="1.0" encoding="utf-8"?>
<!-- Generator: Adobe Illustrator 22.0.0, SVG Export Plug-In . SVG Version: 6.00 Build 0)  -->
<svg version="1.1" id="Layer_1" xmlns="http://www.w3.org/2000/svg" xmlns:xlink="http://www.w3.org/1999/xlink" x="0px" y="0px"
	 viewBox="0 0 1133.9 1133.9" style="enable-background:new 0 0 1133.9 1133.9;" xml:space="preserve">
<style type="text/css">
	.st0{fill:#010101;}
	.st1{fill-rule:evenodd;clip-rule:evenodd;}
</style>
<path class="st0" d="M784.2,782.4c-5.8-1.8-11.1-2.4-16.1-6.5c5.4-9.4,9.7-20.1,13-30c4.4-12.9,4-28.1,6.6-41.6
	c2.5-13.2,1.9-28.7-0.2-41.9c-2.3-14.5-5.3-27.9-6.2-42.6c-0.3-5-2.5-17.1-6.7-24.9c-2.5-21.7-13.9-43-23.8-61.7
	c-5.4-10.1-14.5-17.1-20.3-27c-6.3-10.9-12.6-17.5-23-24.4c-19.1-12.8-39.9-21.1-60-31.9c-34.9-18.8-75.3-21.4-109.2-41.8
	c-1.4-2.8-2.3-5.9-3.7-8.9c3.7,2.5,9,5.2,13.3,6.2c-2.8-3.4-5.2-7.2-8.4-10.4c4.8-0.6,9.6,0.9,14,1.8c-1.8-3.3-3.6-6.3-5-9.5
	c17.8,4.3,35.4,9.3,53.5,11.8c39.5,5.4,72.7-9.2,110.1-18.2c12.7-3,43.4-3.2,31.9-24.8c-6.7-12.6-21.3-19.7-33.2-27.4
	c13.2-4.7,28.8-13.8,14.8-26.3c-11.6-10.4-32.4-12.6-47-15.3c-17.5-3.2-35.8-5.5-53.6-5.3c-34.1,0.5-63.8,19.2-94.8,31.7
	c-4.8-5.1-10.9-9.3-15.8-13.8c-20.5-18.8-73.7-54.9-99.1-26.7c-13.9-5-31.3-0.3-44.7,2.9c-15.9,3.9-27.4,13.8-25.7,30.6
	c-4.6,0.4-3.6,18.8-3,23.3c0.6,4.3,2.2,8.1,4.6,11.4c-9.8,27.4,25,43.5,35.6,63.4c0,0,0,0.1,0.1,0.1c-5.5,9-5.6,19-2.6,28.7
	c-5,8.5-5.9,16.2-5.3,26.2c0.3,5.4-1.2,11.6-0.9,16.4c0.3,5.2,2.4,8.7,2.3,13.9c-0.2,5.4-1.9,10.4-2.2,16c-0.4,7.5,0.5,9.8,3.8,15.5
	c5.5,9.5-0.4,19.7,2.2,29.9c1.8,7.3,6.7,10.2,5.7,18.7c-0.7,5.8-3.7,11.1-2.6,17.6c0.5,0.1,1,0.2,1.5,0.3c-0.2,1.2,0.3,3.1,0.3,4.3
	c7.8,2,7.5,15.5,7.2,22.4c7.3-1.6,6,20.4,9.4,26.4c3,5.2,5.4,7,7.3,13c1.5,4.7,2,11.8,8.1,8.4c0.6,2.1,1.9,4.7,3.6,6.4
	c-1.1,11.9-5.9,23-6.3,35.2c-0.4,13.8-3.2,24.8-5.6,38.3c-2.3,12.9-10.1,23.7-14.9,35.8c-2.1,5.3-4.8,10-7.5,15
	c-2.3,4.2-7.8,9.8-9.2,13.9c-4.4,12.4,11.1,9.9,21.6,7.3c2.7,1.5,6,3.2,8.6,3.5c5,0.5,10-1.7,14.2-4.3c5.3-3.3,13.7-8.6,19.1-14.4
	c9.2-1.3,20.6-17.4,24.9-22.6c4.2-5.1,7-12.2,10.1-18.1c1.4-2.7,3-5,4.5-7.3c0.2,1.9,0.2,3.9,0.3,6c2.9,0.5,5.7,1.1,8.7,1.2
	c0.6,6.2,6,4.6,9.2,7.3c3.9,3.3,3.3,5.1,8.4,7.5c4.2,2,9.4,3.7,14.3,3.8c2.9,10.5,10.7,22.2,19.4,27.7c-11.1,3.1-21.5,5.2-33.5,4.4
	c-13.8-0.8-28.5-1.8-42.2,0.9c-9.5,1.9-23.5,8.8-31.5,14.5c-5.5,3.9-6.1,8.8-8.8,14.6c-2.1,4.6-8.7,10.4-9.2,15.3
	c-1.2,12.2,15.4,11.3,27,9.6c4.7,1.9,9.6,5,14.3,5.7c8.1,1.3,16.9,2.1,25.1,1c8.4-1,15.3-6.6,23.5-8.1c7.9-1.4,15.4,1.3,23,2.7
	c16.8,3,35.5,0.9,52.6,0.9c8.4,0,16.5,0.5,24.8,0.9c8.7,0.4,15.7-3.3,24.1-4.8c14.8-2.8,32.6,0.1,37.4-13.8c1.8,0.7,3.5,1.5,4.9,2.3
	c2.7,1.4,5.9,6.1,8.9,6.8c2.4,0.6,3.7-2,5.5-1.7c2.4,0.4,2.8,2,4.7,2.6c3.8,1.1,8.8,1.4,12.4,2.9c3.3-6.6,14.1-2.8,19.8-4.7
	c-0.8-0.8-1.7-3.5-2.6-4.4c5.3-0.4,9.8,0.5,13.5-3.9c-2.3-4.4,8-8.3,11.3-10.4c1.4-0.9,1.9-2.6,3.8-3.5c1.6-0.7,3.6,0.2,5.4-0.7
	c2.9-1.4,3.7-3.5,6-5.8c2-1.9,3.8-4.1,5.8-5.6c1.8-1.3,0.3-2,3.6-2.9c1.9-0.5,4,1.9,5.9,1.1c3.4-1.6,8-13.5,8.6-17.6
	c2.6-1.3,5-3.2,7.8-4.1C790.8,790.7,792.3,785,784.2,782.4z"/>
</svg>
