<?xml version="1.0" encoding="utf-8"?>
<!-- Generator: Adobe Illustrator 22.0.0, SVG Export Plug-In . SVG Version: 6.00 Build 0)  -->
<svg version="1.1" id="Layer_1" xmlns="http://www.w3.org/2000/svg" xmlns:xlink="http://www.w3.org/1999/xlink" x="0px" y="0px"
	 viewBox="0 0 1133.9 1133.9" style="enable-background:new 0 0 1133.9 1133.9;" xml:space="preserve">
<style type="text/css">
	.st0{fill:#010101;}
	.st1{fill-rule:evenodd;clip-rule:evenodd;}
</style>
<g>
	<path class="st0" d="M833.3,816.4c-6.1,0.2-10.3-4.7-16.4-4.8c0.1-0.6,0.6-0.6,0.7-1.2c-3.1-0.4-9.5-1.8-14.3-1.6
		c3.2-8.1,2.2-18.2,4.3-26.8c2.2-8.9,5.1-15.8,5.2-25.3c0-9.5-0.6-18.8-0.8-28.5c-0.1-9.4-0.4-18.3-1.8-27.2
		c-0.1-0.5-0.1-0.9-0.2-1.4l0.3,0c2.8-26.7-4.9-53.6-22.9-78.9c-13.9-19.6-32-35-52.3-48.3c-20.4-13.4-39.9-28.3-63.2-37.1
		c-21.2-7.9-43.4-15.7-65.4-21.1c-21.1-5.2-40.7-4.5-61.4-0.3c-2.1-1.3-4.3-2.6-6.7-3.5c-5.2-1.9-11.9-3.8-17.4-4.7
		c-6.3-1-12.8-0.2-18.8-0.1c-4.5,0.1-9.6-1.2-13.9-0.1c-3.5-6.7-6.8-15.8-8.3-19.9c-3.3-9.2-8.1-17.8-13.8-25.9
		c5.4-11,9.2-22.5,13.8-33.8c5-12.4,12.3-23.3,19.1-34.7c15.5-25.8,19.5-55.6,25.3-84.4c2.2-10.8,7.7-31-0.8-40.6
		c-8-9-19.6,1.9-25.3,8c-9.6,10.3-17.2,22.2-26.7,32.7c-9.8,10.8-20.7,20.7-29.4,32.4c-16.7,22.4-20.8,49-25.3,75.5
		c-10.9-5.8-10.6-26.8-14.2-37.3c-2.1-6.2-10.4-30.2-14.7-36.1c-8.5-11.5-20.5-19.8-29.2-31.2c-8.5-11.3-19.7-19-28.8-29.5
		c-6.8-7.9-15.8-24.5-29.1-15.7c-2,14.1,1.9,31.3,5.1,45.1c3.1,13.3,7.8,26.1,11.8,39.2c3.8,12.6,7.1,25.4,13,37.3
		c6.6,13.3,23.8,36.2,29.8,57.4c-6.5,6.2-15.4,10.2-21.1,17.5c-7.4,9.4-8.6,24.2-6.8,35.4c0.7,4.4-6.2,20.2-8.7,21.9
		c-6.5,4.3-10,8.7-12.1,16.1c-2,6.9,0.8,15.2,6.5,22.7c-5.1,25.5,14.8,35.8,26.6,40.4c-3.3,9.2-4.6,38.9-3.7,45.2
		c2,13.3,0.1,22.3,5.7,34.5c10.3,22.3,25.3,41.3,41.6,59.9c5.3,6,13.4,17.4,22.6,21.4c0.9,13.1,6.4,27.4,1.4,39.9
		c-4.9,12.2-23,12.8-33.5,18.9c-5.5,3.2-10,9.2-14.4,13.7c3.2,2.5,7.5,3.6,11.9,4.1c0.1,8.3,26.1,7.4,38.1,4.7
		c-1.8,3.4-4.1,7-6.6,9.4c-2.9,2.8-9.2,4.8-8.7,10c0.7,7.2,12.2,7,21,5.4c5.8,5.2,20.9,5.2,29.2,1.5c12.5,8.7,27.6-6.3,33-15.9
		c4.3-7.5,6.8-13.5,12.4-20.4c4.2-5.2,7.6-9.5,12.6-14.1c6.5-6,8.7-11.5,9.4-19.6c5.6,1.4,11.8,1.7,16.9,2.9
		c7.8,1.9,14.8,7.2,22.7,9.1c17.7,4.2,35.6,6.8,52.9,12.5c2.5,0.8,5,1.8,7.5,2.8c-5.3,2.1-12.2,2.3-17.3,2.4
		c-14.1,0.1-28.4-3.6-42.7-2.7c-5.3,0.3-15.1,0.4-19.9,2.9c-2.7,1.4-8.5,8-10.3,11.1v0c-7.4,3.8-17.3,12.5-18,17.3
		c-1.2,7.5,12.1,11.4,21.2,11.4c-0.1,0.8,0.1,1.6,0.6,2.5c1.9,3.1,7.1,2,10,2c6.9-0.1,13.5-1.8,20.4-1.8c7.3,0,14.7,1.2,22,0.5
		c7.9-0.8,15.2-2.6,23.2-2.2c29.6,1.5,58-2.7,87.4-2.4c7,0.1,16.1,1.3,21.9-3.2c3.7-2.9,4.7-6.7,5.6-10.7c4.5,0.6,9.1,0.7,13.6,0.4
		c3.2-0.2,26.1,2.9,22.6-4c6.6,4.6,17.5-0.2,23.8-2.9c4.7-2,20.2-5.1,21.4-10.5c-0.7,0.2-1.9,0.3-2.7,0.5
		C808.4,825.2,823.6,824.6,833.3,816.4z M443.7,822c0.5-8.1-0.2-15.8,0.1-24.6c2.1,1.6,4.3,3.3,6.5,4.4c2.2,1,4.8,1.2,7.3,1.4
		C456.6,811.2,450.1,817.1,443.7,822z"/>
</g>
</svg>
