<?xml version="1.0" encoding="utf-8"?>
<!-- Generator: Adobe Illustrator 22.0.0, SVG Export Plug-In . SVG Version: 6.00 Build 0)  -->
<svg version="1.1" id="Layer_1" xmlns="http://www.w3.org/2000/svg" xmlns:xlink="http://www.w3.org/1999/xlink" x="0px" y="0px"
	 viewBox="0 0 1133.9 1133.9" style="enable-background:new 0 0 1133.9 1133.9;" xml:space="preserve">
<style type="text/css">
	.st0{fill:#010101;}
	.st1{fill-rule:evenodd;clip-rule:evenodd;}
</style>
<path d="M705.6,342.5c-3.3-15.9-5-31.6-5.2-47c47.3,12.9,90.5,52.5,115.5,107.6C754,350.7,705.6,342.5,705.6,342.5z M892.7,660.9
	C892.7,660.9,892.7,660.9,892.7,660.9c-6-6.1-12.6-11.6-19.7-16.5c-4.8,0.5-9.6,0.8-14.5,0.8c-25.2,0-48.8-6.9-69.1-18.8
	c25.1-19.8,48.3-41.9,69.2-66c-30.9-17.4-69.2-10.6-69.2-10.6c23.2-18.4,78.1-2.3,83-0.8c7.1,0,15.7-0.5,22.8-2.3
	c15.1-3.8,35.7-14.3,31.9-34c-3.7-19.5-45.1-50-47.3-52c-11-11.9-26.7-19.4-44.2-19.4c-2.2,0-4.4,0.1-6.5,0.4
	c-45.8-54.3-93.8-75.9-119.8-84.2c0,0.1-59.2-18.5-102-3.1c10.4,16.9,23.1,33.2,38.1,48.2c40.5,40.6,89.8,64.7,137.1,71
	c-1.7,3.2-3.1,6.7-4.2,10.2c0,0,0,0-0.1,0c-70.9,38-152,59.5-238.1,59.5c-13.8,0-27.4-0.5-40.9-1.6c-6.7-1.5-13.7-2.3-20.9-2.3
	c-19.1,0-36.9,5.5-51.9,15c0,0-17.9,9.8-31.2,31.2c0,0-2.8-24.1,17.7-45.6c-7.3-5-16-7.9-25.5-7.9c-25,0-45.3,20.3-45.3,45.3
	c0,23.1,17.3,42.2,39.7,45c-0.7,4.8-1.1,9.7-1.1,14.6c0,7.1,0.8,14,2.2,20.7c-18.2,51.8-66.4,89.5-123.6,92.5l-52.7,78
	c0,0,12,14.2,30.2,9c22.4-6.4,50.6-29.7,63-61.5c16.9,6.7,35.6,10.7,55.1,12.8c39.4,4.3,104.4-3.9,152.9-54.7
	c0.1,0,55.9-58.7,37.5-128.2c0,0,46.5,60.5-1.2,124.7c59.6-7.9,115.8-26.1,167-52.9c-18.6-22.4-12.4-52.6-12.4-52.6
	c18.6,27.5,36.1,39.3,36.2,39.3c21.9,14.9,48.3,23.7,76.9,23.7c16.6,0,32.6-3,47.3-8.4c10.3,9.5,19.2,20.6,26.2,32.9
	c3.9,1.2,8.1,1.9,12.4,1.9c9.4,0,18-3.2,24.9-8.5C915.4,688.7,905.3,673.6,892.7,660.9C892.7,660.9,892.7,660.9,892.7,660.9z"/>
</svg>
