<?xml version="1.0" encoding="utf-8"?>
<!-- Generator: Adobe Illustrator 22.0.0, SVG Export Plug-In . SVG Version: 6.00 Build 0)  -->
<svg version="1.1" id="Layer_1" xmlns="http://www.w3.org/2000/svg" xmlns:xlink="http://www.w3.org/1999/xlink" x="0px" y="0px"
	 viewBox="0 0 1133.9 1133.9" style="enable-background:new 0 0 1133.9 1133.9;" xml:space="preserve">
<style type="text/css">
	.st0{fill:#010101;}
	.st1{fill-rule:evenodd;clip-rule:evenodd;}
</style>
<path class="st0" d="M899.5,561c13.6-40.2-24.2-87.1-65-89.9c-0.1-5.7,0-11.4,0.2-17.1c11.8-22.3,18-47.6,23.6-71.3
	c3.5-15.1,7.2-29.1,7.1-45.2c-0.1-16.9-4.7-25.7-9.2-41c-15.8-3-25,31.9-29.6,62.8c-3.2-18.2-7.3-37.1-15.2-50.9
	c-18.1-31.6-32.9,3-35.2,23.1c-2.9,25.4-11.7,56.5-7.4,81.7c3.6,21.1,13.1,38.7,18.3,58.5c-28.5,8.6-48.5,29.2-80.9,13.7
	c-22.9-11-37-35.6-56.1-52c-21.9-18.8-47.2-36.4-74.4-46.6c-30-11.3-56.7-21.6-88.9-23.9c-24.1-1.7-60.8,2.5-76.3,24.9
	c-17.7-5.1-40.3,2.4-55.3,8.7c1.1,1.5,1.8,4.9,3.2,6.5c-11.7-0.7-17.4,8.2-27.8,9.3c0.4,0.2,3.2,1.8,3.3,1.8
	c-7.8,4.6-18.7,3-28.6,3.9c0.8,1.3,1.8,3.3,2.8,4.7c-7.8,0.6-16.2,0.1-24.1,0.6c3.1,10.6,15.2,23.7,25.8,28.2
	c-7.1,7.9,22.7,18.9,42.2,23.2c-3.9,18.5-0.1,36.9,6.8,54.9c-17.4-5.3-34.5-14.7-51.7-11.7c-29.9,5.1-39.7,80.6-48.8,105.3
	c-7.2,19.6-48.2,85.2-18,88.4c-0.9,7.1-1.2,14.7-2.3,20.3c-2.6,14.5-0.7,20.7,16.6,21c-1.4,0.8-3.7,2.9-4.6,3.3
	c49.4,23.3,70.6-78,82.2-117.7c2.6-8.9,9.2-20.2,13.5-31.1c26.9,13.1,62.1,22.4,91.3,24.5c21.2,1.5,51.9-1.2,68-17.9
	c3.6,6.9,7.8,13.3,14.3,17.8c1.2-1,2.8-2,4.1-3.1c4.7,12.6,14.4,17.2,23.8,21.8c-2,11.7-0.4,28.2-2.4,38.4
	c-2.6,13.7-5.9,31.1-5.9,44.5c0.1,30.8-10.1,59.1,2.2,89c2.1-0.5,4-0.1,5.7,0.6c3.4,4.5,8.1,8.3,12.3,10.3
	c14.3,6.8,23.2,5.6,38.1,3.2c6.8-1.1,12.5,1.1,16.6-5.4c3.1-4.9,2.1-16.1,0.4-21.5c-3.3-10.4-12.5-15.6-20.2-22.3
	c0-1.3,0.1-2.6,0.2-3.9c1.2-12.1,6.4-26.5,12.4-39.4c8.1-17.2,15.2-34.5,21.6-52.3c4,8.3,7.5,19.4,11.5,25.5
	c8.2,12.6,14.1,20.7,17.3,35.4c12.4-1.5,21.6,29.7,35.1,34.2c0.4,0.1,0.9,0.2,1.3,0.3c2.8,3.6,5.9,6.7,9.6,8.4
	c9.7,4.5,25.9,0.2,36.8,1.2c15.5,1.4,21.1-5,16.4-20.1c-3.4-11.1-8.6-13.9-17.4-15.7c-1-1-2-2-3-3.1c-8.4-9.4-14.9-20.2-22.4-31.2
	c-13.1-19.3-12.6-40.2-15.7-61.1c21.1-1,38.6-18.2,54.5-31.5c9.4-7.9,19.9-25.9,30.9-37.3c18.3,10.8,42.3,13.1,58.3,13.3
	c1.7,8.3,6.7,12.3,17.3,12.5c7.8,0.2,19.7-2.5,23.5-10.4c10.3,4.1,20.9-4.5,22.5-15.4C905.9,587.3,902.4,572.5,899.5,561z"/>
</svg>
