<?xml version="1.0" encoding="utf-8"?>
<!-- Generator: Adobe Illustrator 22.0.0, SVG Export Plug-In . SVG Version: 6.00 Build 0)  -->
<svg version="1.1" id="Layer_1" xmlns="http://www.w3.org/2000/svg" xmlns:xlink="http://www.w3.org/1999/xlink" x="0px" y="0px"
	 viewBox="0 0 1133.9 1133.9" style="enable-background:new 0 0 1133.9 1133.9;" xml:space="preserve">
<style type="text/css">
	.st0{fill:#010101;}
	.st1{fill-rule:evenodd;clip-rule:evenodd;}
</style>
<path class="st0" d="M996.6,730.9c-2.5-3.1-6.5-2.7-9.9-4.4c-4.5-2.3-7.7-6-9.7-10.5c4.3,4.8,9.4,10.3,15.7,11.6
	c4.2,0.9,7.1-2.7,6-6.8c-0.7-2.6-2.9-4.4-4.9-6.1c-3.8-3.2-7.5-6.4-11.5-9.4c-7.3-5.5-14.9-10.6-22.6-15.5
	c-7.9-5-13.5-10.8-18.7-18.5c-4.8-7.1-10.2-13.4-16.3-19.3c-5.2-4.9-10.8-11.2-17.9-13.5c-8-2.6-12.9,3.3-19.3,7
	c-4.3,2.4-8.9,4.2-13.5,5.8c-5,1.7-10.4,4-15.8,4.3c-10.6,0.6-15-9.3-15.6-18.3c0.4-0.3,0.4-1-0.2-1c-0.3-0.5-1-0.6-1.6-0.3
	c-5.6-1.2-10.2-5.9-10.9-11.5c2.7,4.4,7.4,8.7,12.7,8.2c5.3-0.5,10.8-5.8,14.8-9c12.3-9.5,22.6-21.4,33.2-32.6
	c3.1-3.2,6.1-6.5,9.2-9.7c1.3-1.3,4.2-3.4,4.5-5.5c0.7-4.6-6.6-7.9-9.9-9c-5.3-1.7-11.3-1.3-16.7-1c-7.9,0.5-15.6,1.7-23.1,4.1
	c-12.6,3.9-24.1,11.1-31.7,21.9c-0.4-4.9,2.6-9.5,7.2-11.3c0,0,0.1,0,0.1,0c0.6-0.2,1.3-0.4,2-0.6c1-0.2,0.5-1.6-0.4-1.5
	c0.1-1-0.3-2.1-1.6-2.6c-0.1,0-0.2,0-0.3,0c-1.4-2.8-5-4.6-7.8-6c-6-3-12.4-5.3-18.9-6.8c-13.2-3.1-26.9-3.4-40.5-2.7
	c-14.4,0.8-28.6,2.9-42.9,4.6c-16.9,2-33.8,3.4-50.7,4.3c-66.6,3.5-133.3-0.4-199.7-4.8c-8.6-0.6-17.4-0.7-25.9-2.4
	c-8.8-1.7-16.2-6-23.5-11c-14-9.6-28.3-18.4-43.8-25.3c-1.9-1.7-3.9-3.2-5.8-4.9c-3.9-3.4-7.5-7.1-10.9-11.1
	c-6.4-7.7-11.7-16.2-16.3-25.1c-9.7-19-15.8-39.5-23.1-59.4c-7.2-19.5-15.8-39.8-30.1-55.2c-1.9-2.1-5.5-6.7-8.8-6.7
	c-3.2,0.1-3.3,3.6-3.4,5.9c-0.4,9.7-0.4,20.6,5.1,29c2.7,4,6.4,7.2,9.9,10.3c4.5,4.1,8.5,8.4,11.8,13.5c5.2,7.8,8.7,16.4,11.8,25.2
	c-11.5-24.3-29.4-45-51.1-60.9c-0.6-0.4-1.7-0.1-1.6,0.8c4.8,22.7,16.4,43.1,22.9,65.3c4.2,14.4,6.1,32.5,16.8,43.5
	c-5.2-3.5-9.5-8-11.8-14.1c-2.5-6.6-2.8-13.9-5.9-20.3c-0.3-0.5-0.9-0.5-1.2-0.2c-0.2,0-0.4,0-0.7,0.1c-8.6,4.6-18.1,6.9-27.1,10.5
	c-7.9,3.2-15,7.7-21.1,13.6c-13.3,12.7-22.5,29.4-33.1,44.3c-5.5,3.8-9.6,9.4-11.5,15.8c-1.3,4.5-1.1,10.1,3.3,12.7
	c0.5,0.3,1.1-0.1,1.2-0.6c0.4-3.2,1.6-5.9,3.6-8.2c-2,5.4-3.6,11.2-2.2,16.9c1.2,5.1,4.8,9.3,9.2,12.1c11.1,7.2,24.4,5.5,36.9,7.5
	c7.6,1.2,14.1,5.8,21.7,6.6c6.2,0.6,12.5-1,17.9-4.1c5.3-3,9.8-7.1,13.8-11.6c0.6-0.6,1.1-1.2,1.6-1.9
	c-5.8,11.1-16.6,19.3-29.3,21.4c-0.9,0.2-1.1,1.5-0.3,2c3.5,2.1,7,4.4,10.1,7c0.9,0.7,9.6,8.9,8.9,9.3c-1.3,0.7-0.1,2.5,1.2,1.9
	c0,0,0,0,0.1,0c0.2,0,0.4-0.1,0.6-0.3c0-0.1,0.1-0.1,0.1-0.2c0.1-0.1,0.2-0.2,0.2-0.3c5.9-8,11.5-15.7,18.8-22.5
	c5-4.7,10.5-8.6,16.1-12.3c-7.3,5.8-14,12.5-20,19.4c-4.4,5-8.4,10.3-12,15.9c-1.7,2.6-3.3,5.2-4.9,7.8c-0.7,1.2-1.7,2.3-1.4,3.5
	c-4.2,8.2-1.6,18.1-6,26.1c-3.8,7-13.3,8.8-20.4,9.9c-6.9,1.1-14,1.2-21,1.5c-15.2,0.6-30.4,1.2-45.6,0.8c-18-0.5-35.4-2.8-53-6.9
	c-5.4-1.2-11.1-0.5-12.7,5.6c-1,3.9,0.3,8.3,3.9,10.2c0.5,0.3,1.4,0,1.4-0.7c-0.3-5.7,4-6.9,8.5-6.7c-3.1,1.2-5.7,3.8-6.5,7.3
	c-1.6,6.8,4.6,12.8,11.2,12.7c0.6,0,0.9-0.5,0.8-1.1c-1.3-6.4,3.8-8.4,9.1-8.7c-3.1,1-5.9,2.8-7.2,6.1c-2.1,5.1,1.2,9,6,10.5
	c17,5.4,35.9,2.6,53.5,3.1c18.9,0.6,37.4,4.3,56.1,6.3c8.7,0.9,17.7,1.8,26.5,0.9c8.3-0.8,15.9-4,24-6c10.5-2.5,21.4-3.2,32.2-4.2
	l17.3-1.7c-13.7,3.5-27.6,6-41.7,7.5c-1.4,0.1-1.5,2-0.2,2.4c9.1,2.7,18.4,2.4,27.7,1.9c9.3-0.5,18.5-0.8,27.9,0.2
	c18.8,2,37,7.4,55,12.9c0,0.4,0.3,0.8,0.8,0.9c17.9,2.7,36.1,4,54.1,5.8c17.5,1.8,35,3.6,52.5,5.3c17.3,1.7,34.7,3,52.2,1.8
	c17.3-1.2,34.5-3.7,51.8-4.5c19.5-0.9,39-0.7,58.4-0.5c1.6,0,1.7-2.1,0.4-2.6c-15.9-6.3-30.5-14.8-43.9-25.3
	c20.2,4.5,38,17.2,55.4,27.7c17,10.3,35,19.8,55.2,20.7c0.4,0,0.7-0.1,0.9-0.3c33.6,0.3,67.6-12.1,94.3-32.2
	c13.1-9.9,26.7-24.3,44.7-22c9,1.1,14.3,7.2,19,14.4c5.3,8,10.6,16.1,15.7,24.3c8.9,14.3,17,36,36.3,38.4c0.8,0.1,1.3-0.6,1.2-1.3
	c0-0.2,0-0.5-0.3-0.6c0,0,0,0-0.1,0c0,0-0.1-0.1-0.2-0.1c-3.7-2.2-6.6-4.4-9.4-7.7c-2.4-2.7-4.6-5.5-7-8.2c0-0.1,0-0.1,0.1-0.2
	c4.7,4,9.4,8,14.2,11.9c3.8,3.2,7.7,6.1,12.7,6.7c2.6,0.4,7.8,0.9,10.2-0.7c2.7-1.8,3.4-6.9,3.9-9.8
	C1008.1,749.7,1002.8,738.5,996.6,730.9z"/>
</svg>
