<?xml version="1.0" encoding="utf-8"?>
<!-- Generator: Adobe Illustrator 22.0.0, SVG Export Plug-In . SVG Version: 6.00 Build 0)  -->
<svg version="1.1" id="Layer_1" xmlns="http://www.w3.org/2000/svg" xmlns:xlink="http://www.w3.org/1999/xlink" x="0px" y="0px"
	 viewBox="0 0 1133.9 1133.9" style="enable-background:new 0 0 1133.9 1133.9;" xml:space="preserve">
<style type="text/css">
	.st0{fill:#010101;}
	.st1{fill-rule:evenodd;clip-rule:evenodd;}
</style>
<g>
	<g>
		<path class="st0" d="M926,743c-10.9,0.9-21.5-4.3-30.4-9.8c-10.6-6.6-24.1-8.5-35.8-13.3c-19.7-8.1-39.5-19.7-60.9-22.4
			c-7.6-0.9-13.8-1.6-20.8-5.4c-1.9-1-4.6-2.1-7.4-3.3c-15.1,9.9-36.8,10.8-53,14.3c-22.8,5-44.9,5.4-68.4,5.4
			c-23.6,0-42-3.1-64.8-7c-13.3-2.3-27-2.4-40.4-4.9c-12.7-2.4-25.4-6.8-38.2-8.1c-18.8-2-40.2-7.5-59.5-7.3
			c-9.3,5.6-21.3,9.6-28.8,12.8c-29.2,12.6-62.9,13.8-94.2,8.9c-15.4-2.4-29.7-8.3-44.5-12.7c-7.5-2.2-15-2.9-22.3-6
			c-3.4-1.4-6.7-3.6-10.2-5.2c-11.1,3.9-22.9,6.1-34.5,7.8c-15.4,2.3-30.9,2.5-46.1,6.4c-16.2,4.1-31.6,7.8-48.3,7.8
			c-16.8,0-30.6-3.2-46.6-6.5c-7.9-1.7-13.7-2-19.3-8.8c-3.7-4.5-9.7-17.6,0.8-17.2c-0.4-0.2-2.2-1.7-3.2-2
			c2.3-7.4,10.6-5.6,16.7-7.2c3.1-0.8,6-2.3,8.8-3.7c-5.5-3.3-8.7-8.2-9.9-15.1c-2.4-13.4,4.1-10.7,12.3-16.6
			c7.1-5.3,6.9-9.1,16.6-11.1c8.7-1.7,16.8-1.7,25.6-1.6c16.7,0.1,33.6,3.4,49.9,3.4c25.2,0,66-2.3,86.2-21.9
			c-9.1-8.4-15.5-18.5-15.7-32.4c1.6,0.9,2.5,0.4,4.1,0.9c0.4-6.9-0.8-14.5,2.4-20.5c0.8,1,3.7,2.3,4.5,3.3
			c5.1-7.5,2.8-18.3,9.8-25.2c0.8,1.3,2.6,2.2,3.3,3.1c5.1-5.9,8.6-11.2,14.9-15.4c5.4-3.7,10.2-5.7,13.5-11.8
			c-0.3,2.1,0.2,4.4,0.2,6.4c10.1-4,10.5-35.2,19.1-8c6.5-5,8-13.2,13.4-19.2c6.6,13,12.2,21.3,12.2,36.5c2.3-2.3,3.8-6,5.7-8.8
			c0.6,5.1,2.6,10.2,2.2,15.7c1.1-1,3.2-1.4,4-2.1c1.3,6.4-1,15.2-4.5,22.9c11.8,1.9,23.3-8.3,33.8-10.7c15.5-3.6,36.9-4.2,52.6-2.2
			c33,4.2,56.3,3.8,89.4,3.8c29.5,0,59.6,1.5,89.1,3.5c15,1,30.7,2.1,45.5,0.1c15.3-2,30.2-6.7,46-5.8c27.9,1.6,53.1,5.6,79.3,13.4
			c6.2-9.4,12.8-21,22.2-26c-31.8-22.3-73.6-17.1-106.1-39c-14-9.4-36.4-29.8-38.5-48c-2.9-24.9,36.9-16.6,50.3-14.3
			c14.4,2.5,27.8,5.7,41,10.4c-9.7-13.6-16.2-28-19-44.4c19.8-10.4,47.3,9.3,64.6,18.2c10.1,5.2,20,10.1,29.9,15.6
			c11.7,6.5,16.1,14.3,24.6,24.4c7.1,8.5,15.7,16.9,22.4,25.7c27.4-1.6,60.2-8.1,79.4,16.7c8.5,11.1,12.2,24.7,21.8,35.1
			c9,9.6,18.1,19,24.1,31.1c4.5,8.9-0.3,21.9-10.4,26c-2,3.9-3.3,9.4-5.7,12.4c-4.2,5.1-10.9,8.3-16.5,11.1c-8.2,4-17.3,3.9-26,2.4
			c5.3,10.8,10.6,17.9,12.2,30.8c21.1-0.9,43,6.7,64.1,9c18.9,2.1,50.2-3.3,65.6,10.3c18.8,16.6-3.5,44.6-23.5,43.7
			c-10.7-0.5-19.4-7.5-28.7-12c-10.1-4.9-19.8-6.1-30.9-5.6c-23.6,1.2-44.2,3.3-66.2-3.5c-1.3,3.2-2.7,6.5-4.4,9.6
			c7.4,4.5,16.2,13.6,21.5,17.4c8.1,5.7,32,3.6,34.1,15.7c9.6,0.7,19.8-1.3,27,7c4.2,4.8,7.8,24.1-1.3,23.5
			c0.3,11.3-12,9.5-19.2,11.2c-10.7,2.6-15.4,5.3-27,3.6c-10.9-1.6-21.3,0-29.6-8.5C930.2,747.3,928.1,745.2,926,743z"/>
	</g>
</g>
</svg>
