<?xml version="1.0" encoding="utf-8"?>
<!-- Generator: Adobe Illustrator 22.0.0, SVG Export Plug-In . SVG Version: 6.00 Build 0)  -->
<svg version="1.1" id="Layer_1" xmlns="http://www.w3.org/2000/svg" xmlns:xlink="http://www.w3.org/1999/xlink" x="0px" y="0px"
	 viewBox="0 0 1133.9 1133.9" style="enable-background:new 0 0 1133.9 1133.9;" xml:space="preserve">
<style type="text/css">
	.st0{fill:#010101;}
	.st1{fill-rule:evenodd;clip-rule:evenodd;}
</style>
<path d="M394.6,454.4c-17.3-43.6-24.8-99.3-17.5-140.5c10,8,29.1,30.2,42.3,56.9c3.6,7.3,6.8,14.8,9.6,22.4c-3.8,12.1-5,47.3-5,47.3
	C412.6,443.3,401.1,450.1,394.6,454.4z M755.4,746.3c1.7-8.9,2.6-18.2,2.6-27.6c0-82.7-67-149.7-149.7-149.7
	c-6.5,0-14.8,0.7-19.3,1.2c-4.5,0.5-13.3,1.9-13.3,1.9c-3.3,0.7-6.6,1-10.1,1c-6,0-11.8-1.1-17.1-3c-18.3-6.7-31.5-23.7-32.6-44
	c0,0,0.2-3.5,0.2-5.3c0-26.2-14.2-49.5-35.2-61.9c23-36.8,34.8-77.6,36.1-119.8c0.8-24.9-1-56.5-7.5-74.3
	c-38.7,40-67,101-72.3,154.9c-0.3,2.2-2.5,18.3-0.4,30.5c0,0,0,0.1,0,0.2c-20.8,0.5-38.8,16.4-40.6,18.5S360,500.4,351.6,548
	c0,0,0.5,17.4,24.2,29.9c7,3.7,20.2,5.2,32.2,5.7c8.7-11.3,24.2-28.2,42.9-34.8c0,0-28.9,20.7-41.4,67.7c3.6,42.1,14.7,82,32,118.5
	c9.1-37,10.7-84.2,10.7-84.2c16.7,79.3,0.8,149.7-2.4,159.5c-22.7,11.6-39.4,33-44.7,58.7H483c19.9-26,36.3-54.8,48.6-85.7
	c0.1,0.1-9.7-29.2-0.3-64c12.4-45.6,45.4-62.4,73.8-65.4c30.6-3.2,47.1,6.3,47.1,6.3c-50.5,2.6-80.3,36.9-85,80.2
	c-4.7,43.2,32.7,72.2,32.7,72.2c-0.7,0.1-4.4,2.4-9.7,4.9c0,0,0,0,0.1,0c0,0,0,0,0,0c-17.1,8.4-31,22.4-39.2,39.6c0,0,0.1,0,0.1,0
	c-2.4,4.9-4.4,11.3-4.4,11.3h61.5l0,0c0,0,0,0,0,0c32,0,61.7-10.1,86.1-27.2c6.7-4.7,12.9-9.9,18.7-15.6c0,0,0,0,0,0l0,0
	c0,0,17.7-17.9,27-35.3c0,0-2.4,19.4-11.5,41.4c2.8,0.5,5.6,0.8,8.6,0.8c24.9,0,45.1-20.2,45.1-45.1
	C782.2,769.2,771.2,753.4,755.4,746.3z"/>
</svg>
