<?xml version="1.0" encoding="utf-8"?>
<!-- Generator: Adobe Illustrator 22.0.0, SVG Export Plug-In . SVG Version: 6.00 Build 0)  -->
<svg version="1.1" id="Layer_1" xmlns="http://www.w3.org/2000/svg" xmlns:xlink="http://www.w3.org/1999/xlink" x="0px" y="0px"
	 viewBox="0 0 1133.9 1133.9" style="enable-background:new 0 0 1133.9 1133.9;" xml:space="preserve">
<style type="text/css">
	.st0{fill:#010101;}
	.st1{fill-rule:evenodd;clip-rule:evenodd;}
</style>
<path d="M663.6,722.8c0.3,0.9,0.5,1.9,0.7,2.9c1.3,11.8,9.7,21.7,22.4,21.7c11.5,0,23.4-10.2,22.4-22.4c-2.3-28.7-21.2-53-40.4-73.1
	c-14.8-15.5-32.9-31.2-53-40.6c36.1-13.9,61.3-45.1,61.3-81.3c0-27.1-14.1-51.3-36.3-67.7c20-39.2,28.4-85.7-2.4-172.2
	c-29.2-81.9-45.5,55.1-52.9,151.5c-3.9-0.4-7.9-0.6-12-0.6c-3.5,0-6.9,0.2-10.4,0.4c-6.7-96.5-22-236.2-52-153.9
	c-31.8,87.2-23.2,133.8-3,173.4c-23.4,16.3-38.3,41.2-38.3,69.1c0,34.1,22.3,63.7,55,78.6c-22.7,8.8-42.7,26.2-59.3,43.2
	c-19.4,19.8-38.2,44.6-40.4,73.1c-1,12.2,10.9,22.4,22.4,22.4c12.8,0,21.2-9.9,22.4-21.9c0.1-0.3,0.1-0.6,0.2-1
	c0.5-2.3,1.3-4.6,2.1-6.8c-1.8,4.9,1.4-2.7,1.9-3.6c1.3-2.5,2.8-5,4.3-7.4c6-9.6,11.6-15.8,20.5-25c1.9-2,3.9-3.9,5.9-5.8
	l-31.4,84.1c0,0-23.2,34.7,20.9,53.7c-6,5.8-13.6,10.9-23,13.7c-32.8,10-42.4,14.2-36.7,34.1c0,0,11.1,25.6,80.1-7.1
	c19.8-9.4,30.5-19.7,35.1-29.6c4.4,0.3,9,0.5,13.9,0.7v0.2c1.3,0,2.5,0,3.7-0.1c1.2,0,2.5,0.1,3.7,0.1v-0.2
	c4.7-0.1,9.1-0.4,13.3-0.6c4.6,9.9,15.3,20.2,35.1,29.5c69.1,32.7,80.1,7.1,80.1,7.1c5.7-19.9-3.9-24.2-36.7-34.1
	c-9.3-2.8-16.9-7.8-22.9-13.6c44.7-19,21.3-53.9,21.3-53.9l-31-83.2c1.6,1.6,3.3,3.2,4.9,4.8c9.1,9.1,14.4,15.5,20.5,24.9
	c2.4,3.7,4.5,7.5,6.4,11.5C661.2,716.7,663.3,722,663.6,722.8z"/>
</svg>
