<?xml version="1.0" encoding="utf-8"?>
<!-- Generator: Adobe Illustrator 22.0.0, SVG Export Plug-In . SVG Version: 6.00 Build 0)  -->
<svg version="1.1" id="Layer_1" xmlns="http://www.w3.org/2000/svg" xmlns:xlink="http://www.w3.org/1999/xlink" x="0px" y="0px"
	 viewBox="0 0 1133.9 1133.9" style="enable-background:new 0 0 1133.9 1133.9;" xml:space="preserve">
<style type="text/css">
	.st0{fill:#010101;}
	.st1{fill-rule:evenodd;clip-rule:evenodd;}
</style>
<path d="M781,811.3c-2.6-32.6-24.1-60.2-45.9-83c-14.3-15-31.4-30.2-50.2-40.9c54.1-9.1,95-50,95-99.2c0-41.6-29.2-77.3-71-92.8
	c20.7-50.9,28.6-105.6-24.7-207.4c-48.8-93.2-41.7,90.9-34,199.6c-10,0.9-19.7,2.8-28.8,5.7c-57.1-87.8-177.2-263-158.3-153.2
	c20,116.2,61.1,153.9,110.2,181.9c-17.9,17.7-28.7,40.8-28.7,66.1c0,20.7,7.2,39.9,19.6,55.9c-22.7,0.3-44.1,4.5-62.7,11.7
	c-2-5.2-9.9-9.8-15.3-8.6c9.7-9.7-5.5-20.4-15.2-10.7c3.2-17.7-15.3-6.8-19.1,1.7c-9.1-14.3-20.8-4.4-20.7,4.2
	c-7-4.2-16.2,7.6-12.8,17.1c-6.6-12-22.4,1.3-14.9,11c-9.5-6.2-17.1,9.5-5.6,11l1.8,2.6c-1.3,0.9-6.6,4.4-7.5,5.9
	c-2.6,6,7.7,6.2,9.3,7.1c-10.2,6.1-2.2,11.4,5.5,12.8c-14.4,7.1,6.9,28.1,17.3,15.1c0.1,6.4,3.9,9,8.3,8.9c0,1-0.1,1.9-0.1,2.9
	c0,5.7,0.8,11.3,2.2,16.7c-8.8,6.1-19.7,11-32.6,12c-38.8,3.1-50.5,5.5-49,28.9c0,0,6,31.1,90.6,11.6c9-2.1,16.6-4.6,23.1-7.4
	c1.7,1.3,3.4,2.6,5.3,3.8c-7.3,8-17.1,15.4-29.7,19.2c-37.3,11.3-48.1,16.1-41.7,38.7c0,0,12.6,29.1,91-8.1
	c18-8.5,29.4-17.7,35.9-26.8c12.6,2.7,25.9,4.1,39.8,4.1c26,0,50.3-5.1,71-13.9c1.8,2.5,3.6,5,5.4,7.9c2.7,4.2,5.1,8.6,7.2,13
	c-0.9-1.8,1.5,4.3,1.7,5.2c0.3,1.1,0.5,2.2,0.8,3.3c1.4,13.4,11,24.6,25.4,24.6c13,0,26.6-11.6,25.5-25.5
	c-1.7-21.1-11.3-40.1-23.8-57.1c7.2-7.7,12.9-16.2,16.6-25.2c0.1,0.1,0.2,0.2,0.3,0.3c10.3,10.3,16.3,17.6,23.3,28.3
	c2.7,4.2,5.1,8.6,7.2,13c-0.9-1.8,1.5,4.3,1.7,5.2c0.3,1.1,0.5,2.2,0.8,3.3c1.4,13.4,11,24.6,25.4,24.6
	C768.6,836.8,782.1,825.1,781,811.3z"/>
</svg>
