<?xml version="1.0" encoding="utf-8"?>
<!-- Generator: Adobe Illustrator 22.0.0, SVG Export Plug-In . SVG Version: 6.00 Build 0)  -->
<svg version="1.1" id="Layer_1" xmlns="http://www.w3.org/2000/svg" xmlns:xlink="http://www.w3.org/1999/xlink" x="0px" y="0px"
	 viewBox="0 0 1133.9 1133.9" style="enable-background:new 0 0 1133.9 1133.9;" xml:space="preserve">
<style type="text/css">
	.st0{fill:#010101;}
	.st1{fill-rule:evenodd;clip-rule:evenodd;}
</style>
<path class="st0" d="M820.2,717.4c-7.8-3.9-15.7,1.1-20.4,7.5c-1.4,2-2.5,4.1-3.5,6.3c0.8-3.7,1.5-7.5,1.7-11.4
	c0.7-11.4-2-22.7-5.9-33.4c-7.5-20.9-17.2-42.5-30.4-60.4c-13.5-18.3-31.4-33-48.8-47.3c-18-14.8-36.9-28-58.6-36.8
	c-21.6-8.8-44.3-13.7-67-18.3c-1-0.3-2-0.6-3-0.8c-1.2-0.8-2.4-1.6-3.5-2.5c-0.8-0.6-1.6-0.3-2.1,0.3c-0.9-0.3-2,0.3-1.9,1.3
	c-1.4,0.6-1.6,2.9,0.2,3.2c0.5,0.1,1,0.2,1.4,0.3c6.1,11.9,12,23.9,18,35.8c0.7,1.4,1.4,2.8,2.1,4.2c-10.9-13.1-20.1-27.6-27.2-43
	c-0.7-1.5-2.6-1.3-3,0.2c-1.2,4-1.9,7.9-2.1,12c-2.4-6.6-4.3-13.2-5.6-19.9c0,0,0,0,0,0.1c2.6,5.4,8,4.4,12,1.1
	c5.9-4.7,11-13.3,8.7-20.9c-1.4-4.7-3.9-7.8-3.6-13.2c0.2-3.5,1.3-6.8,2.8-9.8c-0.3,1.2-0.5,2.4-0.7,3.6c-0.6,4.3-0.3,8.7,1.1,13.1
	c0.1,0.2,0.1,0.5,0.2,0.7c0,0,0,0,0,0c0,0.1,0.1,0.2,0.1,0.4c0.5,1.6,3.3,0.7,2.8-0.9c0-0.1-0.1-0.3-0.1-0.4c0.5,0.2,1,0.2,1.5-0.2
	c14.4-10.3,32.6-12.2,45.9-24.3c13.8-12.5,22.8-30.1,31.7-46.2c10.7-19.3,20.6-39.1,29.7-59.3c4.4-9.8,9.1-19.7,12.6-29.9
	c1.5-4.3,1.3-9.5-1.8-12c0.7-1,0.5-2.8-1.1-3.3c-18-4.7-36.4,0.1-53.1,7.4c-16.3,7.2-31.6,16.4-46,26.9
	c-29.9,21.9-55.2,49.2-78.9,77.5c-4.4,5.2-13,12.6-10.6,20.3c-20.4-5.3-41.6-6.2-62.6-2.8c1.6-0.8,3.1-1.6,4.7-2.4
	c0.3-0.1,0.6-0.2,0.8-0.2c1.6-0.3,3.2-0.3,4.8-0.6c1.4-0.3,2.7-0.7,3.6-1.6c1,0.1,2.1-0.6,2.1-1.8c-0.4-21.8-12.8-42.5-26.2-58.9
	c-14.9-18.1-31.2-35.1-47.6-51.8c-16.6-16.9-33.8-33.3-51.6-49c-5.4-4.8-13.6-14.5-21.7-13.7c-5.4,0.5-9.7,6.1-6.8,11.1
	c0,38.2,12.9,75.6,25.3,111.3c5.5,15.8,11.9,31.3,22.6,44.3c12.6,15.4,27.8,28.9,41.9,42.9c1.1,1.1,2.9,0,2.8-1.4
	c-0.4-30.9-4.2-61.8-11.4-91.9c-3.6-15-7.4-31.7-14.1-46.5c14.2,23.1,20.6,50.9,25.3,77.7c3.5,19.9,7.9,40.1,2.4,60.1
	c-3.6,12.9-8.2,27.6,1.3,39c-0.5,0.1-0.9,0.7-0.5,1.2c6.8,8.7,10.6,19,11.1,29.8c-1.7-7.2-4.3-14.2-7.6-21c-0.5-1-1.8-0.8-2,0.2
	c-1.7,8.4-3.6,16.9-7.5,24.6c-3.8,7.5-9.7,13.6-15,20.1c-9.4,11.4-16.8,24.6-19.7,39.3c-4.1,20.6,2.1,42.8,18.1,56
	c-4.2-2-8.1-4.7-11.5-8.1c-0.5-0.5-1-0.5-1.5-0.4c-0.7-0.5-1.8-0.3-1.9,0.8c-0.5,9.8,1.8,19,5,28.3c3.7,10.8,7.8,21.6,11.8,32.3
	c6.9,18.4,13.7,37.1,22.2,54.9c7.2,14.8,16.4,28.6,30.1,38.2c6.2,4.4,13,7.9,20,10.8c-5.7-1.3-11.8-3-17,0.4c-1.1,0.8-0.8,2.5,0.2,3
	c-8.7,9-16.9,21.2-16,33.6c0.8,10.6,10.2,19.6,21,16.2c0.7-0.2,1.3-1.3,1.1-2c-3.6-15.8,6.8-25.1,19.6-30.8
	c-12.8,7-23.5,16.6-14.4,29.3c4.5,6.2,12.5,6,17.2,0.2c1.1-1.4,2-2.9,2.8-4.4c-0.6,2.5-1,5.1-1.1,7.7c0,1.1,1.1,1.9,2.1,1.9
	c41-0.4,82.1-0.8,123.1-1.4c1.1,0,1.9-0.8,2-1.9c1.8-14,10.3-26.4,22.1-33.5c-8.5,7.9-14.2,18.5-16.2,30.4c-0.1,0.6,0.2,1.3,0.7,1.6
	c4.6,2.9,9.8,3,14.7,0.3c3.1-1.7,5.2-4.3,6.8-7.2c0,0.9,0,1.7,0,2.6c0.2,2.5,0.7,4,3.2,5.1c7.5,3.4,19.5-0.2,26.7-2.6
	c0.6-0.2,1.1-0.8,1.1-1.5c-0.1-4.2,0.4-8.2,1.5-12c-0.3,4.1,0.5,7.7,4,8.8c5.5,1.7,12.8,0.6,18.5,0.6c7.6,0,15.2-0.2,22.8-0.9
	c14.5-1.3,56.3-6.4,51.4-29.8c-0.2-0.9-0.8-1.4-1.7-1.3c-8,0.1-15.9-0.5-23.7-1.6c1,0,2,0.1,3,0.1c8.6,0.2,17.7,0.1,25.4-4.1
	c6.9-3.7,10.9-10.1,14.3-17c2.4-5,4.6-10.1,6.5-15.3c3.4,0.6,6.3-3.4,8.4-5.8c5.3-6,10.1-12.4,14.2-19.3c8.5-14.4,13.8-30.2,16-46.7
	C821.2,718.3,820.8,717.7,820.2,717.4z"/>
</svg>
