<?xml version="1.0" encoding="utf-8"?>
<!-- Generator: Adobe Illustrator 22.0.0, SVG Export Plug-In . SVG Version: 6.00 Build 0)  -->
<svg version="1.1" id="Layer_1" xmlns="http://www.w3.org/2000/svg" xmlns:xlink="http://www.w3.org/1999/xlink" x="0px" y="0px"
	 viewBox="0 0 1133.9 1133.9" style="enable-background:new 0 0 1133.9 1133.9;" xml:space="preserve">
<style type="text/css">
	.st0{fill:#010101;}
	.st1{fill-rule:evenodd;clip-rule:evenodd;}
</style>
<path class="st0" d="M873.3,528.5c-4.7-7.3-10.2-14-14.4-21.6c-4.4-8-7.8-16.5-12.4-24.4c-7.5-12.9-18.5-22.3-31.8-28.9
	c-12-6-25-9.5-38.1-12.6c3.8-0.3,7.6-0.7,11.4-1c1.4-0.1,1.5-1.8,0.6-2.6c-10.5-9.5-23.8-15-37.7-16c3.9-0.7,7.9-0.1,11.8,1.7
	c0.9,0.4,1.7-0.7,1.4-1.5c0.3-0.3,0.4-0.6,0.3-1.2c-6.3-25.5-5.5-51.4-8.1-77.4c-2-20.5-6.9-41.7-19.5-58.4
	c-5.6-7.4-13.3-15.1-22.9-16.4c-8.3-1.1-16.1,3.1-18.7,11.3c-1.3,4.3-1.3,8.8-1.1,13.3c0.3,6.6,0.7,13.2,1.1,19.8
	c0.3,5.1-0.1,11.2,2,16c2,4.6,6.4,7.4,9.4,11.2c9.4,11.7,10.9,29.9,13.8,44.1c2.5,12.4,4.3,24.7,5.6,37.2
	c-3.9-16.9-8.2-33.7-13.1-50.3c-2.5-8.4-4.3-17.9-8.6-25.5c-4.1-7.2-12-10.8-17.7-16.4c-6-6-10.7-13.2-15.6-20.1
	c-5.5-7.8-11.2-15.4-17.1-22.8c-2.9-3.6-5.8-7.1-8.8-10.6c-2.4-2.8-4.8-6.3-8.2-8c-4.1-2-8.9-0.8-10.4,3.7c-0.2,0.6,0.3,1.6,1,1.6
	c8.8,1.1,15.2,9.9,20.6,16.2c5.2,6.2,10.1,12.7,14.6,19.4c9.6,14.5,17.3,30.2,23,46.7c10.8,31.5,14.2,65.4,9.2,98.3
	c-4.7-1.5-8.5-4.4-11.1-8.4c4.1,1.7,9.5,0.5,11.2-4.4c2-5.8-0.6-13.6-1.5-19.4c-1-6.7-2.1-13.5-3.2-20.2
	c-5.3-30.6-13.4-61.3-30.2-87.7c-9.2-14.4-20.6-27.5-33.5-38.6c-0.7-0.6-1.8-0.5-2.2,0.4c-13.3,28.5-5.9,63.4,1.5,92.6
	c7.5,29.7,19.8,58.5,40.1,81.8c0.6,0.7,2.1,0.3,2.1-0.7c-0.4-7.6-0.8-15.2-1.2-22.8c1.2,6.5,2.2,13,2.9,19.6
	c-0.1,0.1-0.1,0.3-0.1,0.5c0.3,14.5,2.2,29,2.4,43.5c0,0.6,0.3,1.2,0.9,1.4c1.4,0.5,2.9,1,4.3,1.5c-10.2,4.3-20.6,10.2-22.8,21.9
	c-7.5,1.1-14.8,3.5-21.5,7.2c-2.1,1.2-3.9,2.7-6,3.8c-2.4,1.3-2.8,0.7-5.1-0.8c-4.1-2.6-8.3-5-12.6-7.2c-16-8.1-33.4-13.5-51.2-16
	c-38.3-5.3-74.7,4.7-108.6,22.1c-17.8,9.2-35.2,19.5-52,30.3c-15.8,10.2-31.1,21.5-44,35.2c-13.8,14.7-24.1,32.1-34.2,49.4
	c-9.9,16.9-19.3,34.3-26.5,52.5c-12.5,31.5-18,67.1-8.8,99.7c-0.3-0.6-0.6-1.1-0.9-1.7c-3.7-7-6.8-15.9-12.3-21.8
	c-3.7-4.1-9.2-5.2-14-2c-5.3,3.6-7,9.9-6.1,16c1.2,8.6,6.2,17.1,10.1,24.7c4,7.8,8.5,15.3,13.4,22.5c7.7,11.2,18.2,22.8,32.2,25.4
	c1.5,0.3,3.1,0.2,4.5,1.1c1.1,0.7,2,2.3,2.9,3.3c2.5,2.5,5.5,4.4,8.7,5.9c6.8,3.1,14.3,3.7,21.4,1.8c0.8-0.2,1.1-1.1,0.8-1.8
	c-1.9-4.6-2.8-9.3-2.5-14.1c1.4,6.3,4.1,12.5,9.9,15.4c4.9,2.4,10.9,1.5,16.1,1.3c7.1-0.2,14.2-0.4,21.3-0.7c29-0.9,58-2,86.9-2.9
	c0.8,0,1.2-0.9,1.2-1.6c-0.3-10.1-3.6-19.7-9.2-27.9c6.2,6,10.8,13.6,12.9,22.1c0.4,1.7,0.3,3.8,1.4,5.1c1.2,1.4,4.2,2.1,5.9,2.4
	c3.9,0.9,8.1,0.5,11.9-0.9c14.3-5.3,15.8-22.3,7.2-31.8c9.9,6.1,13.6,19.6,5.9,30.3c-0.5,0.7-0.3,1.9,0.6,2.2
	c8.5,2.7,15.9-3.2,19.1-10.9c3.6-8.9,0-18.2-6.3-24.9c-7.4-7.9-17.7-12.5-27.7-16c-11.1-3.8-22.5-6.2-34.2-7.3
	c23.4-9.3,42.7-28.2,51.8-51.8c8.8-22.8,7.4-48.4-2.7-70.3c10.4,16.7,15.4,36.6,13.2,56.4c-2.8,25.2-17,48.3-37.7,62.6
	c-1.1,0.8-0.4,2.5,0.9,2.5c29.1-1.1,51.9,25.1,46.7,53.8c-0.1,0.8,0.3,1.9,1.3,1.8c12.4-1,24.8-2,37.2-3.1c0.8-0.1,1.3-0.8,1.3-1.5
	c0.1-12-11.3-21.5-22.8-20.7c10.5-8.5,21-17.5,30.7-27.2c15.4-7.3,30.6-14.8,45.9-22.2c-4.6,3.1-9.2,6.3-13.9,9.4
	c-0.7,0.5-0.6,1.8,0.1,2.2c22.5,14.5,42.1,33.5,57.2,55.7c2.7,4,5,8.6,9.7,10.5c6.3,2.6,14.1,3.3,20.8,4c14.4,1.4,28.9,0.5,43-2.6
	c0.6-0.1,1-0.8,0.9-1.4c-0.3-10.9-6.5-20.7-15.5-26c2.1,0.2,4.1,0.5,6.2,0.7c1.6,0.2,4.2,0,5.6,0.7c3.3,1.7,4.1,7.3,5.1,10.5
	c1.4,4.3,2.4,8.7,3.1,13.2c0.1,0.7,0.7,1.3,1.5,1.2c5.8-0.8,11.4-1.9,17-3.6c0.8-0.2,1.1-1.1,0.9-1.8c-4.7-15.1-11.2-30.4-28.2-34.1
	c-10.1-2.2-21.7-2.2-26.6-13c-4.2-9.4-2-20.9,0.2-30.5c0.2-0.9-0.6-1.6-1.4-1.6c-4.4-0.2-8.9-0.3-13.3-0.5c2.5-0.7,5-1.5,7.5-2.3
	c0.2,0.7,0.8,1.3,1.7,1.1c15.8-3.1,32.3-6.8,45.5-16.4c13.3-9.6,22.1-25.2,30.5-39.1c18.5-30.6,32.4-63.9,41.5-98.4
	c0.4-1.6-1.5-2.4-2.6-1.5c-20.3,16.1-48,21.7-73.1,15.9c-22-5.1-38-18.9-52-35.3c13.2,11.3,28,21,44.4,26.3
	c20.6,6.6,44.2,5.5,62.3-7c0.8-0.6,0.8-1.6,0-2.1c-9.3-7.2-16.5-16.3-21.4-26.8c4.2,4.9,8.3,10.1,13,14.4c5.9,5.3,13.6,8.2,21.5,8.8
	c9.5,0.7,18.7-1.7,27.4-5.3c6.8-2.8,13.8-6.1,19.6-10.9c3.7,2,8.1,0.2,10.5-3.5c3.8-5.9,3-15.1,3.2-21.8
	C883.8,557.7,882.1,542.3,873.3,528.5z"/>
</svg>
