<?xml version="1.0" encoding="utf-8"?>
<!-- Generator: Adobe Illustrator 22.0.0, SVG Export Plug-In . SVG Version: 6.00 Build 0)  -->
<svg version="1.1" id="Layer_1" xmlns="http://www.w3.org/2000/svg" xmlns:xlink="http://www.w3.org/1999/xlink" x="0px" y="0px"
	 viewBox="0 0 1133.9 1133.9" style="enable-background:new 0 0 1133.9 1133.9;" xml:space="preserve">
<style type="text/css">
	.st0{fill:#010101;}
	.st1{fill-rule:evenodd;clip-rule:evenodd;}
</style>
<g>
	<path class="st0" d="M735.9,767.7c-1.8-1.9-4-3.7-6.5-4.6c-1.2-0.4-2.3-0.6-3.5-0.7c-1.8,0-4.5,1.4-6.2,0.9
		c-3.9-1.1-6.6-8.7-8.4-11.9c-2.4-4.5-4.7-9.1-6.9-13.7c-0.5-1-1.8-0.6-2,0.3c-4.2,0.2-8.5,1.5-12.6,2.3c-4.2,0.9-8.5,1.7-12.7,2.6
		c-8.7,1.7-17.7,3.2-26.3,5.5c0,0-0.1,0-0.1-0.1c-0.5-0.3-0.9,0.2-0.8,0.6c-0.3,0.5,0,1.3,0.7,1.2c0.2,0,0.3-0.1,0.5-0.1
		c11.9,8.3,20.8,20.2,25.3,34c1.1,3.3,1.9,6.6,3.1,9.8c0.8,2,1.6,2.9,3.7,3.3c7.6,1.2,15.8,0.8,23.5,0.9c8,0.1,16.1,0,24.1-0.3
		c3.8-0.1,7.7-0.3,11.5-0.5c1.9-0.1,3.8-0.2,5.7-0.4c1-0.1,2.7,0.2,3.6-0.4c3.5-2.6-0.2-8.5-2-10.9C745.3,779.4,741,773,735.9,767.7
		z"/>
	<path class="st0" d="M935.1,586.4c-4.4-10.7-13.3-18.8-19.4-28.5c-12.3-19.7-17.2-46.4-38.5-59.2c-6-3.6-13.4-5-18-10.6
		c-2.1-2.7-4.1-6-6.9-7.8c1-23.1,11-44.4,22.5-64.1c5.8-9.9,11.9-19.7,17.7-29.6c5.5-9.6,11.8-19.9,14.5-30.8
		c1.6-6.5,1.9-19.3-7-20.7c-10-1.6-14.4,11.5-18.6,18c-12.2,19-29.2,34.1-43.6,51.4c-4,4.7-6.5,9.5-7.6,15.6
		c-1.1,6.4-1.7,13-2.6,19.4c-0.8,6.1-1.7,12.3-2.6,18.3c1.1-12.7,1.8-25.5,2-38.3c0.3-20.7,0-41.9-2.7-62.5
		c-0.9-7.3-3-15.1-9.2-19.6c-5.9-4.3-13.7-4.5-20.6-3.8c-7.9,0.8-15.9,2.3-21.7,8.1c-5.6,5.7-8.2,13.5-10.4,21
		c-6.1,21.5-10.7,43.5-13.6,65.7c-0.1,0.4,0.2,0.7,0.5,0.9c-0.5,4.2-0.2,8.7,0.2,12.6c0.6,6.1,2.1,12.1,4.3,17.7
		c2.1,5.3,4.8,10.3,8.1,14.9c1.6,2.3,3.4,4.4,5.3,6.4c1.6,1.8,3.6,3.8,4.4,6.2c1.2,3.2,0.3,5.7-1.2,8.4c-0.2-1.1-0.5-2.1-0.9-3.2
		c0-0.1-0.1-0.2-0.1-0.2c-0.1-0.3-0.4-0.6-0.8-0.4c-5.8,2.5-10.6,9.1-14.1,14.2c-3.2,4.7-6,9.9-7.8,15.3c-1.3,2.3-2.9,4.4-4.7,6.3
		c-1-2.5-1.5-4.9-1.4-7.7c0-0.6-0.5-1.2-1.1-1.3c-4.9-0.1-9.5-1.1-13.9-3c-1-0.4-2,0.8-1.4,1.7c1.8,3.1,3.1,6.4,3.8,9.8
		c-11.4-15.9-31.6-22.7-50.8-22.3c-20,0.4-39.9,6.3-58.1,15c3.2-2.2,6.5-4.3,9.9-6.3c0.9-0.5,0.8-1.8-0.2-2.2
		c-45.4-17-92.9-28.5-141.2-32.5c-24.3-2-48.8-2.1-73.1,0.1c-12.2,1.1-24.3,2.8-36.4,5c-6,1.1-12,2.5-18.1,3.7
		c-7.5,1.4-15,1.9-22.6,2.2c-11.7,0.6-22.2,3.9-31.1,11.7c-6.4,5.7-11.1,13-13.6,21.1c-0.1,0.1-0.2,0.2-0.3,0.3
		c-12.2,16.4-24.3,32.7-36.4,49.1c-5.5,7.5-11.4,14.8-16.2,22.8c-4.6,7.7-7.7,15.9-9.5,24.6c-1.9,9.1-2.8,18.5-3.5,27.8
		c-0.7,8.8-0.8,17.8,1.9,26.4c4.5,14.1,15.1,25.2,26.6,34c7.3,5.6,15.2,10.8,23.6,14.7c4.6,2.2,9.5,3.9,14.5,4.8
		c2.3,0.4,4.6,0.5,6.9,0.8c-9.8,0.1-19.5-2.8-28.4-7.2c-10-4.8-19.7-11.1-28.2-18.1c-9.3-7.7-14.8-17.4-17.3-29.1
		c-2.3-10.8-3.2-22-2.4-33c0.9-13.5,4.4-27.3,11.3-39.1c0.2-0.3,0.2-0.8,0-1.1c-8-9.3-17.3-18.2-27.7-24.7c-4.3-2.7-6.3,0-7.7,4.1
		c-2,5.8-3.1,12-3.4,18.1c-0.9,24.5,12.3,46.7,13.3,70.9c0.5,11.6-2.5,23.8,3.1,34.6c4.4,8.5,12.6,14.2,20.9,18.6
		c11.1,5.8,23.1,10.2,34.9,14.4c11.7,4.1,23.9,7.5,36.3,7.9c12.2,0.4,24.8-2.2,35.1-9c10.7-7.1,17.7-18.2,23.8-29.2
		c0,0,0.1,0.1,0.1,0.1c-4,8.8-8.5,17.7-14.8,25.1c-6.2,7.2-14.4,10.6-23.6,12.1c-8.8,1.4-17.9,1.6-26.8,1.5
		c-9.4-0.2-18.6-1.3-27.2-5.2c-0.4-0.2-0.8-0.1-1.1,0.1c-7.2,5.8-7.7,16.3-3.8,24.2c2.4,5,6.5,9.1,10.7,12.5
		c4.8,3.9,10.1,7.7,15.5,10.6c5,2.7,10.3,3.4,15.9,3.7c6.8,0.3,13.5,0.9,20.3,1.9c14.4,2,28.7,4.2,43,6.3c0.6,0.1,1.2-0.5,1.3-1.1
		c0.8-8.6-4.5-16.6-12-20.3c2.8,0.6,5.5,1.8,7.9,3.5c2.6,1.8,4.8,4.1,6.4,6.8c1.2,2.1,1.7,4.4,2.7,6.5c2.3,4.7,7.5,4.4,12,4.9
		c7.4,0.8,14.9,1.3,22.3,1.5c0.9,0,1.6-1.4,0.8-2c-4.9-3.8-8.2-8.3-11.5-13.4c-2.7-4.2-6-7.7-10.3-10.3c-6.7-4.2-14.4-6.1-22.2-7.3
		c0.3,0,0.5-0.1,0.8-0.1c5.9,1.8,12.5,1.6,18.5,3.2c7.8,2.2,11.4,8.5,16,14.6c3.2,4.2,6.2,9.3,10.8,12.1c4.3,2.6,9.5,3,14.2,1.5
		c0.5-0.2,0.7-0.5,0.7-0.9c0.5-0.1,1.1-0.1,1.6-0.2c3.2-0.4,6.8-0.5,9.9-1.4c1.2-0.4,2.2-0.6,2.7-1.9c0.4-1.2-0.1-2.3-0.7-3.3
		c-1.6-2.6-4.3-5-6.4-7.3c-4.3-4.8-8.6-9.6-12.8-14.5c-3.1-3.5-6.3-7.2-10.7-9c-4.6-2-9.6-1.9-14.5-1.7c-11.3,0.4-22.1-0.6-32.7-4.1
		c6.4-2.1,11.3-7.3,16-12.1c8-8,17-13.5,27.6-17.4c8.7-3.3,17.8-5.5,26.7-8c6.7-1.9,14.4-3.4,20.1-7.6c-3.6,4.2-8.9,6.7-14.1,8.5
		c-7,2.5-14.2,4.4-21.3,6.8c-14.7,5.1-29,11.5-40.8,21.8c-0.7,0.6,0,1.5,0.7,1.6c12.9,1,25.9,2.8,38.9,2.7c12.9,0,25.1-3.8,37.3-7.5
		c12.6-3.9,25.1-7.9,37.5-12.3c11.9-4.2,23.7-9,36.3-10.7c12.5-1.7,26.4,0.2,36.4,8.6c0.7,0.6,1.7-0.1,1.6-0.9
		c-1.7-13.1,12.7-17.1,23.1-18.8c-6.5,5.1-17.1,5.5-19.5,14.9c-1.3,5.2,0.6,10.4,3.1,15c3.5,6.3,7.4,12.2,10.7,18.5
		c3.3,6.4,6.3,13,8.9,19.7c2.1,5.3,3.2,11.9,6.7,16.4c3.2,4.1,8.4,5.1,13.4,5.5c7.2,0.6,14.4,0.6,21.6-0.1c0.5,0,0.9-0.5,0.9-1
		c0.2-5.2-2.3-9.9-6.3-12.7c4.8,2.1,8.4,6.7,8.6,12.2c0,0.6,0.4,1.1,1,1.1c5.3,0,10.5,0.4,15.7,1.1c0.6,0.1,1.1-0.4,1.2-1
		c1.4-6.4-1.8-13-7.3-16.2c2.5,0.4,4.6,1.9,6.1,4.1c2.1,3,1.9,6.4,3.4,9.5c0.8,1.7,1.9,2.4,3.7,2.7c3.5,0.7,7.5,0.4,11.1,0.5
		c0.5,0,1-0.2,1.2-0.7c1.7-4.9-1.3-9.2-4.2-12.9c-3.6-4.6-7.4-9.3-12.5-12.3c-4.1-2.5-8.6-2.4-13-4c-7-2.5-5.6-13.5-4.2-19.8
		c4.5-5.1,17.7-6.5,22.8-7.5c7.1-1.4,14.2-2.5,21.4-3.7c13.3-2.2,26.8-4.6,39.5-9.3c13.2-4.8,24.2-12.4,34.6-21.7
		c11.8-10.6,23.5-21.4,35.5-31.8c13.4-11.7,26.9-23.1,40.5-34.4c0.7-0.1,1.4-0.2,2-0.3c1.5-0.2,1.1-2.6-0.4-2.4
		c-7.8,1.3-15.7,2.1-23.5,2.1c-6.2,0-12.1-1-17.4-4.2c-10.8-6.7-15.9-18.8-19.6-30.5c6.9,9.8,9.5,23,20.1,29.6
		c7.3,4.5,16.2,3.9,24.4,3.6c11-0.4,22-1.2,33.1-1.7c0.6,0,1-0.8,0.6-1.3c-1.2-1.6-2.3-3.2-3.5-4.8c1.7,1.4,3.4,2.7,5.3,3.7
		c3.9,2.1,8.3,2.5,12.6,2.3c5.4-0.3,10.8-1.1,16.2-1.6c5.2-0.6,10.6-0.8,15.6-2.4c4.6-1.4,8.9-3.9,13.2-6c4-2.1,9.1-3.8,12.6-6.7
		c1.8-1.5,2.4-3.7,1.2-5.8c-1.9-3.2-10.1-4.7-10-8.9c3.8,2.6,7.6,5.2,11.5,7.7c0.5,0.3,1-0.2,0.9-0.7c0.5,0.3,1.2,0.3,1.6-0.3
		C939.3,605,938.6,594.9,935.1,586.4z M813,438.6c-1.7,5.6-3.5,11.3-5.5,16.8c-4,11.3-8.5,22.4-13.6,33.3c-0.3,0.6-1.3,0.9-1.6,0.1
		c-6.4-14.9-14.8-29-20.8-44.1c-5.7-14.3-10.4-31-6.9-46.4c0.1-0.6,1.1-0.6,1,0.1c-1.6,16.3,1.3,31.4,7.6,46.4
		c6,14.1,13.7,27.4,19.9,41.4c4.7-10.3,9-20.8,12.8-31.5c2.2-6.2,4.1-12.4,5.9-18.6c1.6-5.7,2.7-11.6,4.6-17.2
		c0.3-0.9,1.7-0.5,1.6,0.4C817.1,425.9,814.9,432.4,813,438.6z"/>
	<path class="st0" d="M511.2,749.9c-2.7-3.1-5.3-7.8-9.5-8.7c-5.4-1.2-11.5-1.5-17-1.6c-12.3-0.1-23.1,5-34.6,8.4
		c-12.5,3.7-25.5,5.4-38.5,5.2c-7.7-0.1-15.1-1.2-22.6-2.4c-5.1-0.8-10.7-0.6-14.2,3.6c-0.7,0.2-0.7,1.3,0.1,1.4
		c2.9,0.3,5.8,0.2,8.7,0.2c3,0.6,6.2,0.7,9.1,0.7c0.1,0.1,0.3,0.2,0.5,0.2c3.4,0.4,6.8,0.7,10.1,1.1c3.8,0.4,7.9,0.4,11.6,1.6
		c5.8,1.8,10.9,7.4,15,11.7c3.6,3.9,6.3,8.2,9.6,12.3c3.3,4.1,7.7,4.5,12.6,5.1c6.5,0.7,13,1.4,19.5,1.4c6.5,0,12.8-1.1,19.3-1.8
		c6.3-0.6,12.2,0.2,18.5,0.5c4.8,0.2,9.5-0.5,13.2-3.7c0.5-0.4,0.5-1,0.2-1.5c-5.4-8-10.3-16.9-16.6-24.2c-2.6-3-5.7-4.9-9.6-5.5
		c-4.5-0.7-9.2,0-13.6-1.4c4.5,0.2,9.1,0.2,13.6,0.3c5.2,0.1,7.3,2.8,10.1,6.5c5.6,7.4,11.3,14.7,17,22c0.1,0.2,0.2,0.4,0.4,0.5
		c0,0,0,0.1,0.1,0.1c0.3,0.4,0.8,0.4,1.1,0.3c3.7,0.8,7.2,0.3,10.7-1.1c0.7-0.3,0.7-1.3,0.3-1.8
		C527.9,769.5,519.5,759.7,511.2,749.9z"/>
</g>
</svg>
