<?xml version="1.0" encoding="utf-8"?>
<!-- Generator: Adobe Illustrator 22.0.0, SVG Export Plug-In . SVG Version: 6.00 Build 0)  -->
<svg version="1.1" id="Layer_1" xmlns="http://www.w3.org/2000/svg" xmlns:xlink="http://www.w3.org/1999/xlink" x="0px" y="0px"
	 viewBox="0 0 1133.9 1133.9" style="enable-background:new 0 0 1133.9 1133.9;" xml:space="preserve">
<style type="text/css">
	.st0{fill:#010101;}
	.st1{fill-rule:evenodd;clip-rule:evenodd;}
</style>
<g>
	<path class="st0" d="M883.8,498.5c-0.6-3-3.2-5.5-5.1-7.7c-2.5-3-5-5.9-7.6-8.9c-10.3-12.1-20.2-24.8-31.6-35.9
		c-9.3-9.1-20.1-16.7-32-22.3c-6.2-2.9-12.8-5.5-19.5-7.1c-9.4-2.2-18.9,1.3-28.2-0.8c-9.2-6.2-20.1-8-30.3-11.7
		c-5.4-1.9-10.5-4.5-14.8-8.3c-4.9-4.3-8.9-9.5-13.3-14.2c-16.2-17.4-34.5-32.9-53.8-46.7c-10.1-7.2-20.5-14.9-31.6-20.5
		c-7.8-3.9-19.2-5.1-24.2,3.7c-4.7,8.1-0.9,17.7,4.1,24.6c3.4,4.7,7.2,9.2,10.7,13.9c3,4,6.3,7.6,10.8,9.8
		c5.1,2.5,10.8,3.3,16.3,4.3c6.1,1.1,12.2,2.5,18.2,4.3c14.3,4.2,27.8,10.3,40.2,18.5c-6.8-3.4-13.7-6.8-20.6-10
		c-11.2-5.2-22.3-8.5-34.6-10.2c-11.6-1.6-22.9-4.8-34.5-6c-9-1-21.1-0.7-28,6.1c-5.5,5.4-4.7,13.8-1.3,20.1
		c5,9.1,15.3,12.6,24.3,16.6c10.3,4.6,19.3,11.2,27.7,18.6c7.6,6.7,14.6,14.9,23.5,20c4.7,2.7,9.8,3.7,15.2,4.4
		c4.5,0.6,9.6,0.8,13.6,3.2c3.3,2,5.6,4.9,7.9,8c4.4,5.9,9.7,10.2,16.2,11.7c-4.1-0.2-8.2-1.4-11.8-3.7c-3.3-2.2-5-4.8-7.4-8
		c-1.3-1.7-2.9-3.7-5.3-3.1c-2.1,0.5-3.6,3.3-4.8,4.8c-1,1.3-2,2.6-3,3.9c-1,1.3-3.6,3.6-4,5.1c-0.6,2.6,0.9,5.8,2.9,8.5
		c-18.5-7.8-39.4-7.8-59.2-6.2c-23.5,1.8-46.7,4.7-70.3,4.9c-47.1,0.3-95.6-3.8-140.5,13.5c-23.2,8.9-44.5,22.1-65.1,35.7
		c-0.2,0-0.4,0-0.6,0.1c-13.9,5.9-25.4,13.8-34.9,25.6c-9.7,12-18.8,24.9-26,38.6c-14.6,28.2-17.9,60.6-13,91.7
		c2.7,17.4,7.6,34.7,14.6,50.8c0,0.1,0,0.1,0,0.2c7.3,26.3,31.2,40.8,55.5,49.5c-6-0.9-11.8-2.8-17.1-5.8
		c-6.5-3.6-12.1-8.4-18.5-12.1c-5.8-3.3-12.1-5.5-18.9-4.5c-8.7,1.3-15.9,6.5-23.8,9.7c-0.4,0.2-0.6,0.7-0.4,1.1
		c5,9.5,13.6,17.3,22.9,22.3c11.6,6.2,24.4,7.1,37.1,9.2c11.8,2,23.3,8.3,35.3,4.1c8-2.8,14.8-8.9,18.1-16.6
		c-0.4,3.7-3.3,7.8-4.7,10.9c-1,2.1-2.3,4.5-1.5,6.9c1.6,4.7,9.5,5.3,13.4,6.1c14.4,2.7,29.2,2.4,43.8,2.8
		c14.9,0.4,29.6,0.7,44.5-0.1c15.6-0.9,31.3-2,46.8-0.2c0.5,0.1,0.8-0.2,1-0.6c0.2-0.4,0.4-0.8,0.4-1.2c0.6-0.1,1.1-0.7,0.9-1.5
		c-1.2-4.4-3.7-9.8-7.2-13.7c-0.4-0.6-0.9-1.2-1.3-1.7c2.3,1.7,4.3,3.7,6,6.1c2.1,3.1,2.8,7,5.3,9.9c0,0,0,0,0,0
		c0.1,0.6,0.5,1.2,1.2,1.1c4.2-0.3,9.8,0.2,13.7-1.4c0.3-0.1,0.6-0.6,0.6-0.9c0.1-4.7-3.6-10.4-6.3-14.2c-0.7-1-1.6-2.1-2.6-3.3
		c2,1.5,3.8,3.2,5.3,5.3c2.3,3,3.9,6.5,5.6,9.8c0.3,0.6,0.5,1.1,0.8,1.6c0.1,0.3,0.2,0.5,0.4,0.7c0,0,0.1,0.1,0.1,0.1
		c0.3,0.4,0.7,0.7,1.3,0.8c0.3,0.1,0.6,0,0.9-0.1c1.1,0.1,2.3-0.1,3.4-0.1c3.8-0.2,7.6-0.5,11.4-0.8c1-0.1,1.7-1.2,1.1-2.1
		c-6-9.4-12.8-18.7-21-26.2c-9-8.2-19.1-12.2-31.1-14.2c-7.1-1.2-14.1-2.2-21.2-3.3c-3.4-0.5-6.9-1.3-10.4-1.5
		c-3.3-0.2-5.7,0.9-8.6,2.4c-9.7,4.8-20.2,7.1-30.8,7.3c22.4-4.3,43.8-18.5,56.3-37.5c-0.6,1.8-1.2,3.5-1.8,5.3
		c-0.4,1.2,1.5,1.6,1.9,0.4c0-0.1,0-0.1,0.1-0.2c0.1,0.1,0.2,0.1,0.4,0.2c17.3,3.7,23.2-19.4,29.6-30.5c8.7-15.1,8.1-31.9,4.3-48.2
		c4.4,11.2,6.9,23.1,4.8,35.1c-1.1,6.3-3.6,11.8-7.1,17.1c-1.6,2.5-3.4,4.9-5.1,7.4c-0.9,1.2-2.5,4.7-4.1,6c-0.2-0.1-0.4,0-0.6,0.1
		c-0.1,0.1-0.2,0.1-0.3,0.2c-0.3,0.2-0.6,0.6-0.6,1c0,0.2,0,0.3,0,0.5c0,0.4,0.5,0.9,1,1c0.3,0.5,0.8,0.8,1.4,0.7
		c8.2-1.8,16.3-5.7,24.2-8.6c6.8-2.5,14.3-4.3,20.8-7.5c0.1,0,0.1-0.1,0.1-0.1c6.4-3.5,9.3-11.4,12-18c1.2-2.8,2.2-5.7,3.3-8.6
		c-0.2,1-0.4,2-0.7,3c-1.5,7.3-4,15.2-4.2,22.7c-0.2,6.3,5.6,11.9,9.1,16.6c4.3,5.8,8.8,11.4,13.2,17.1
		c9.2,11.9,18.3,24.1,25.8,37.2c6,10.5,10.5,21.3,23.8,23c8.2,1.1,16.8,0.2,25,0.1c9.2-0.1,18.3-0.1,27.5-0.5c0.8,0,1.5-1,1.1-1.7
		c-2.4-5.5-6.4-10-11.6-12.6c3.9,0.9,7.6,2.9,10.5,5.8c2.2,2.3,3.1,5.7,5.3,7.8c2.2,2,6.1,0.9,8.6,1.1c3.5,0.3,8.5,0.9,10.2-3.3
		c0.5-1.3,0.4-2.7-0.2-3.7c-0.5-2.9-3.5-6.7-4.7-8.6c-2.9-4.6-6.2-9.5-10.6-12.8c-3.8-2.8-8.3-4.1-12.9-4.9c-4.3-0.7-8.8-1-12.9-2.4
		c-4-1.3-6.5-2.9-7.3-7.3c-1.3-7.3-0.8-16.2-0.3-23.4c0.4-6.2,1.3-12.3,3.3-18.2c1.2-3.8,3-5.5,6.1-7.9c1.7-1.3,3.3-2.8,4.6-4.5
		c2.1-2.7,3.6-5.6,4.9-8.7c0.1-0.1,0.2-0.1,0.3-0.2c5.5-6.3,12.4-10.1,18.8-15.3c6.5-5.2,11.7-12.2,17.5-18.2
		c12.3-12.7,25.8-24,39-35.8c11.9-10.6,17.5-24,22.5-38.8c2.6-7.6,5.1-15.3,8.7-22.6c1.1-2.1,2.7-4.2,2.1-6.6
		c-0.6-2.2-2.6-4.2-4.4-5.9c10.4,6.2,21.7,11.5,34,10.2c7.9-0.8,14.4-5,20.3-10c6.5-5.5,12.8-11.4,19-17.4
		c10.3-9.9,23.3-21.6,22.1-37.2c-0.1-0.7-0.7-1.4-1.5-1.1c-0.8,0.3-1.6,0.5-2.4,0.7C879.2,507.9,885,504.5,883.8,498.5z"/>
	<path class="st0" d="M595.8,781c-6.3-9.1-12.7-18.1-19-27.2c-6.1-8.8-12.3-17.6-18.4-26.3c-1.6-2.3-2.6-4.4-5.7-3.8
		c-4.3,0.8-8.9,3.6-12.9,5.3c-0.6,0.3-1.1,1-0.6,1.6c0.7,0.9,1.4,1.8,2.1,2.7c4.2,8.7,7.6,17.2,9.8,26.7c2.1,9,5.7,17.3,10.6,25.1
		c2,3.2,4.1,6.3,6.2,9.3c2.5,3.5,5,8.1,8.3,10.9c2.6,2.2,6.2,2.1,9.5,2.4c5.2,0.6,10.4,1.2,15.6,1.7c0.8,0.1,1.5-0.5,1.4-1.3
		c-0.5-5.3-2.4-10.2-5.6-14.2c3.6,3.5,5.1,9,6.4,14c0.1,0.6,0.6,0.9,1.2,0.8c2.4-0.2,4.7-0.4,7.1-0.5c0.8-0.1,1.3-0.8,0.9-1.5
		C607.9,797.7,601.6,789.4,595.8,781z"/>
</g>
</svg>
