<?xml version="1.0" encoding="utf-8"?>
<!-- Generator: Adobe Illustrator 22.0.0, SVG Export Plug-In . SVG Version: 6.00 Build 0)  -->
<svg version="1.1" id="Layer_1" xmlns="http://www.w3.org/2000/svg" xmlns:xlink="http://www.w3.org/1999/xlink" x="0px" y="0px"
	 viewBox="0 0 1133.9 1133.9" style="enable-background:new 0 0 1133.9 1133.9;" xml:space="preserve">
<style type="text/css">
	.st0{fill:#010101;}
	.st1{fill-rule:evenodd;clip-rule:evenodd;}
</style>
<g>
	<path class="st0" d="M815.5,288.4c-12.5,11.7-25,23.5-37.4,35.2c-4.9,4.6-10.4,9.2-13,15.7c-2.4,5.9-2.4,12.5-3.6,18.6
		c-2.7,12.8-8.3,24.8-10.4,37.8c-1.3,7.6-0.7,14.8,0.8,22.4c0.6,3.3,1.3,6.7,1.6,10.2c-1-7.2-3.4-14.5-4-21.8
		c-0.6-7.8,1.2-15.5,2.9-23.1c1.6-7.2,3.3-14.5,5-21.7c3.4-14.7,5.8-28.9,17.9-39c10.9-9,21.7-17.6,31.5-27.9
		c5.3-5.6,16.5-15.6,10.2-24.1c-2.1-2.7-5.3-3.7-8.5-2.3c-6.1,2.8-11.8,8.2-17.1,12.3c-22.4,17.4-43.2,37-61.8,58.4
		c-10,11.5-19.4,23.9-25.6,37.9c-6.7,15.2-7.9,32-12.8,47.8c-0.6-0.1-1.1-0.3-1.7-0.4c-0.2-0.1-0.4-0.2-0.7-0.2
		c-0.2,0-0.4-0.1-0.6-0.1c-0.6-0.1-1,0.2-1.2,0.6c-1.4,0.4-2.8,0.7-4.2,0.7c-5,0-5.7-4.3-6-8.2c-0.4-5.9-0.6-11.8-0.9-17.8
		c-0.5-11.5-1.1-23-2.9-34.4c-3-19.3-9.7-38.3-23.2-52.8c-0.6-0.7-1.7,0.1-1.7,0.9c0.7,11.1,5.2,21.3,7.3,32.2
		c2.5,12.7,1.1,25.6-1.6,38c-2.3,10.5-5.1,21.1-8.5,31.3c-3.1,9.4-7.3,18.5-14.4,25.4c-0.2-19.9-9.4-36.7-20.3-52.6
		c13,12.6,21.6,27.5,22.1,46.1c0,1.2,1.7,1.7,2.1,0.4c16.4-48.3,30-110.9-8.7-152.4c0.8-0.3,1.2-1.4,0.3-2.1
		c-6.6-5.1-14-9.6-21.3-13.6c-5.3-2.9-11.6-4.9-17.4-2c-5.4,2.8-8.1,8.7-9.8,14.2c-2.4,7.8-3.6,16.1-5,24c-3,17.2-4.4,34.5-1.2,51.8
		c3.4,18.2,10.4,35.8,16.7,53.2c1.8,5,3.6,10,5.4,15c1.1,2.9,2,6.3,4.4,8.4c1.9,1.7,4.9,1.9,7,0.8c-2.5,8.1-4.2,16.7-1.2,24.9
		c2.1,5.9,5.5,10.8,5.9,17.3c0.4,6.1,0.3,12.2,0.5,18.3c-5.2,21.4-8.2,43.9-8.5,66.1c-1-8.8-1.6-17.8-0.5-26.3
		c1.2-9.8,4.1-19.3,4.6-29.2c0-0.2,0-0.4,0-0.6c0-0.9,0.1-1.8,0.1-2.6c0-0.1,0-0.2-0.1-0.3c0.2-0.5,0-1.2-0.7-1.3
		c-9.5-1.2-19.4-0.8-29-0.4c-0.9,0-1.8,0.1-2.6,0.1c-21.8-2.3-43.7-4-65.7-4.2c-29.7-0.2-59.7,3.3-86.6,16.7
		c-46.1,23-83.3,65.5-94.9,116.2c-7.1,31-4.9,65.4,9.3,94.1c-0.4-0.2-0.8-0.5-1.2-0.8c-1.5-1.5-3-3-4.5-4.5c-3.9-4.1-8-8.1-12-12.2
		c-0.8-0.8-2.1,0.3-1.4,1.1c0.5,0.6,1.1,1.1,1.6,1.7c-0.6-0.4-1.1-0.8-1.7-1.2c-0.7-0.5-1.7,0-1.6,0.9c1.9,14.1,3.6,28.1,5.4,42.2
		c1.5,11.5,2.7,22.7,9.8,32.3c13.5,18.3,38.4,29,60.6,31.1c0.1,0,0.1,0,0.2,0c0,0,0,0,0,0c0,1.3,2,1.2,2-0.1c0-7.7,0-15.5-0.1-23.2
		c1.7,12.6,3.9,25,6.8,37.4c2.2,9.3,3.9,19.7,7.7,28.4c3.1,7.1,12.4,6.3,18.9,6.8c19.4,1.7,38.7,3.4,58.1,5
		c9.6,0.8,19.3,1.7,28.9,2.5c9.3,0.8,19.1,2.7,28.4,2.3c6.1-0.2,8.2-5.3,6.1-10.6c-2.4-6-8.2-10.7-13.9-14.2
		c5.9-1.1,11.8,2.1,15.2,7.2c3.4,5.1,4.2,11.4,4.5,17.4c0,0.6,0.7,1.2,1.3,1.2c6.4,0.5,12.8,0.5,19.1-0.2c1.7-0.2,6-0.1,7.4-1.4
		c1.4-1.3,1.6-4.5,1.9-6.2c1.4-11.3-5.3-20.9-12.3-29.2c10.5,1,12.4,15.6,13.1,24.1c0.2,2.9-0.1,7.4,2.5,9.4c2.6,2,6.8,0.7,9.7,0.3
		c6.8-0.9,16.6-0.3,20-7.7c2.5-5.5,1-12.3-1.9-17.3c-4.6-8.2-12.2-14.4-19.5-20.1c-6.9-5.4-14.5-10.4-23.2-12.1
		c-10.2-2-21.3-1.1-31.7-1.3c-11.3-0.2-22.6-0.4-33.9-0.5c-10.5-0.1-22.7-1.8-32.7,2.5c-6.6,2.8-13,6.6-19.3,10.4
		c3.4-2.9,7-5.6,10.9-8c6.9-4.2,13.4-8,18-14.8c7.7-11.1,8.9-24.5,7.4-37.5c5.1,14.7,2.1,31.9-8.6,43.5c-0.8,0.9-0.4,2.6,1,2.6
		c40.6-0.7,81.1,0.3,121.6,3.1c0.5,0.8,1.8,1,2.3,0.2c0.2,0,0.3,0,0.5,0c1.9,0.1,1.8-2.7,0-3c2.4-22.8-14.9-41.1-30.6-55.3
		c-9.2-8.3-22.2-17-24.5-29.9c-1-5.8,0-11.9,0.7-17.7c0.1-0.5,0.1-1,0.2-1.5c0,2.9,0.1,5.7,0.3,8.6c0.6,8.5,2.9,15.8,8.6,22.2
		c11.3,12.7,26.6,21.2,37.2,34.6c5.9,7.5,9,16,11.1,25.2c2.3,10.2,4.4,20.4,7,30.5c1.5,5.8,3,11.5,4.7,17.2
		c1.3,4.5,2.4,9.5,4.7,13.7c3.8,7,10.9,7.9,18.1,9.5c5.5,1.2,18.3,6.7,21.5-0.8c-0.1,1.2-0.2,2.4-0.3,3.5c0,0.5,0.2,1.2,0.7,1.4
		c7.1,2.5,16.3,2.4,20.4-5.1c3.7-6.7-1.2-11.8-4.3-17.4c6.5,4.8,6.2,14.5,5.8,22.1c0,0.9,1,1.4,1.8,1.2c7.8-2.6,13.2-10.3,13.1-18.6
		c-0.1-10.4-9.8-16.3-15.9-23.5c-17.5-20.6-18.8-48.9-19.6-74.6c12.9-4.3,25.9-8.7,37.6-15.6c11.4-6.7,20.1-16.6,31.1-23.7
		c5.1-3.3,10-6.5,13.8-11.3c3.9-4.9,6.9-10.4,10-15.9c6.5-11.5,12.3-23.8,14.8-36.8c2.6-13.7,1.5-28-5.2-40.4
		c-0.2-0.3-0.4-0.5-0.7-0.6c-0.5-0.8-2-0.6-2.2,0.6c-1.3,8.3-8,12.1-15.5,14.8c6.7-4.8,12.1-10.9,14.8-19.6
		c3.9-12.4,2.1-25.4-0.6-37.9c3.5,7.7,5.4,16.1,4.5,24.7c-0.1,1.1,1.6,1.7,2.3,0.9c14.4-18.8,9.1-45.7-1-65
		c-1.5-2.9-3.2-5.8-4.9-8.6c-1.6-2.7-3.9-5.3-4.5-8.4c-0.9-4.8,2.3-9.4,1.1-14.5c-0.5-2.3-1.6-4.3-3-6.2c-1.2-1.7-2.8-2.2-3.2-4.8
		c-0.2-1.3,0.1-3.1,0.1-4.4c-0.2-4-1.1-7.8-2.7-11.4c0,0,0.1,0,0.1-0.1c4.1-5.9,8.3-12,10.7-18.9c2.5-7.2,1.6-15,4.6-22.1
		c6.1-14.1,17-26.2,24.8-39.4c3.7-6.4,7.1-13.1,9.4-20.1c2.7-8.2,3.8-16.8,5-25.4c2.6-17.8,5.1-35.5,7.8-53.3
		C817.5,288.6,816.3,287.7,815.5,288.4z"/>
	<path class="st0" d="M698.3,792.4c-5-4.4-8.3-8.4-9.6-15c-1.7-9.5-0.8-19.2,4.8-27.3c0.9-0.3,1.8-0.6,2.7-0.9
		c1.2-0.4,0.5-2.4-0.7-2.1c-8,1.8-15.8,4.6-23.7,6.8c-0.4,0.1-0.8,0.7-0.7,1.2c1.8,10.8,2.3,21.5,3,32.4c0.6,10.1,5.9,19.5,7.8,29.5
		c0.1,0.6,0.7,1,1.3,0.9c4.9-0.7,9.8-1.5,14.6-2.2c0.7-0.1,0.8-0.9,0.6-1.4c-0.9-1.9-1.7-3.8-2.6-5.7c2.7,3.9,4.2,9.9,9.9,7.6
		c6.6-2.7,3.9-11.5,0.8-15.7C704.2,797.3,701.2,794.9,698.3,792.4z"/>
</g>
</svg>
