<?xml version="1.0" encoding="utf-8"?>
<!-- Generator: Adobe Illustrator 22.0.0, SVG Export Plug-In . SVG Version: 6.00 Build 0)  -->
<svg version="1.1" id="Layer_1" xmlns="http://www.w3.org/2000/svg" xmlns:xlink="http://www.w3.org/1999/xlink" x="0px" y="0px"
	 viewBox="0 0 1133.9 1133.9" style="enable-background:new 0 0 1133.9 1133.9;" xml:space="preserve">
<style type="text/css">
	.st0{fill:#010101;}
	.st1{fill-rule:evenodd;clip-rule:evenodd;}
</style>
<path class="st0" d="M686.8,290.1c-22.4-4-45,3.9-63.1,16.9c-19.8,14.3-33.6,36.6-55.6,47.7c-0.9-0.2-1.9-0.3-2.8-0.6
	c-2.9-1-5.1-2.8-6.8-5.4c-2.8-4-3.9-9-5-13.7c-2.3-9.2-5.3-18.1-9.2-26.7c-3.6-8-7.9-15.7-12.9-23c-5.5-8.1-12.1-14.9-18.2-22.4
	c-0.5-0.6-1.9-0.4-1.9,0.5c0.1,12.6,0.6,25.3,0.4,37.9c-0.2,12.8-1.6,25.5-2,38.2c-0.1,0.1-0.1,0.1-0.1,0.2
	c-0.2,0.8-0.3,1.6-0.5,2.5c-0.1,0.6,0.4,1,0.9,0.8c8.6-2,16.8,0.4,24.7,3.5c-14.8,2.2-30-2.1-44.5,2.6c-13,4.2-25,13.4-35.3,22.2
	c-9.4,8-17.6,18.1-19.6,30.7c-1,6.3-0.4,12.8,2.5,18.5c1.8,3.6,5.3,6.9,7.8,10.5c-1.1-0.3-2.2-0.3-3.3-0.6c-0.1-0.4-0.6-0.5-0.9-0.4
	c-0.1,0-0.1-0.1-0.2-0.1c-0.6-0.4-1.1,0.5-0.6,0.9c0.1,0,0.1,0.1,0.2,0.1c-2,13.8,1.3,29.4,13.2,37.6c5.9,4,13.1,6.4,20.5,7.7
	c-5,6.2-9,13.5-11.1,21.2c-3.2,11.5-3.1,23.9-3.7,35.8c-0.7,13-1.5,26.1-4.4,38.9c-2.7,12-5.5,23.1-2.9,35.3
	c1.8,8.2,5.1,16,9.1,23.4c-3.7-4.9-7.5-9.9-11.2-14.8c-0.7-1-2.1,0.2-1.5,1.2c-0.5-0.1-1,0-1.1,0.6c-11.1,43.4-21.3,89-14.4,133.9
	c1.6,10.2,4,20.3,7.6,30c3.6,9.8,8.4,19.1,13,28.5c4.5,9.2,8.9,18.6,11.6,28.6c2.2,8.2,1.6,17.6,8.3,23.7c6.1,5.6,16.1,8.1,24.3,8.5
	c3.9,0.2,7.3-1,9.2-4.5c1.8-3.4,1.4-7.1,0.3-10.7c1.9,4,2.2,8.6,0.5,12.9c-0.2,0.6,0.1,1.5,0.8,1.5c4.9,0.3,9.9,0.8,14.9,0.8
	c2.8,0,5.6-0.4,7.7-2.5c1.1-1.2,1.8-2.6,2.1-4.1c0.1,1.7,0.3,3.4,1.7,4.5c2.7,2,6.5,1.3,9.1-0.4c7.9-5.3,3.8-17.8,1.4-25
	c-6.4-18.9-20.7-36.1-41.4-39.1c-3.8-0.6-7.7-0.6-11.5,0c8.1-3.1,16.7-4.1,25-0.4c6.6,3,10.2,9.6,16.3,13.3c6,3.6,13,5.6,19.5,7.8
	c13.8,4.7,27.8,8.9,41.8,12.8c7.3,2,14.6,4,21.9,5.9c7,1.8,14,4.1,21.1,5.4c4.8,0.9,8.9-1.4,10.5-6.1c0.1-0.2,0.1-0.4,0.2-0.6
	c0,1.8-0.2,3.6-0.6,5.4c-0.1,0.6,0.4,1.4,1.1,1.3c5-0.6,10-1.1,14.9-1.7c0.6-0.1,1.2-0.5,1.2-1.2c0-5.5-1.4-10.6-3.9-15.3
	c1,1.1,2,2.3,2.7,3.6c1.6,2.7,1.7,6.1,3.6,8.6c2.2,3,6.2,2.5,8.6,0c6.8-7.3-4.9-20.2-9.9-25.5c-14.7-15.9-34.9-24.5-54.9-31.9
	c0,0,0,0,0,0c0.2-0.4,0.2-1-0.2-1.4c-0.1-0.1-0.3-0.2-0.4-0.4c0,0,0,0,0,0c0.2-0.9,0.5-1.9,0.6-2.6c0.2-1.3,0.2-2.7,0.2-4
	c0-3.3-0.4-6.6,0.8-9.7c2.2-5.6,8.1-8.7,12.8-12c8.5-6,15.1-14,20-23.2c11.5-21.6,12.4-46.8,12.3-70.8c0-16.2-1.5-32.3-2.7-48.4
	c-0.1-0.7-1.1-1-1.3-0.2c-1.1,5-3,9.6-5.5,13.9c0.9-2.6,1.7-5.4,2.2-8.2c1.4-5.2,2.6-10.5,2.9-15.7c0-0.5-0.5-0.7-0.9-0.6
	c0-4.3-0.6-8.8-1.1-12.8c-0.7-6.2-1.8-12.3-3.2-18.4c-3.1-12.6-7.9-24.6-14-36c-6.5-12.2-13.5-24.1-20.4-36.1
	c-3.5-6.2-7-12.3-10.5-18.4c-1.6-2.8-3.7-5.6-4.8-8.6c-1.5-4,0.5-6.7,1.6-10.5c3.4-12.6-0.4-26.5-5.1-38.3c-0.2-0.5-1-0.6-1.3-0.1
	c-0.3,0.4-0.6,0.8-0.9,1.3c1.6-5.3,5.6-9.5,10.1-13c2.2-1.7,4.4-3.4,6.8-4.9c3.8-2.4,7.1-2.6,11.5-2.8c9.8-0.4,19.1-3.9,27.2-9.2
	c19.7-12.8,31.2-35.3,40.6-56.1c5-11,9.9-22.4,13.1-34C705,294.8,694.9,291.6,686.8,290.1z M465.6,386.7c0.1,0,0.1-0.1,0.2-0.1
	c-0.4-0.3-0.5-1,0.2-1.3c3.6-1.6,6.7-3.6,9.3-6.3c0.1-0.2,0.2-0.3,0.3-0.5c0.1-0.2,0.3-0.4,0.5-0.5c0.1-0.1,0.2-0.3,0.4-0.5
	c0-0.1,0-0.2,0.1-0.3c0.1-0.3,0.3-0.6,0.6-0.7c0.3-0.5,0.7-1,1-1.5c0.4-0.7,1.6-0.5,1.8,0.2c1.2,3.5,0.2,7.2-2.4,9.8
	c-3,3.1-7.5,3.8-11.6,3.7C464.7,388.9,464.4,387.1,465.6,386.7z M453.2,382.2C453.2,382.1,453.2,382.1,453.2,382.2L453.2,382.2
	c0.1-0.1,0.1-0.2,0.1-0.3c0.6-0.9,2.1-0.2,1.8,0.8c-0.1,0.2-0.1,0.3-0.1,0.4c0.4,0.6,0.8,1.2,1.3,1.7c0.1,0,0.2,0,0.3-0.1
	c1.2-0.2,2.4,0.4,2.4,1.5c0.9,0.5,0.5,2-0.6,1.8c-1.3-0.3-2.7-0.7-3.8-1.5c-0.5-0.2-0.9-0.5-1.2-1
	C452.8,384.6,452.7,383.3,453.2,382.2z M465.7,410.5c0.1,0.3,0.2,0.7-0.1,1c-3.5,5.1-8.1,10.3-13.9,12.7c-0.5,0.2-0.9-0.4-0.8-0.8
	c-0.4-0.1-0.7-0.4-1-0.8c-0.4-0.6,0.5-1.2,1-0.8c0.4,0.4,0.9,0.3,1.5,0c2-1.7,3.9-3.4,5.8-5.2c0.4-0.4,0.6-0.8,0.8-1
	c1.1-1.4,2.1-2.9,3-4.5c0.3-0.5,0.6-1.1,0.9-1.6c0.2-0.3,0.4-0.7,0.5-1.1c-0.4-0.3-0.5-0.8-0.2-1.2c0.1-0.1,0.2-0.2,0.2-0.3
	c-0.6-1.3-1.1-2.7-1.3-4.1c-0.5-1.8-0.8-3.7-0.7-5.5c0-0.4,0.3-0.5,0.6-0.5c0-0.2,0.1-0.4,0.1-0.6c0.1-0.6,1.1-0.5,1,0.1
	c-0.1,1.2-0.2,2.3-0.1,3.3c0.8,3.2,1.7,6.2,3.7,9.1c1.6,2,3.6,3.7,5.8,5.2c2.6,1.8,5,3.8,7.2,6.1c6.1,6,14.1,17.5,23.8,14.1
	c1.4-0.5,2.2,1.5,0.9,2.1c-10.7,5.1-19.9-8.4-26.1-14.9C474.6,417.6,469.2,414.8,465.7,410.5z M519.4,798.1
	c-9.1-7.6-13.8-18.2-16.8-29.3c-0.2-0.1-0.3-0.3-0.3-0.5c0-0.4-0.1-0.7-0.1-1.1c-1.5-5.7-2.6-11.5-3.6-17.2
	c-0.6-3.1-1.2-6.1-1.7-9.2c-0.4-1.7-0.7-3.4-1-5.1c-3.6-19-7.2-38-10.8-57c-0.1-0.7,0.4-1,1-1c0-0.3-0.1-0.5-0.1-0.8
	c-0.1-0.8,1.1-1,1.2-0.2c4,21.6,8.3,43.2,13.4,64.6c2.5,10.6,5.2,21.3,8,31.8c2.1,8,4.6,16.3,10.5,22.2c0.5,0.5,1,0.9,1.5,1.4
	C521.2,797.4,520.3,798.8,519.4,798.1z M558.5,676.2c-0.8,5.6-1.9,11.1-3.2,16.7c-2.1,12.1-4.1,24.2-4,36.7
	c0.1,21.1,3.3,42.2-0.4,63.1c0,0,0,0,0,0h0c0,0.1,0,0.1,0,0.2c-0.2,1.1-1.7,0.6-1.7-0.3c-0.2-3.2-0.3-6.5-0.5-9.7
	c-0.1-0.1-0.1-0.3-0.2-0.5c-0.1-0.3-0.1-0.7,0.1-0.9c-0.2-4-0.4-8.1-0.6-12.1c0,0,0,0,0-0.1c-0.1-1.1-0.2-2.3-0.1-3.4
	c-0.1-1.4-0.1-2.8-0.2-4.2c-0.5-10.4-0.4-21.1-2.1-31.4c0-0.1-0.1-0.3-0.1-0.4c-8.8-17.2-15.9-35.4-20.4-54.2c-0.1,0-0.2,0-0.4-0.1
	c-0.8-1-0.8-1.6-0.1-2.8c0.1-0.1,0.2-0.2,0.3-0.2c-0.4-1.6-0.8-3.2-1.2-4.9c-0.1-0.7,0.8-1,1.2-0.4c0,0,0,0,0,0
	c0.2,0,0.4,0.2,0.5,0.5c0.2,0.6,0.3,1.2,0.5,1.8c2.7,6.1,4.7,12.3,6.6,18.5c1.9,5,3.8,10,5.7,15c2.3,6.1,5,12.3,7,18.6
	c0.5,0.8,0.9,1.6,1.2,2.4c1,1.8,1.8,3.7,2.5,5.6c-0.3-21.8,2.6-43.5,8.7-64.6c0.3-0.9,1.7-0.5,1.6,0.4c-0.3,3.4-0.7,6.7-1.1,10
	C558.4,675.6,558.6,675.8,558.5,676.2z M606.6,754.1C606.6,754.1,606.6,754.1,606.6,754.1c0.6-17.5,3.2-34.9,7.6-51.9
	c4-15.7,9.4-31.7,17.2-46.1c0.7-1.6,1.4-3.2,2.1-4.8c0.4-0.9,2-0.3,1.6,0.7c-2.5,6.2-5,12.5-7.5,18.7c-0.3,0.9-0.7,1.7-1,2.6
	c-9.4,26.2-15.6,53.4-18.3,81.1c-0.1,1-1.7,0.9-1.7-0.1C606.6,754.2,606.6,754.2,606.6,754.1L606.6,754.1z M604,791
	c0.5-1.3,2.5-0.6,2,0.7c-2.3,6.6-9.8,13-16.3,15.3c-0.3,0.1-0.6,0.2-0.9,0.3c-0.7,0.7-1.6,1.3-2.4,1.8c-5.6,3.5-12.6,3.4-18.3,0.4
	c-0.3,0.5-1,0.6-1.4,0.2c-0.1-0.1-0.2-0.2-0.3-0.3c-0.6,0.3-1.1-0.3-1.1-0.9c0-0.4,0-0.7,0-1.1c-0.8-0.3-1.5-0.8-2.1-1.2
	c-0.1-0.1-0.2-0.1-0.3-0.2c-0.9-0.5-0.3-2,0.7-1.5c0.5,0.3,1.2,0.5,1.7,0.4c0.1-4.5,0.5-9,1.2-13.4c0-0.1,0.1-0.2,0.1-0.3
	c0.1-1,0.3-1.9,0.5-2.9c0.2-0.9,1.4-0.7,1.4,0.2c-0.1,1.6-0.2,3.2-0.3,4.8c0,1.6,0,3.2,0.1,4.8c0.1,1.7,0.3,3.4,0.4,5.2
	c0,0.2,0,0.4,0,0.6c0.1,0.6,0.2,1.2,0.3,1.8c4.9,1.3,10.6,1.5,15.7,0.5c0.1-0.1,0.3-0.1,0.4-0.2c3.6-1.7,4.2-3.5,4.3-7
	c-0.1-2-0.2-4-0.4-6c-0.2-1.5-0.5-3-0.9-4.5c-0.3-1,1.2-1.5,1.5-0.5c0.2,0.6,0.3,1.1,0.4,1.7c0.2,0.1,0.3,0.3,0.3,0.5
	c0.6,3.9,2.4,8.8,1.4,12.7c-0.1,0.4-0.2,0.7-0.4,1C596.4,801.4,602.2,796.2,604,791z M660.4,298.3c-9,6.8-18.1,12.9-26,21
	c-6.1,6.2-11.5,13-16.4,20.2c-1.2,1.9-2.3,3.8-3.4,5.8c-8.3,15-13.9,31.1-20.1,47c-1,3.5-2,7-2.9,10.5c-0.2,0.6-1.1,0.5-1-0.2
	c0.2-0.8,0.3-1.6,0.5-2.4c-0.4,0.1-0.9-0.2-0.8-0.7c1.4-4.9,2.9-9.9,4.6-14.8c4.8-16.6,11.9-32.7,21.5-47.1c0.3-0.4,0.5-0.8,0.8-1.2
	c3.5-5.6,7.4-11,11.8-16c5.7-6.6,12.4-13.7,20.2-17.9c0.3-0.2,0.6-0.1,0.8,0c3.1-2.1,6.4-4,9.8-5.4C660.4,297,661,297.9,660.4,298.3
	z"/>
</svg>
