<?xml version="1.0" encoding="utf-8"?>
<!-- Generator: Adobe Illustrator 22.0.0, SVG Export Plug-In . SVG Version: 6.00 Build 0)  -->
<svg version="1.1" id="Layer_1" xmlns="http://www.w3.org/2000/svg" xmlns:xlink="http://www.w3.org/1999/xlink" x="0px" y="0px"
	 viewBox="0 0 1133.9 1133.9" style="enable-background:new 0 0 1133.9 1133.9;" xml:space="preserve">
<style type="text/css">
	.st0{fill:#010101;}
	.st1{fill-rule:evenodd;clip-rule:evenodd;}
</style>
<path class="st0" d="M823.2,482.7c-2.3-7.9-8.9-14.8-14.5-21.2c11.5-32.5-37.9-46.3-63.5-53c2.7-10.7,4.1-21.5,3.1-33
	c-1.4-15.9-2.2-30.7-7.4-45.5c-5.8-16.3-6.4-33.8-14.3-49.1c-11.6-22.5-18.3,4.1-18.4,16c0,9.8-0.3,19.6-0.5,29.4
	c-5.4-18.5-9.8-38.3-21.3-52.6c-21.2-26.2-27,20.8-26.6,34.7c1.1,42.7,12.8,77.3,32.4,112.1C671.5,438.1,663.3,463,646,484
	c-22.6,27.5-50.4,29.2-83.6,26.3c-34.4-3-63.9-9.8-96.7,0.6c-16.2,5.1-35.7,24.4-44.5,39.8c-5.8,10.2-9.5,22.4-12.6,34.3
	c-4.2-6.1-11.7-5.9-14.9-13.5c-6.1,4.4-5.6,12.9-14.6,5.8c-0.1,1.1-0.2,2.1-0.4,3.2c-9.3,2.1-8.8-6.9-15-7.4
	c-5.4-0.4-7.9,8.3-9.1,13c-3.5,13.4,1.1,24.6,8.2,35.8c0.4-2.3,8,25.8,20.6,22.6c-0.5,11.5,12.7,13.4,20.8,18.4
	c2.9,12,0.5,22.9,6.5,34.3c-4.3,18.8-8.4,36.8-28.5,40.8c-11.8,2.4-19.8,4.9-27.9,15.3c-7.1,9-13.3,19.4-17.5,29.9
	c-4.2,10.5-6.9,21.8-11.6,32c-4.8,10.3-13.8,19.4-15.1,31.2c-1.5,13.4,6.6,19.4,18.9,20.7c12.5,1.3,18,1.6,30.4,0.1
	c14.6-1.8,23.5-8,17-21.1c-4.4-8.8-4.1-11.5-14.7-20.2c7.1-8.9,17.8-18.6,25.4-25.9c5.3-5.1,11.5-9.8,18.1-14.2
	c-3.4,16.6-7.7,24.8-6.8,42.4c0.7,13,3.7,18.4,18.8,19.8c10.8,1,19.8,2.5,30.4,1.3c9.4-1,14.2-7.7,12-14.6
	c-3.4-11.5-13.4-14.6-19.6-18.6c-5.9-3.9-5.1-4.2-2.7-12c1.3-4,2.4-12.1,4.7-15.2c5-7,20.2-12.1,27.3-18c9.8-8.1,18.3-13.8,25-24.4
	c5.3-8.3,9.9-20.8,12.3-30.5c3.3-6.3,6.4-14.3,8.1-22.4c7.3-0.1,16.4,1.3,21.8,0.5c10.4-1.4,21-0.7,31.4-2.4
	c20.6-3.5,38.8-8.4,57.2-19.2c4.6-2.7,8.2-5.4,11.3-8.5c6.3,20.6,14.3,44.5,35.9,43.4c19.9-1,33.7-21.2,49.4-32.7
	c3.8,4.6,3.3,10.3,4,17.9c1,10.8,4.9,14.7,13.3,20.8c22.4,16.2,25.5-7.8,21.2-26.9c-1.4-6.1-4.1-11.5-7.1-16.8
	c13.8,4.9,26.6,15.4,42.3,8.3c28.8-12.9,7.3-44-12.9-52.1c-23-9.2-44.5,7.9-68,0.3c1.3-1.5,2.4-3.1,3.5-4.8
	c7.8-12.7,15.7-35.2,15.8-50c0.1-15.3-9.6-36.1,0.3-50.4c6.9,1,14.8-0.3,20.8-1.4c6.5-1.1,11.6-2.1,17-6.6c1.4-1.2,2.6-2.7,3.8-4.3
	c3.4,7,11.7,9.3,20.6,6.3c9.1-3.1,12.1-7.5,15.2-13.6C820.7,502.1,826.3,493.2,823.2,482.7z"/>
</svg>
